<svg id="eVKIq1Tv0S31"
    xmlns="http://www.w3.org/2000/svg"
    xmlns:xlink="http://www.w3.org/1999/xlink" viewBox="0 0 2354.8228 2475.6101" shape-rendering="geometricPrecision" text-rendering="geometricPrecision" project-id="fe9b4bd5a44740d0871144ef1f939480" export-id="3fd7c507ea9249c08d4315ba87f35ca7" cached="false">
    <defs>
        <linearGradient id="eVKIq1Tv0S318-fill" x1="0.5" y1="0" x2="0.5" y2="1" spreadMethod="pad" gradientUnits="objectBoundingBox" gradientTransform="translate(0 0)">
            <stop id="eVKIq1Tv0S318-fill-0" offset="0%" stop-color="rgba(255,255,255,0)"/>
            <stop id="eVKIq1Tv0S318-fill-1" offset="100%" stop-color="#010022"/>
        </linearGradient>
    </defs>
    <g transform="translate(9801.75 3588.45)">
        <g transform="matrix(13.6677 0 0 13.6677-9801.75-3588.45)">
            <path d="M172.17427,11.948194c-1.23182-12.184399-13.62362-11.947802-19.83-11.947802L0.008583,0.000394c.0326,30.679992-.0826,61.54807.0857,92.2278.17,26.329996,13.11485,48.346876,32.92934,61.041276s51.42066,27.85872,51.42066,27.85872c11.75534-7.23836,44.587307-27.08947,44.589997-27.07c22.56-14.03,34.58-35.4,34.77-61.819996.13534-22.23968.09-44.480013.09-66.719998c6.23-3.22,9.02-7.78,8.28-13.57Z" fill="#5bba47"/>
            <path d="M159.64427,22.888194c-.0111,23.106735.0512,46.21354-.09,69.32-.18,25.229996-11.21,44.829996-32.76,58.239996-8.47,5.27-17.12,10.41-25.49,15.39l-4.309997,2.57-12.96,7.98c-16.92509-8.28398-32.39086-16.27499-47.61-26.06s-31.91-32.96-32.07-58.129996c-.13224-29.29302-.06-58.586532-.06-87.879802L153.68427,4.318194c3.64062,0,13.81125,2.102252,14.28,8.16s-3.96044,8.154838-8.32,10.41Z"/>
            <path d="M84.024273,12.098194c-4.29946,2.398675-7.7359,6.014298-9.66,9.94h-52.54c.0157,23.370102-.1243,46.74027.06,70.11-.21045,24.883556,14.52368,39.371706,34.05,49.509996c1.00292,7.01694,4.75099,13.85614,6.48742,15.98355-8.74361-5.18371-9.0726-5.6242-21.81742-13.71355s-28.47-29.38-28.61-51.779996c-.19351-26.68306-.06-53.366272-.06-80.05c24.02986.04302,48.05993.01153,72.09,0Z" fill="#5bba47"/>
            <path id="eVKIq1Tv0S37" d="M43.234273,100.24819c-.89532,0-2.95-4.449996-3.81-6.889996-.94-2.65-1.81807-5.37693.5125-7.7075c3.52031.94327,4.19282,14.597496,3.2975,14.597496ZM160.36427,13.468194c.13,1.01-3.63,1.71-8.37,5.22c0,0,.03,55.66-.1,73.46-.0971,13.615176-3.74661,25.382346-10.88606,35.196526-4.6275,6.36116-10.72116,11.90184-18.26394,16.59347-8.39,5.22-37.899997,22.72-37.899997,22.72-2.589829,1.58073-9.697951-1.83656-15.497695-8.051-4.14333-4.43958-7.618909-10.30673-8.302305-16.799-.699714-6.6689,1.01552-12.15735,4.180209-16.84178c3.886582-5.75298,9.959307-10.2933,16.429791-14.31822c5.249935-3.26569,10.506234-7.7983,13.713208-13.044149c3.963994-6.484149,4.796969-14.057985-1.383208-21.675847-1.12625,10.25625-10.36,14.05-17.17,13.91c5.7675-2.67625,9.47757-7.3501,8.17-12.23-3.20375,4.90875-8.28,5.61-13.48,5.61-3.1,0-6.2,2.3-9.98,3.84c1.46.92,1.97,1.22,2.45,1.56c3.7,2.56,4.96,6.56,3.23,10.25-1.61,3.439996-5.5,5.139996-9.72,4.279996-5.15-1.05-8.9-4.069996-11.59-8.369996-2.5-3.99-1.81-7.14,2.01-9.89c1.59-1.15,3.31-2.13,4.97-3.19-1.69065-.9761-5.99404,1.30357-8.64404,1.71357-2.79.43-4.40697-.58607-6.03693-1.58666-3.87142-6.7055,18.06405-12.3946,19.18097-21.83691c0-3.96138,1.72-5.65,4.44-7.42c2.4-1.57,4.83-3.15,7.01-5c4.92445-4.924449,3.51225-11.337751,1.22-13.63c2.28576.612467,3.78612,1.632991,4.61,3.06.13-1.97.95-11.04,8.59-17.87c5.62-5.03,11.86-6.11,14.29-6.4-3.5177,1.195334-12.56003,5.710328-11.36,14.3c19.306887-12.928857,43.125687-15.501199,65.869997-15.09.65.02,8.14.12,8.32,1.53Zm-80.859997,47.32c-3.44-1.88-7.26-1.95-11.13.39-.69.41-1.74.23-3.04.36-2.74,3.08-5.92,6.64-9.1,10.2.18.24,9.59-4.39,15.17-4.04c3.50523-.77634,5.93038-4.25057,8.1-6.91Zm63.849997-31.38c-11.51119-6.645989-35.19462-4.135378-43.05,3.72c6.83194,0,14.99117.89095,19.81,6.96s3.06,12.32-3.14,15.87c3.33-7.34-.125-13.775-7.69-14.36s-13.859997,2.54-20.009997,6.43c2.46788-.661266,5.10833-1.447539,8.26808-1.23154-2.48866,1.282943-6.37337,4.63969-7.88186,7.78666c3.06076-1.36756,7.74301-1.1132,10.703777-2.99512-.32197,1.20159-2.809997,3.62-4.659997,4.83c2.56056,0,4.671637.40959,8.849997-.71c7.18287,10.67828,20.0665,6.66087,20.75,4.11c6.94,6.02,10.2,13.31,10.99,22.37-4.50836-3.11558-8.85884-6.02917-14.46-7.53c6.74,12.75,7.68,21.8,3.43,27.269996-1.22119-4.557556-4.21481-11.596696-8.97361-14.344196c3.15378,10.34639-1.3969,20.060906-8.27923,27.553606-15.904357,17.22486-8.432477,25.57032-2.38716,29.06059c12.65255-6.85512,22.79616-14.26632,29.37212-24.4509c4.77889-7.40135,7.67362-16.26738,8.27788-27.449096.2085-20.96284.08-41.9266.08-62.89ZM66.014273,109.27819c1.08-1.74.21-3.61-2-3.39-7.69487,1.86583-9.87-1.25-14.7-2.62-4.01-1.14-5.02-.28-4.96,3.83.13155,8.62978,2.0433,12.3833,5.15,15.49c0-2.1303.0632-3.40323,1.47-4.81c0,3.00594,3.06476,6.45607,3.69539,8.32107.89324-8.81328,6.43317-8.9551,11.34461-16.82107Z" fill="#fff"/>
            <path id="eVKIq1Tv0S38" d="M35.418467,210.858822c-.646649-.646648-2.06583-4.449367-2.92571-6.88902-.939868-2.649623-1.78599-5.929956-.989961-7.30871c3.519817.943136,4.562321,14.844378,3.915671,14.19773Zm116.494956-86.369965c.129982,1.009856-3.629491,1.709757-8.368827,5.219257c0,0,.029996,55.652085-.099986,73.449554-.094087,13.198153-3.526856,24.659512-10.241265,34.288443-4.700071,6.740221-11.008137,12.58255-18.904651,17.494192-3.542194,2.203836-10.84948,6.596842-18.110663,10.937324-9.935166,5.938896-19.784027,11.779445-19.784027,11.779445-2.35015,1.434436-8.42151-1.247433-13.858805-6.4005-4.833626-4.580958-9.166163-11.114859-9.93786-18.445966-.768733-7.326688,1.377796-13.228369,5.158924-18.204351c3.886175-5.114223,9.499035-9.250594,15.448188-12.951218c11.737495-7.301212,23.506806-20.936112,12.328273-34.715063-1.126093,10.254792-10.358549,14.048002-17.167595,13.908022c5.766692-2.675869,9.476242-7.349054,8.168856-12.228261-3.203302,4.908052-8.27884,5.609203-13.478112,5.609203-3.099566,0-6.199131,2.299673-9.978602,3.839454c1.459796.919869,1.969724,1.219826,2.449657,1.559778c3.699482,2.559636,4.959305,6.559067,3.229548,10.248542-1.609775,3.439511-7.49895,5.139269-11.718358,4.279391-5.149279-1.04985-8.898753-4.069421-11.588377-8.368809-2.499649-3.989433-1.809746-7.138985,2.009719-9.888594c1.589777-1.149836,5.309256-2.129697,6.969023-3.189546-1.690413-.975961-5.9932,1.303384-8.642829,1.713326-2.789609.429939-4.406352-.585986-6.036084-1.586434-3.870877-6.704547,18.061519-12.392838,19.178283-21.833805c0-3.960816,1.719759-5.649196,4.439378-7.418945c2.399664-1.569776,4.829323-3.149552,7.009018-4.999289c4.92376-4.923749,3.511758-11.336137,1.219829-13.628061c2.285439.612383,3.785589,1.632757,4.609354,3.059565.129982-1.96972.949867-11.03843,8.588796-17.867459c5.619213-5.029285,11.858339-6.109131,14.287998-6.39909-3.517207,1.19516-12.55827,5.709518-11.358408,14.297966c19.304185-12.927021,43.119648-15.498995,65.860771-15.087854.649909.019997,8.13886.119983,8.318834,1.529783Zm-80.848671,47.31327c-3.439518-1.879732-7.258983-1.949722-11.12844.389945-.689904.409942-1.739757.229967-3.039574.359949-2.739617,3.079562-3.919451,6.639055-7.099006,10.198549.179975.239966,7.588937-4.389375,13.168155-4.039425c3.504742-.77623,5.929547-4.249966,8.098865-6.909018Zm63.841055-31.375537c-11.509578-6.645045-35.189689-4.134792-43.043969,3.719471c6.830983,0,14.98907.890823,19.807225,6.95901s3.059571,12.318248-3.13956,15.867743c3.329533-7.338956-.124983-13.773041-7.688923-14.357958s-13.858058,2.539639-20.007197,6.429086c2.467535-.661176,5.107615-1.447334,8.266922-1.231365-2.488311,1.282758-6.372477,4.63903-7.880756,7.785553c3.060332-1.367366,7.741926-1.113042,10.702281-2.994694-.321925,1.201419-2.809607,3.619485-4.659347,4.829313c2.560201,0,4.670985.409532,8.84876-.709899c7.181863,10.676761,20.063688,6.659923,20.747092,4.109415c6.939028,6.019144,10.198571,13.308108,10.988461,22.366819-4.507729-3.115137-8.857599-6.028312-14.457974-7.528929c6.739055,12.748187,7.678924,21.7969,3.429519,27.266122-1.221019-4.556912-4.214219-11.595051-8.972353-14.34216c3.153338,10.344918-1.396704,20.058057-8.27807,27.549691-15.902131,17.222411-8.431298,25.566684-2.386825,29.056458c12.719087-6.89115,22.902411-14.34432,29.4742-24.61262c4.714899-7.366952,7.570839-16.182938,8.170525-27.28.208471-20.959858.079989-41.920637.079989-62.881056ZM57.576642,220.285232c1.079849-1.739753.209971-3.609487-1.999719-3.389518-7.693792,1.865564-9.868618-1.249822-14.697941-2.619628-4.009438-1.139837-5.019297-.27996-4.959305,3.829456.131532,8.628553,2.043014,12.381539,5.149278,15.487797c0-2.129997.063192-3.402746,1.469795-4.809316c0,3.005513,3.06433,6.455152,3.694872,8.319887.893115-8.812027,6.432268-8.953827,11.34302-16.818678Z" transform="translate(8.433965-111.020706)" opacity="0" fill="#fff"/>
            <path id="eVKIq1Tv0S39" d="M35.420335,210.886522c-.64685-.646852-2.066472-4.450769-2.926619-6.89119-.94016-2.650458-1.786544-5.931825-.990268-7.311013c3.520909.943433,4.563737,14.849055,3.916887,14.202203Zm116.531132-86.397171c.130022,1.010175-3.630618,1.710296-8.371426,5.220902c0,0,.030005,55.669614-.100017,73.472688-.083314,11.679357-2.780174,21.99908-8.051242,30.892936-4.858177,8.197205-11.903057,15.183162-21.103725,20.90601-8.391429,5.220902-37.906458,22.723924-37.906458,22.723924-2.895206,1.767126-11.436101-2.710888-17.485065-10.360239-3.229125-4.083465-5.748111-9.070686-6.31899-14.494053-.846176-8.064833,1.838779-14.403597,6.347913-19.681829c3.800148-4.448318,8.895931-8.143376,14.265599-11.483553c6.523765-4.058071,13.057355-10.072149,15.657628-16.980122c2.079566-5.524655,1.643386-11.621037-3.325527-17.745875-1.126442,10.258021-10.361765,14.052427-17.172926,13.912402c5.768483-2.676712,9.479185-7.351369,8.171392-12.232112-3.204296,4.909598-8.281411,5.610969-13.482297,5.610969-3.100528,0-6.201056,2.300397-9.9817,3.840663c1.460249.920159,1.970336,1.220211,2.450417,1.56027c3.700631,2.560442,4.960845,6.561133,3.230551,10.25177-1.610275,3.440594-9.501619,5.140888-13.722338,4.280739-5.150878-1.050181-8.901516-4.070703-11.591975-8.371445-2.500426-3.990689-.695119-7.941372,2.010343-9.891709s5.731741-2.942088,6.971187-3.190551c-1.972236-.194883-3.287493.198755-5.937944.608826-2.790476.430074-5.114949.518869-6.745186-.481894-3.87208-6.706658,18.067127-12.396741,19.184238-21.840681c0-3.962065,1.720293-5.650976,4.440756-7.421282c2.400409-1.570271,4.830823-3.150544,7.011195-5.000864c4.925289-4.9253,3.512848-11.339708,1.220208-13.632354c2.286149.612576,3.786765,1.633272,4.610785,3.060529.130022-1.970341.950162-11.041907,8.591464-17.873087c5.620957-5.030869,11.862021-6.111056,14.292435-6.401106-3.5183,1.195537-12.56217,5.711317-11.361936,14.30247c19.31018-12.931093,43.133038-15.503877,65.881224-15.092606.65011.020003,8.141387.120021,8.321417,1.530264ZM71.07769,171.817525c-3.440587-1.880325-7.261238-1.950337-11.131897.390067-.690117.410071-1.740296.23004-3.040518.360062-2.740467,3.080532-3.920668,6.641147-7.10121,10.201762.180031.240042,7.591294-4.390758,13.172244-4.040698c3.505831-.776474,5.931389-4.251304,8.101381-6.911193Zm63.860879-31.38542c-11.513152-6.647138-35.200617-4.136095-43.057335,3.720642c6.833104,0,14.993724.891104,19.813375,6.961202s3.060521,12.322128-3.140535,15.872741c3.330567-7.341267-.125021-13.777379-7.69131-14.36248s-13.862362,2.540439-20.01341,6.431111c2.468301-.661385,5.109201-1.44779,8.269489-1.231753-2.489084,1.283162-6.374456,4.640491-7.883203,7.788005c3.061282-1.367796,7.744329-1.113392,10.705604-2.995637-.322025,1.201797-2.810479,3.620625-4.660794,4.830834c2.560996,0,4.672436.409661,8.851508-.710123c7.184094,10.680125,20.069919,6.662021,20.753535,4.11071c6.941183,6.02104,10.201738,13.312299,10.991873,22.373864-4.509128-3.116118-8.86035-6.030211-14.462464-7.531301c6.741149,12.752203,7.681309,21.803766,3.430585,27.274711-1.221399-4.558347-4.215529-11.598703-8.975139-14.346678c3.154317,10.348177-1.397138,20.064375-8.280641,27.558369-15.90707,17.227836-8.433917,25.574737-2.387567,29.06561c12.783168-6.925896,23.005749-14.41932,29.576309-24.766187c4.660954-7.339738,7.484185-16.115343,8.080106-27.142778.208536-20.96646.080014-41.933842.080014-62.900862ZM57.585391,220.3159c1.080184-1.7403.210036-3.610623-2.000341-3.390585-7.696181,1.866152-9.871682.750129-14.702505-.620107-4.010683-1.140197-5.020855-2.280394-4.960845,1.830316.131573,8.63127,2.043648,12.385439,5.150878,15.492675c0-2.130668.063211-3.403818,1.47025-4.81083c0,3.006459,3.065283,6.457185,3.69602,8.322507.893392-8.814803,6.434266-8.956647,11.346543-16.823976Z" transform="translate(8.433967-111.020691)" opacity="0" fill="#fff"/>
            <path id="eVKIq1Tv0S310" d="M151.935481,124.489146c.130005,1.010042-3.630145,1.710071-8.370335,5.220218c0,0,.008,15.564032-.003,32.863956-.010101,15.416355-.035802,32.211168-.097104,40.599119-.083903,11.767563-2.821413,22.154708-8.172147,31.093652-4.853204,8.107759-11.856254,15.024129-20.979019,20.698517-3.603065,2.241723-11.101055,6.748102-18.48431,11.160717-9.809867,5.862885-19.417207,11.560234-19.417207,11.560234-2.662272,1.624948-10.098948-2.031445-15.981117-8.578579-3.928204-4.372273-7.163131-10.03376-7.819835-16.272462-.826797-7.88012,1.718085-14.11212,6.041892-19.317008c3.829661-4.610033,9.05487-8.414302,14.568932-11.844296c5.470648-3.402983,10.948206-8.181613,14.106849-13.709424c3.619573-6.334465,4.194067-13.652701-1.776355-21.01203-1.126295,10.25668-10.360415,14.050589-17.170687,13.910583c5.76773-2.676362,9.477949-7.350408,8.170327-12.230512-3.203879,4.908955-7.308021,6.582545-12.508229,6.582545-3.100124,0-8.982631,4.087901-8.502612,4.427916c3.700148,2.560107,4.960198,6.560274,3.230129,10.250429-1.610064,3.440144-4.612078,5.186847-10.917898,5.186847s-12.160586-3.322439-13.727035-6.649308-3.249889-8.143271-2.328151-11.583255s8.302916-3.719896,10.642431-4.125003c-3.206438-1.546455-10.493898-.288962-12.665852-2.310727-1.653566-6.171208,18.049147-9.957517,19.166112-19.400222c0-3.961546,1.720069-5.650236,4.440177-7.42031c2.400096-1.570066,4.830194-3.150132,7.010281-5.00021c4.924647-4.924656,3.51239-11.338224,1.220049-13.63057c2.285851.612495,3.786271,1.633058,4.610184,3.060128.130005-1.970083.950038-11.040462,8.590344-17.870748c5.620225-5.030211,11.860474-6.110256,14.290572-6.400268-3.517841,1.19538-12.560533,5.710569-11.360455,14.300598c19.307663-12.929401,43.127416-15.501849,65.872636-15.090631.650026.020001,8.140326.120005,8.320333,1.530064ZM71.072245,171.811127c-4.823564-2.546037-8.56432-1.120947-11.130445.390016-.475481.390186-2.318676.260261-3.040122.360015-2.536012,2.754405-3.350531,5.821954-7.100284,10.200427.180007.24001,7.249744-4.321431,13.170527-4.040169c3.50809-.786433,5.924649-4.236827,8.100324-6.910289ZM134.9248,140.429813c-11.51165-6.646268-35.196028-4.135553-43.051722,3.720156c6.832213,0,14.991769.890987,19.810792,6.960291s3.060123,12.320516-3.140125,15.870664c3.330133-7.340307-.125005-13.775576-7.690308-14.360601s-13.860555,2.540107-20.010801,6.430269c2.467979-.661297,5.108535-1.4476,8.268411-1.231591-2.48876,1.282994-6.373625,4.639884-7.882175,7.786986c3.060882-1.367617,7.743319-1.113247,10.704208-2.995245-.321983,1.20164-2.810112,3.620151-4.660187,4.830202c2.560663,0,4.671827.409607,8.850355-.71003c7.183157,10.678727,20.067303,6.661149,20.75083,4.110172c6.940278,6.020252,10.200408,13.310557,10.99044,22.370937-4.508541-3.115711-8.859195-6.029423-14.460579-7.530316c6.74027,12.750534,7.680307,21.800913,3.430137,27.271142-1.221238-4.557751-4.214978-11.597186-8.973969-14.344801c3.153906,10.346824-1.396956,20.06175-8.279561,27.554764-5.745626,6.22268-8.440552,11.286562-9.254085,15.381364-1.438485,7.240383,3.005206,11.450929,6.866829,13.680442c7.2415-3.923434,13.661177-8.029006,19.060573-12.732393c4.74628-4.134463,8.704178-8.730845,11.73889-14.071509c3.928927-6.914359,6.310452-15.076221,6.852044-25.09827.124545-12.522084.128845-25.044499.112115-37.566973-.011301-8.441883-.032102-16.883807-.032102-25.32566ZM57.581705,220.303157c1.080044-1.740073.210009-3.610152-2.00008-3.390142-5.57263,1.351236-9.80628,1.653379-14.700588.067502s-5.020201-2.967624-4.960198,1.142548c.131555,8.630142,2.043381,12.383819,5.150206,15.490649c0-2.130389.063202-3.403373,1.470059-4.810202c0,3.006066,3.064882,6.456341,3.695537,8.321419.893276-8.813649,6.433428-8.955475,11.345064-16.821774Z" transform="translate(8.131685-111.02066)" opacity="0" fill="#fff"/>
            <path id="eVKIq1Tv0S311" d="M265.885663,-523.587372c2.576716-5.401719,9.466663-7.512346,12.433668-8.028766-18.838823,0-26.349299,8.657062-26.349299,20.43314-.593147-1.536755-1.915919-2.776951-4.078822-3.735175c1.909671,2.6183,2.313417,9.170674-3.31148,13.273235-2.439068,1.490229-5.083773,2.676542-7.696847,3.856227-2.960048,1.32776-4.919194,2.729946-5.531496,6.642476-2.56263,9.153239-22.608071,9.845745-21.928791,16.196171c1.832605,2.332468,9.224757,2.217944,12.152505,4.240868-2.373189.038488-9.706879-.826014-11.148904,2.428939s-.523259,8.271272.509603,11.799091s6.301528,7.714084,12.529348,8.688712s9.462454-.285761,11.58432-3.434488c2.279027-3.377095,1.65371-7.523333-1.604976-10.623664-.42152-.409983,6.019405-3.536806,9.081181-3.057644c5.135887.803761,9.447898-.215863,13.370879-4.568897.537175,5.021847-3.849763,9.065196-9.95982,10.816964c6.703574,1.190732,16.410282-1.127981,19.10935-11.080562c3.89528,13.520318-3.841496,18.78374-11.375624,24.379109-5.962702,4.428321-11.798483,9.064557-11.640722,18.166332-7.021256,6.376908-10.912946,13.799102-9.914914,23.31115.368706,3.502737,1.550482,6.82343,3.21144,9.835998c2.453764,4.450503,5.953345,8.228525,9.422326,10.92752c4.624155,3.597767,9.193936,5.278218,11.159681,4.078409c0,0,29.501297-17.49334,37.888712-22.711726c19.17408-11.926311,28.979508-29.341945,29.139458-51.775007.12996-17.794496.101529-73.436267.101529-73.436267c4.73854-3.508915,8.496521-4.209408,8.366561-5.219096-.179944-1.409564-7.667956-1.508823-8.317746-1.528817-32.163117-.58148-48.346889,5.767576-57.20112,10.125768Zm31.912045,3.5243c6.26176.117814,12.286933,1.321802,16.602302,3.813281c0,20.956918.128401,41.914816-.080075,62.871175-1.431049,26.48132-15.791443,40.047534-37.638789,51.884343-6.043457-3.489191-13.513475-11.832031,2.385985-29.051565c6.879289-7.489374,11.429027-17.20062,8.278698-27.542261.0002-.001-.00021-.003,0-.003999c4.275442,3.449173,6.203258,23.597341,4.324837,30.607713c5.043096-4.745632,17.221112-28.565525,1.077798-39.210523c5.300116,2.348084,11.480091,3.563588,13.117047,9.672789.620119-9.070405-1.472226-16.774962-7.39616-23.793421-1.069361,2.413763-14.415327,4.389572-19.85911-7.267283-4.299894.459938-6.321801-.270026-8.850792-.665814c2.01422-.909128,4.846187-2.912519,5.349911-4.049527-3.215149,1.401096-7.801265.424698-11.035658,1.302327c1.976311-2.875011,6.333138-5.588192,8.989419-6.470649-3.087408-.701693-5.817147-.334146-8.356804-.06248c6.675432-2.891446,13.375977-5.005852,20.757282-3.258762s9.79876,8.637418,5.375293,15.372205c6.672274-2.547912,9.374301-8.449617,5.552979-15.188662s-11.740731-8.880384-18.488442-9.936387c8.8594-4.355503,24.10801,2.072699,30.572607-1.659637-6.160551,0-13.474337-4.045778-22.379822-6.333981c3.752344-.733143,7.768916-1.102969,11.701474-1.028982Zm-50.347423,30.655219c1.548713.229899,3.373081.649159,5.632684,2.471256-2.649123,2.215665-5.731183,5.131033-9.262205,5.244018-5.496156-1.372186-13.482424,1.690207-13.693399,1.464397c2.700837-1.882078,6.153773-6.56365,8.905455-8.663001c1.021245.078976,2.354474.507983,3.052099.223921.853767-.284752,3.53798-1.011857,5.365366-.740591Zm-35.421072,40.19006c-.444753.070578-.568045.80708-.820057,2.58709-1.203959,8.543697.104327,12.54605,2.69253,16.094632.329268-2.104029.587739-3.350064,2.194633-4.522041-.464617,2.968871,2.029915,6.848831,2.364511,8.788302c2.244479-8.566541,7.737626-7.848863,13.804336-14.858685c1.335628-1.55161.766024-3.534727-1.450723-3.659028-5.712559.473204-9.942026.118323-14.530682-2.204398-2.294332-1.161371-3.418436-2.088304-4.041714-2.216105-.077876-.015995-.149294-.019894-.212834-.009997v.00023Z" transform="translate(-171.133234 545.642876)" opacity="0" fill="#fff"/>
            <path id="eVKIq1Tv0S312" d="M13.5824,-8812.147576c-12.948114,0-26.015883,1.752673-38.198905,5.821962-4.473347,1.494172-8.307401,3.713709-10.802473,6.486542-2.375613,2.420819-4.024176,5.550045-5.001459,9.197315-.175401-1.639815-1.133237-3.181943-2.976588-4.66904c1.168309,3.026882-.139164,9.46803-6.641819,11.977909-2.744867.809117-5.609842,1.271017-8.442516,1.734733-3.206591.517025-5.464502,1.365356-7.070452,4.99032-4.850012,8.187648-24.414529,3.663138-25.403155,9.980377c1.167825,2.730485,8.346117,4.535202,10.653227,7.250104-2.304979-.577717-9.173065-3.31406-11.411006-.540004s-2.649294,7.863204-2.564606,11.542438s4.095065,9.092789,9.865173,11.649072s9.224751,2.175564,12.09261-.31961c3.079026-2.675287,3.548707-6.846978,1.200754-10.68956-.301396-.505683,6.73758-1.860516,9.574322-.603764c4.758427,2.108099,9.192603,2.239389,14.114302-.953684-.781799,4.995578-6.071933,7.768975-12.434623,7.879783c6.174192,2.888548,16.1619,3.161425,21.350992-5.76387.263538,14.084222-5.249526,18.797104-13.13284,24.27086-6.10791,4.241009-11.433814,11.986031-13.639729,20.828827c2.541072-2.894809,5.770282-4.695197,9.337131-5.987289-8.20021,6.412406-14.177581,14.39788-12.971029,25.897216c1.641426,15.593391,19.377441,27.58328,23.821259,24.870956c0,0,29.535831-17.513749,37.933065-22.738245c19.196537-11.940234,29.013409-29.376295,29.173545-51.835563.130119-17.815301.101684-73.522006.101684-73.522006c4.744091-3.513013,8.506463-4.214332,8.376366-5.225199-.18017-1.411204-7.676928-1.510567-8.327479-1.53058-2.845498-.051055-5.707589-.056056-8.575751,0Zm-16.74445,13.665805c6.269095.117941,12.302821,1.323485,16.623243,3.817869c0,20.981412.12853,41.96379-.080156,62.944602-1.436999,26.59113-15.816605,40.098046-37.68285,51.945009-6.050542-3.493198-13.529286-11.845858,2.388794-29.085448c2.659266-2.895102,4.963084-6.124504,6.617335-9.59109c1.540009,5.989873,2.213568,12.547234.238214,15.968647c6.106657-3.282507,15.397254-20.093224,2.544132-34.570585c5.536001,3.196201,13.180005,7.21363,14.781753,13.191421c0-15.937408-1.680219-17.042198-5.590351-25.364446-1.659598,2.057147-15.077909.509615-17.321798-12.17378-4.277424-.66942-6.043552-1.899239-8.386661-2.937303c2.18344-.357235,5.441247-1.560816,6.222987-2.529855-3.472279.521829-7.654326-1.61075-11.00958-1.600132c2.656187-2.268183,7.572549-3.76305,10.36998-3.928143-2.803863-1.478595-5.538915-1.830477-8.065309-2.225842c7.204763-1.066433,14.232453-1.37492,20.917892,2.227278s7.237779,10.891888,1.214906,16.258593c7.112697-.73504,11.254963-5.742151,9.305762-13.249359s-9.052825-11.630099-15.304611-14.399776c9.696143-1.916352,18.04923,14.373758,25.267984,12.439509-5.957605-1.596339-6.959094-15.818969-15.273773-18.046869c3.396408-1.960912,7.282821-.292253,8.918569,1.34349-2.029188-4.157866-7.295468-8.087092-13.393985-10.14752c2.219177-.223352,4.471528-.328149,6.697523-.28627Zm-55.545982,26.04521c.967139.340993,2.145342,1.099948,2.893602,1.006019.674577-.040605,2.410723-.054335,3.951806.251421l.000038-.000037c.513707.101897,1.00448.239309,1.428675.423331c1.438124.623638,3.093898,1.502504,4.806914,3.850081-3.13597,1.456217-6.872084,3.47533-10.316057,2.669648-4.959539-2.751158-13.47587-1.859008-13.621376-2.132038c3.099544-1.120233,7.651396-4.751268,10.856398-6.068425Zm-31.86515,38.294838c-.079466-.004247-.150963.00082-.212405.020057l.000227.001926c-.429834.135969-.44242.883502-.427346,2.683312.077964,8.637846,1.96819,12.406,5.058183,15.534603.013233-2.132052.083953-3.404167,1.500687-4.80334-.018696,3.008451,5.197791,6.944077,5.817363,8.814545.94883-8.815123,4.324137-9.386089,9.288655-17.228094c1.091739-1.734732.232982-3.613519-1.980217-3.40706-5.585503,1.317641-9.825755,1.594977-14.714129-.022591-2.444227-.808787-3.694939-1.55949-4.331018-1.593358Zm-.212405.020057v-.000044l-.000076.000044c.000023-.000007.000053.000007.000076,0Z" transform="translate(129.783868 8824.085625)" opacity="0" fill="#fff" stroke-width="13.6677"/>
            <path id="eVKIq1Tv0S313" d="M59268.083212,8655.558511c-12.948098,0-26.015856,1.75266-38.198858,5.821967-6.707827,2.240517-12.051447,6.082359-13.452001,11.034417-.328521-.509127-2.504692-2.1902-3.088981-4.370778.071087,5.034535,1.600058,13.681858-5.330639,14.4232-2.860744.071125-5.747606-.224207-8.603778-.509444-3.231134-.330516-5.631705-.095499-8.121149,2.990302-6.803868,6.653377-24.530691-2.780627-27.120652,3.065476.421327,2.939714,6.887936,6.540848,8.413749,9.760374-2.076913-1.154608-8.002768-5.575319-10.882423-3.475003s-4.59414,6.909591-5.464597,10.485383c-.596243,2.449451.407997,6.153078,2.658568,9.522411.590586,2.510463,1.89103,7.668331,2.374298,6.572604.204057-.462634.411388-1.671492.614127-3.085452.288996.265765.558559.54705.866988.795882c4.911889,3.962592,8.347371,4.488949,11.763303,2.821042c3.666528-1.787217,5.199897-5.695153,3.926481-10.014495-.16023-.566464,6.989557-.053339,9.404369,1.894787c4.050654,3.267828,8.299728,4.54227,13.880148,2.731822.691916,9.007058-7.664754,6.104002-14.050318,4.393005c5.478837,3.163203,15.337354,11.698193,22.115241-.041443c5.337303,9.244479-5.273386,16.6131-15.169645,22.214827-16.609821,9.401919-14.125086,28.155848-12.639553,33.699954c2.056124-7.673581,10.92869-16.469086,17.053293-17.018538-8.445582,6.475012-14.680525,14.546089-13.450586,26.268423c1.641423,15.593399,19.377449,27.5833,23.821259,24.87097c0,0,29.535793-17.513761,37.933016-22.73826c19.196507-11.940243,29.013387-29.37633,29.17352-51.83561.130122-17.815312.10168-73.52204.10168-73.52204c4.744083-3.513017,8.506458-4.214301,8.376355-5.225167-.180167-1.411209-7.67696-1.510602-8.327511-1.530616-2.845496-.051053-5.707539-.056052-8.575704,0Zm-16.744438,13.66581c6.269102.117947,12.302817,1.323483,16.623229,3.817875c0,20.981431.128533,41.96386-.080154,62.944681-1.436999,26.591151-15.816573,40.098028-37.682788,51.945001-6.050533-3.493196-13.529269-11.845868,2.388791-29.085474c1.536876-1.673178,2.93061-3.472214,4.175429-5.349196.019704-.009493.033402-.014899.053145-.024412c4.13573,7.163305-.679091,13.114401-5.93626,18.371565c17.786731-4.765933,23.157669-18.582519,17.255858-28.804752c6.508537,1.743954,9.476541,6.195065,9.476521,12.383735c3.084176-13.297106-1.449592-23.571147-13.302388-27.919881-2.135464,1.557509-14.695986-3.410175-13.580708-16.242167-3.958411-1.75368-5.346061-3.398705-7.34067-5.007848c2.201513.22006,5.659819-.099316,6.665725-.833004-3.489014-.394648-6.976595-3.536965-10.220265-4.395118c3.152724-1.503414,8.288432-1.674882,11.033256-1.110336-2.325629-2.153907-4.876413-3.201663-7.214403-4.237425c7.23527.834632,14.103366,2.355503,19.628684,7.565276s4.172135,12.394042-3.034518,16.019066c7.060566,1.130893,12.357609-2.633514,12.417845-10.3894s-5.734276-13.576879-11.056196-17.870278c9.861752.658494,13.714027,18.555491,21.187415,18.55551-5.341431-3.083882-2.627742-17.0811-10.082452-21.385078c3.788183-1.015051,7.110321,1.602633,8.266965,3.605997-1.535617-7.889825-12.665128-17.670955-23.51101-17.670957c4.937929-3.393493,11.967903-1.774754,14.799139-.737267-2.594281-1.497794-5.10959-2.777182-7.546373-3.869719c2.192756-.217489,4.417596-.317759,6.616183-.276394Zm.93019,4.146113c.000155.000087.00031.000141.000465.000227l-.000039-.000113c-.000116-.000042-.00031-.000071-.000426-.000114Zm-55.450202,17.378177c.845928.579697,1.787568,1.617765,2.534645,1.720704.662099.135353,2.34266.571443,3.752107,1.265646v-.000039c.469842.231375.908296.491134,1.270413.778677c1.22771.974615,2.599648,2.252099,3.646688,4.963034-3.405994.594964-7.537442,1.578279-10.655524-.091314-4.078496-3.941047-12.535528-5.283475-12.605414-5.584852c3.283854-.279851,8.620383-2.609081,12.057085-3.051856Zm-34.224715,34.610613c-.404045-.035243-.121403,1.86063.284268,3.852039-1.107566-.274271-1.848812-.495028-2.253166-.456937-.079243.00744-.149264.022959-.207215.051014l.000523.00186c-.405245.197508-.308119.938752-.029333,2.716903c1.343475,8.53309,3.765688,11.983468,7.280956,14.625254-1.125295-1.949056-.342626-4.32312.780305-4.971442.422567,2.978696,5.000568,6.652447,5.723271,9.042088-3.064878-11.43824,4.224835-11.094296,7.986029-19.579396.825623-1.876051-.299304-3.608593-2.458308-3.07991-5.027829,2.001213-9.008792,2.910399-13.69969,2.267075-1.286049-1.883181-2.665213-3.905765-3.260294-4.394167-.056807-.046636-.10571-.070758-.147346-.074381Zm-2.176113,3.446116l-.000039-.000116v.000116h.000039Z" transform="translate(-59124.82486-8643.622383)" opacity="0" fill="#fff" stroke-width="51.6576"/>
            <path id="eVKIq1Tv0S314" d="M59132.764242,8655.558509c-12.948042.000004-26.015742,1.752661-38.19869,5.821957-1.084934.362381-2.116413.781374-3.119061,1.22546-7.209597,2.067359-13.233221,6.457239-13.233221,11.343032-1.268684,0-7.045801-4.886362-3.232345-11.491448-11.40807,6.586453.776815,15.986076-4.96068,16.599789-2.860737.071125-5.74759-.224224-8.603754-.50946-3.231125-.330516-5.631689-.095482-8.121125,2.990314-6.803849,6.653359-24.530621-2.780589-27.120575,3.065503.421326,2.939709,6.887917,6.540798,8.413725,9.760318-2.076907-1.154606-8.002745-5.575309-10.882391-3.474997s-4.594127,6.909578-5.464581,10.485363c-.603973,2.481203.433163,6.249439,2.746424,9.653175-.156704.99798-.292735,2.316342-.135081,3.360744.290254,1.922819,2.01514,6.885302,2.567769,6.332672.423921-.423921-.219149-3.82324.408983-6.391087.307189.284946.596494.58419.925867.849917c4.911874,3.962584,8.347346,4.488941,11.763269,2.821037c3.666517-1.787214,5.199882-5.695162,3.926469-10.014496-.16023-.566463,6.989499-.05332,9.404303,1.894803c4.050643,3.267822,8.299743,4.542261,13.880147,2.731816c3.824306,14.272471-3.854182,13.288557-10.828568,11.419774c5.478822,3.163198,18.893468,10.989304,18.893468-7.068219c5.337288,9.244462-6.151555,22.386409-16.047786,27.988127-16.609773,9.401902-14.915442,26.943744-9.832584,35.747525c0-10.553021,7.742676-15.941925,16.520648-20.436621-7.789718,6.305742-13.34044,14.14851-12.17297,25.275492c1.641419,15.593371,19.377414,27.583231,23.821211,24.870906c0,0,29.535689-17.51371,37.932887-22.738199c19.196452-11.940222,29.013304-29.376277,29.173437-51.835517.130121-17.81528.101679-73.521909.101679-73.521909c4.744069-3.513011,8.506434-4.214293,8.376331-5.225157-.180166-1.411207-7.676937-1.5106-8.327487-1.530614-2.845469-.051053-5.707542-.05605-8.575679,0h-.000039Zm-16.744331,13.665785c6.269064.117947,12.302762,1.323481,16.623161,3.817869c0,20.981375.128533,41.963786-.080154,62.944569-1.436994,26.591102-15.816528,40.097956-37.68268,51.944907-6.050515-3.49319-13.529229-11.845847,2.388784-29.085422c1.535477-1.671663,2.927909-3.469068,4.17191-5.344206.019647-.011296.036948-.018038.056652-.029392c2.651449,9.895341-1.295635,16.495465-6.552789,21.752619c26.415291-8.602573,23.935387-26.858998,15.198625-35.595762c6.508518,1.743951,13.040654,3.577704,13.040634,9.766363c3.084167-13.297082-1.667322-21.229885-16.86649-25.302481-2.135458,1.557506-14.695944-3.410169-13.580669-16.242138-3.9584-1.753676-5.346046-3.398699-7.340649-5.007839c2.201507.22006,5.659803-.099316,6.665706-.833003-3.489004-.394646-6.976575-3.536958-10.220236-4.395109c3.152715-1.503412,8.288408-1.674879,11.033225-1.110334-2.325622-2.153903-4.8764-3.201657-7.214383-4.237418c7.235249.834631,14.103326,2.355499,19.628628,7.565263s4.172123,12.39402-3.03451,16.019036c7.060546,1.130891,12.357574-2.633508,12.41781-10.38938s-5.734259-13.576816-11.056164-17.870208c9.861724.658494,19.577613,19.651416,27.050979,19.651435-5.341415-3.083877-8.491359-18.177066-15.946048-22.481036c3.788172-1.015049,10.781952,1.60263,11.938592,3.605991-1.432131-7.358089-14.399877-16.35372-24.939043-17.533789c4.454357-1.122064,9.439081-1.701972,14.299109-1.610535Zm-57.193605,18.114279c.845925.579695,1.787562,1.617762,2.534638,1.7207.662096.135353,2.342652.571442,3.752095,1.265643v-.000038c.469841.231374.908294.491114,1.27041.778656c1.227707.974613,2.599601,2.252114,3.646638,4.963044-3.405983.594964-7.537381,1.578276-10.655454-.091313-4.078484-3.94104-12.535493-5.283466-12.605378-5.584842c3.283845-.279851,8.620358-2.609077,12.057051-3.05185Zm-13.041041,35.901323c-.412607-.022398-.876926.078778-1.371353.332433-4.38019,3.078879-8.011037,4.880586-12.651432,5.365248-2.127262-1.311155-3.989282-3.616531-4.540497-3.578498-.505568.034913.414699,1.963138,1.467045,3.719488-1.296856-.003545-2.141503-.065099-2.555369.07564-.075369.025614-.162846.156142-.189777.09763l.000988.001705c-.348437.28605-.082188.98465.601085,2.649783c3.284368,7.989436,5.722635,12.986987,9.754407,14.742233-1.767781-1.767781-3.127683-5.226271.324568-7.219421-.487859,5.101304,5.048835,5.671913,6.490576,11.052602-3.646561-13.609192,2.711085-15.354286,4.403537-24.480018.276285-1.512228-.496016-2.691672-1.733778-2.758825Z" transform="translate(-58989.462706-8643.622383)" opacity="0" fill="#fff" stroke-width="51.6576"/>
            <path id="eVKIq1Tv0S315" d="M59022.938054,8655.558509c-7.955799.000002-15.955074.669224-23.768216,2.123436-14.580099,1.459274-34.541931,7.287086-34.541931,15.329651-1.268685,0-3.204795-5.285356.608661-11.890431-7.928209,4.577348-7.965583,11.831788-7.212483,14.642376-2.860735.071125-5.747646-.224223-8.60381-.509459-3.231124-.330516-5.631649-.095482-8.121085,2.990309-6.803847,6.653349-24.530597-2.780585-27.12055,3.065499.421326,2.939704,6.887915,6.540787,8.413724,9.760302-2.076907-1.154604-8.002744-5.575301-10.88239-3.474992s-4.594126,6.909568-5.46458,10.485347c-.606646,2.492126.441631,6.282812,2.776649,9.698187-.168503,1.013885-.33317,2.436578-.165364,3.548209.290254,1.922816,2.015197,6.885291,2.567826,6.332663.434346-.434364-.252222-3.992765.456995-6.579459.292347.26929.565532.553868.877816.805799c4.911874,3.962578,8.347384,4.488934,11.763306,2.821033c3.666516-1.787212,5.199881-5.695154,3.926469-10.014481-.16023-.566462,6.989497-.053319,9.404301,1.8948c4.050642,3.267817,8.299702,4.542254,13.880105,2.731812c5.103045,16.907425-4.977884,10.61481-12.107267,8.397283c6.216557,3.596104,17.188477,16.917984,20.172204-4.045735c8.940855,15.48601-6.199642,22.302268-16.047783,27.988083-21.575467,12.4566-13.420785,27.146401-8.337928,35.950168c3.544532-13.228358,10.666902-14.955488,20.256737-19.674596.01765-.008679.032433-.014066.050045-.022707-9.356601,6.702393-16.601226,15.070846-15.283775,27.627188c1.641418,15.593346,19.37739,27.583188,23.821187,24.870867c0,0,29.535702-17.513683,37.932899-22.738163c19.196448-11.940203,29.013279-29.376231,29.173412-51.835436.130121-17.815251.10164-73.521793.10164-73.521793c4.744068-3.513005,8.506432-4.214287,8.37633-5.225149-.180167-1.411204-7.676878-1.510597-8.327428-1.530611-2.845487-.051053-5.70754-.05605-8.575677,0h-.000039Zm-16.744348,13.665764c6.269063.117946,12.302779,1.323479,16.623178,3.817862c0,20.981343.128494,41.96372-.080193,62.94447-1.436994,26.59106-15.816505,40.097893-37.682653,51.944825-6.050514-3.493184-13.529265-11.845828,2.388745-29.085376.637994-.694568,1.231465-1.427188,1.82513-2.158666-.546952,6.883121-2.222663,11.147288-6.31934,15.243941c26.415285-8.60256,32.539075-18.255312,15.198661-35.595706c6.508516,1.743948,15.256959,5.546703,15.25694,11.735353c3.084166-13.297061-.047585-24.952474-19.082776-27.271447-2.135458,1.557504-14.695961-3.410163-13.580686-16.242112-3.958399-1.753674-5.346045-3.398694-7.340647-5.007831c2.201506.220059,5.659762-.099316,6.665666-.833002-3.489004-.394646-6.976536-3.536952-10.220196-4.395102c3.152715-1.503409,8.288407-1.674877,11.033222-1.110333-2.325621-2.153899-4.876379-3.201651-7.214361-4.23741c7.235248.834628,14.103284,2.355494,19.628585,7.56525s4.172103,12.394-3.034528,16.019011c7.060544,1.13089,12.357609-2.633504,12.417846-10.389364s-5.734239-13.576795-11.056143-17.870179c16.405578,9.792813,17.498804,18.874667,27.54482,21.566489-5.341414-3.083872-8.615144-16.571348-16.439891-24.396086c5.524254,0,11.232841,2.512799,14.031016,5.31097-2.908379-5.037455-11.34386-12.983828-19.901189-16.948807c3.050337-.453885,6.223338-.665365,9.338794-.60675Zm-59.363558,14.820529c.845926.579694,1.787505,1.617759,2.53458,1.720697.662097.135353,2.342652.571442,3.752095,1.265642l.000039-.000039c.46984.231374.908312.491113,1.270428.778655c1.227707.974612,2.599601,2.252111,3.646638,4.963037-3.405983.594962-7.53738,1.578273-10.655452-.091314-4.078484-3.941034-12.53551-5.283457-12.605395-5.584833c3.283844-.27985,8.620375-2.609072,12.057067-3.051845Zm-10.723031,39.264911c-.383816-.019782-.825058.083505-1.319505.33716-4.119229,2.895452-7.575451,4.661758-11.832047,5.26511-2.453515-1.132788-4.737965-4.063967-5.358968-4.02111-.558829.038575.623328,2.389188,1.801629,4.264845-1.516063.011025-2.43881-.080676-2.890903.073043-.075349.025595-.162787.156007-.189738.09763l.00095.001666c-.348438.28605-.08215.984649.601124,2.649779c3.284367,7.989424,5.722595,12.986967,9.754366,14.742191-1.767781-1.767759-3.127682-5.226244.324567-7.21939-.487858,5.101295.539997,7.438171,3.700636,12.912567-3.64656-13.60917,7.193476-16.718423,7.193476-26.339963c0-1.537257-.634178-2.704183-1.785587-2.763528Z" transform="translate(-58879.669375-8643.622383)" opacity="0" fill="#fff" stroke-width="51.6576"/>
            <path id="eVKIq1Tv0S316" d="M59022.942565,8819.558509c-11.967836,0-24.02873,1.522827-35.407897,4.96281-13.242341-4.621244-22.9026,1.171801-22.9026,9.31285-4.310076-1.154875-2.211652-9.414415,5.283417-11.422708-8.690407,2.328579-16.257957,7.106409-12.181329,14.16732-2.860752.071126-5.453587-.216882-8.309766-.502119-3.231143-.330517-5.63172-.095482-8.12117,2.990318-6.803886,6.65337-24.530755-2.780593-27.120723,3.065509.421328,2.939713,6.887993,6.540807,8.41381,9.760333-2.076919-1.154608-8.002828-5.575319-10.88249-3.475003s-4.594152,6.909589-5.464611,10.48538c-.623176,2.560082.492395,6.492312,2.964679,9.978029-.160173.737544-.592835,2.96058-.353322,4.547151.290257,1.922822,2.015151,6.885313,2.567783,6.332683.49102-.491018-.449499-4.973283.812567-7.531834.178773.15622.336485.329509.522291.479413c4.911901,3.962591,8.347392,4.488948,11.763333,2.821042c3.666537-1.787218,5.199911-5.695172,3.926491-10.014512-.160231-.566464,6.989576-.05332,9.404393,1.894806c4.050666,3.267827,8.29975,4.542268,13.880184,2.73182c5.170092,19.294968-6.562764,9.81344-13.804912,7.107562c7.902582,3.477308,21.869856,26.50264,21.869856-2.756c8.940906,15.486058-.402786,21.988154-12.957761,29.41486-17.380425,10.281129-19.905138,15.564294-14.749461,34.805477c7.230426-12.523425,14.514152-12.433816,24.104041-17.152938.013989-.006879.025633-.011567.039583-.018426-9.605679,6.763793-17.140873,15.209811-15.799215,27.99687c1.641427,15.593395,19.377499,27.583274,23.821321,24.870945c0,0,29.53587-17.513738,37.933114-22.738235c19.196556-11.94024,29.013462-29.376323,29.173596-51.835598.130122-17.815307.10168-73.522023.10168-73.522023c4.744095-3.513017,8.50648-4.2143,8.376377-5.225166-.180168-1.411209-7.67698-1.510602-8.327533-1.530616-2.845504-.051053-5.707554-.056052-8.575726,0Zm-85.009872,57.69085c-.281169-.123709-.556313-.228004-.821208-.298993.261717.081413.545212.19588.821208.298993Zm68.265391-44.025043c6.269117.117946,12.302849,1.323483,16.623271,3.817874c0,20.981408.128534,41.963852-.080154,62.944667-1.437002,26.591144-15.816614,40.098019-37.682886,51.944989-6.050548-3.493196-13.529303-11.845866,2.388797-29.085468c1.959584-2.133369,3.719121-4.451962,5.177184-6.908775c2.510646,8.644281-9.671419,16.239354-9.671419,19.994091c5.440179-9.422648,48.223911-8.228225,15.198708-38.773319c6.508553,1.743953,15.257085,5.54674,15.257065,11.735409c3.084184-13.297102,1.491834-27.271532-19.082942-27.271532-2.135469,1.557509-14.696024-3.410174-13.580744-16.242163-3.95842-1.753679-5.346075-3.398704-7.340688-5.007847c2.201519.22006,5.659833-.099316,6.665742-.833004-3.489023-.394647-6.976613-3.536964-10.220292-4.395116c3.152733-1.503414,8.288454-1.674882,11.033285-1.110336-2.325635-2.153907-4.876426-3.201662-7.214422-4.237424c7.235289.834631,14.103403,2.355502,19.628735,7.565274s4.172146,12.394039-3.034526,16.019061c7.060585,1.130893,12.357641-2.633512,12.417878-10.389396.014667-1.890602-.323174-3.473686-.912638-4.854669c6.645437,6.740427,9.619804,9.879585,17.401408,11.728472-5.341444-3.083881-6.933892-24.815978-15.06998-26.368042c5.524285,0,12.187935,3.82594,14.986125,6.62412-2.491-4.314517-9.93951-11.754147-17.823763-16.748755c1.644857-.114258,3.297173-.17895,4.936256-.148111Zm-59.363894,11.643093c.84593.579697,1.787573,1.617765,2.534652,1.720704.6621.135353,2.342665.571443,3.752116,1.265645v-.000039c.469843.231375.908298.491115,1.270416.778657c1.227714.974616,2.599655,2.252118,3.646697,4.963053-3.406002.594964-7.537422,1.578278-10.655512-.091314-4.078506-3.941046-12.5356-5.283474-12.605485-5.584851c3.283862-.279851,8.620405-2.60908,12.057116-3.051855Zm-10.723053,39.265034c-.383818-.019781-.825102.083506-1.319532.337162-3.705481,2.604605-6.876348,4.291945-10.573924,5.04466-2.887354-.447812-5.890647-4.470795-6.617208-4.420653-.621878.042935.91165,2.949382,2.197217,4.877183-1.745567.032569-2.797453-.085579-3.286439.080716-.075368.025594-.162807.156006-.189739.09763l.000911.001666c-.348459.286051-.082169.984651.601108,2.649788c3.284386,7.989448,4.371224,14.225489,8.403018,15.980718-1.767791-1.767765.012594-5.576849,1.675973-8.457895-.487862,5.101312-.950323,7.953974,2.210334,13.428387-3.646581-13.609212,8.683897-17.234215,8.683877-26.855785c0-1.537262-.634162-2.704231-1.785596-2.763577Z" transform="translate(-58879.661563-8807.622383)" opacity="0" fill="#fff" stroke-width="51.6576"/>
            <path id="eVKIq1Tv0S317" d="M59022.941921,8819.557543c-11.031988.000004-22.145854,1.287901-32.730341,4.181368-15.473926-6.373262-28.39163-.399619-25.579815,10.094246-4.310054-1.154872-4.149126-10.140941,3.345903-12.149227-8.690362,2.328571-14.320386,7.832944-10.24378,14.893831-2.860737.071125-5.453597-.216883-8.309762-.502119-3.231126-.330516-5.631652-.095482-8.121089,2.990308-6.80385,6.653356-24.530628-2.780584-27.120582,3.065499.421326,2.939711,6.887918,6.540774,8.413727,9.760289-2.076907-1.154604-8.002747-5.575281-10.882394-3.474972s-4.594128,6.909547-5.464583,10.485326c-.623192,2.560074.492393,6.492291,2.964664,9.977997-.160172.737541-.592851,2.960589-.353359,4.547155.290255,1.922816,2.01518,6.885271,2.567809,6.332642.491017-.491016-.449536-4.973324.812562-7.531847.178772.156219.336464.329547.522288.47945c4.911876,3.962578,8.347349,4.488953,11.763273,2.821052c3.666518-1.787212,5.199883-5.695153,3.92647-10.014479-.16023-.566462,6.989501-.05332,9.404306,1.894799c4.050644,3.267817,8.299745,4.542254,13.880151,2.731812c5.178609,19.326795-7.237228,10.895143-14.521149,8.285799c7.938927,3.353569,22.586051,25.364941,22.586051-3.934252c8.940859,15.486008,9.302297,24.647297-8.356165,32.805358-23.284572,10.757291-23.37389,18.050944-18.674518,35.58921-3.921491-14.6352,12.532862-18.408118,23.42754-21.327323.008002-.002151.013175-.00312.021177-.00527-9.596776,6.761601-17.121546,15.204801-15.780747,27.983603c1.641419,15.593344,19.377399,27.583203,23.821198,24.870882c0,0,29.535716-17.513699,37.932917-22.738179c19.196457-11.940201,29.013312-29.376207,29.173445-51.835408.130122-17.815249.101641-73.521791.101641-73.521791c4.74407-3.513004,8.506436-4.214286,8.376333-5.225148-.180167-1.411204-7.676901-1.510597-8.327451-1.530611-2.845489-.051053-5.707524-.05605-8.575681,0h-.000039Zm-16.744336,13.665762c6.269065.117946,12.302765,1.323479,16.623166,3.817862c0,20.981347.128532,41.963702-.080154,62.944449-1.436995,26.591057-15.816533,40.097887-37.682691,51.944818-6.050517-3.493184-13.529272-11.845807,2.388746-29.085353c1.903813-2.072641,3.61841-4.320353,5.05217-6.699272c2.417207,9.930761-10.783118,21.605197-10.783118,25.380653c5.440151-9.422617,49.460436-13.824306,16.435404-44.3693c10.625929,0,18.163196,11.964614,18.163177,18.153263c3.084168-13.297059-1.414365-33.689335-21.989034-33.689335-2.135458,1.557504-14.695948-3.410182-13.580673-16.242129-3.958401-1.753674-5.346048-3.398674-7.340651-5.007811c2.201508.220059,5.659765-.099316,6.665669-.833002-3.489005-.394645-6.976538-3.536951-10.2202-4.395101c3.152716-1.503409,8.28841-1.674896,11.033228-1.110352-2.325623-2.153899-4.876401-3.201651-7.214385-4.23741c7.235251.834629,14.103291,2.355514,19.628594,7.565269s4.172125,12.393998-3.03451,16.019009c7.060548,1.130889,12.357616-2.633524,12.417853-10.389382.012942-1.667262-.257589-3.087766-.722896-4.349707c7.517369,8.100576,11.688369,13.406759,19.572892,15.280111-5.341417-3.083871-10.018295-17.585076-17.431214-30.424579c5.291643,1.417888,11.40073,7.640366,14.259452,10.499082-5.040854-7.411064-7.785381-14.006468-13.961893-20.754187.600911-.008364,1.20314-.028845,1.801068-.017596Zm-59.363606,11.643063c.845926.579695,1.787525,1.61774,2.5346,1.720678.662097.135353,2.342653.571461,3.752097,1.265661l.000038-.000039c.469841.231374.908294.491113,1.27041.778655c1.227707.974612,2.599603,2.252091,3.64664,4.963016-3.405985.594963-7.537383,1.578274-10.655457-.091313-4.078486-3.941033-12.535497-5.283457-12.605382-5.584832c3.283845-.27985,8.62036-2.609053,12.057054-3.051826Zm-10.577958,38.89938c-.454127.018677-.949658.23647-1.464565.702686-2.871025,3.434149-5.469852,5.867472-8.789677,7.549672-2.819662.412587-6.688299-2.529674-7.573943-2.510319-.030263.000659-.05702.004825-.080115.012749-.595758.20454,1.655621,2.610448,3.403718,4.136777-1.688888.487607-2.741756.645821-3.172653.93408-.066185.044233-.116889.192838-.158041.143432l.001376.001356c-.262549.366475.175439.972364,1.266399,2.403912c5.24028,6.867136,6.900279,13.096297,11.248966,13.748221-1.263066-.72921-1.195099-2.60913-.75064-4.685801.388466,2.965317,3.631275,4.830648,6.794764,7.99413-7.044641-12.201664,3.927381-18.894465,1.43713-28.188182-.364712-1.361139-1.163596-2.283768-2.162719-2.242713Z" transform="translate(-58879.588398-8807.62043)" opacity="0" fill="#fff" stroke-width="51.6576"/>
        </g>
    </g>    
    <script><![CDATA[
!function(t,n){"object"==typeof exports&&"undefined"!=typeof module?module.exports=n():"function"==typeof __SVGATOR_DEFINE__&&__SVGATOR_DEFINE__.amd?__SVGATOR_DEFINE__(n):((t="undefined"!=typeof globalThis?globalThis:t||self).__SVGATOR_PLAYER__=t.__SVGATOR_PLAYER__||{},t.__SVGATOR_PLAYER__["5c7f360c"]=n())}(this,(function(){"use strict";function t(t,n){var e=Object.keys(t);if(Object.getOwnPropertySymbols){var r=Object.getOwnPropertySymbols(t);n&&(r=r.filter((function(n){return Object.getOwnPropertyDescriptor(t,n).enumerable}))),e.push.apply(e,r)}return e}function n(n){for(var e=1;e<arguments.length;e++){var r=null!=arguments[e]?arguments[e]:{};e%2?t(Object(r),!0).forEach((function(t){o(n,t,r[t])})):Object.getOwnPropertyDescriptors?Object.defineProperties(n,Object.getOwnPropertyDescriptors(r)):t(Object(r)).forEach((function(t){Object.defineProperty(n,t,Object.getOwnPropertyDescriptor(r,t))}))}return n}function e(t){return(e="function"==typeof Symbol&&"symbol"==typeof Symbol.iterator?function(t){return typeof t}:function(t){return t&&"function"==typeof Symbol&&t.constructor===Symbol&&t!==Symbol.prototype?"symbol":typeof t})(t)}function r(t,n){if(!(t instanceof n))throw new TypeError("Cannot call a class as a function")}function i(t,n){for(var e=0;e<n.length;e++){var r=n[e];r.enumerable=r.enumerable||!1,r.configurable=!0,"value"in r&&(r.writable=!0),Object.defineProperty(t,r.key,r)}}function u(t,n,e){return n&&i(t.prototype,n),e&&i(t,e),t}function o(t,n,e){return n in t?Object.defineProperty(t,n,{value:e,enumerable:!0,configurable:!0,writable:!0}):t[n]=e,t}function a(t){return(a=Object.setPrototypeOf?Object.getPrototypeOf:function(t){return t.__proto__||Object.getPrototypeOf(t)})(t)}function l(t,n){return(l=Object.setPrototypeOf||function(t,n){return t.__proto__=n,t})(t,n)}function s(){if("undefined"==typeof Reflect||!Reflect.construct)return!1;if(Reflect.construct.sham)return!1;if("function"==typeof Proxy)return!0;try{return Boolean.prototype.valueOf.call(Reflect.construct(Boolean,[],(function(){}))),!0}catch(t){return!1}}function f(t,n,e){return(f=s()?Reflect.construct:function(t,n,e){var r=[null];r.push.apply(r,n);var i=new(Function.bind.apply(t,r));return e&&l(i,e.prototype),i}).apply(null,arguments)}function c(t,n){if(n&&("object"==typeof n||"function"==typeof n))return n;if(void 0!==n)throw new TypeError("Derived constructors may only return object or undefined");return function(t){if(void 0===t)throw new ReferenceError("this hasn't been initialised - super() hasn't been called");return t}(t)}function h(t,n,e){return(h="undefined"!=typeof Reflect&&Reflect.get?Reflect.get:function(t,n,e){var r=function(t,n){for(;!Object.prototype.hasOwnProperty.call(t,n)&&null!==(t=a(t)););return t}(t,n);if(r){var i=Object.getOwnPropertyDescriptor(r,n);return i.get?i.get.call(e):i.value}})(t,n,e||t)}function v(t){return function(t){if(Array.isArray(t))return d(t)}(t)||function(t){if("undefined"!=typeof Symbol&&null!=t[Symbol.iterator]||null!=t["@@iterator"])return Array.from(t)}(t)||function(t,n){if(!t)return;if("string"==typeof t)return d(t,n);var e=Object.prototype.toString.call(t).slice(8,-1);"Object"===e&&t.constructor&&(e=t.constructor.name);if("Map"===e||"Set"===e)return Array.from(t);if("Arguments"===e||/^(?:Ui|I)nt(?:8|16|32)(?:Clamped)?Array$/.test(e))return d(t,n)}(t)||function(){throw new TypeError("Invalid attempt to spread non-iterable instance.\nIn order to be iterable, non-array objects must have a [Symbol.iterator]() method.")}()}function d(t,n){(null==n||n>t.length)&&(n=t.length);for(var e=0,r=new Array(n);e<n;e++)r[e]=t[e];return r}function y(t,n,e){if(Number.isInteger(t))return t;var r=Math.pow(10,n);return Math[e]((+t+Number.EPSILON)*r)/r}Number.isInteger||(Number.isInteger=function(t){return"number"==typeof t&&isFinite(t)&&Math.floor(t)===t}),Number.EPSILON||(Number.EPSILON=2220446049250313e-31);var g=p(Math.pow(10,-6));function p(t){var n=arguments.length>1&&void 0!==arguments[1]?arguments[1]:6;return y(t,n,"round")}function m(t,n){var e=arguments.length>2&&void 0!==arguments[2]?arguments[2]:g;return Math.abs(t-n)<e}p(Math.pow(10,-2)),p(Math.pow(10,-4));var b=Math.PI/180;function w(t){return t*b}function A(t){return t/b}function k(t){return t}function _(t,n,e){var r=1-e;return 3*e*r*(t*r+n*e)+e*e*e}function x(){var t=arguments.length>0&&void 0!==arguments[0]?arguments[0]:0,n=arguments.length>1&&void 0!==arguments[1]?arguments[1]:0,e=arguments.length>2&&void 0!==arguments[2]?arguments[2]:1,r=arguments.length>3&&void 0!==arguments[3]?arguments[3]:1;return t<0||t>1||e<0||e>1?null:m(t,n)&&m(e,r)?k:function(i){if(i<=0)return t>0?i*n/t:0===n&&e>0?i*r/e:0;if(i>=1)return e<1?1+(i-1)*(r-1)/(e-1):1===e&&t<1?1+(i-1)*(n-1)/(t-1):1;for(var u,o=0,a=1;o<a;){var l=_(t,e,u=(o+a)/2);if(m(i,l))break;l<i?o=u:a=u}return _(n,r,u)}}function S(){return 1}function O(t){return 1===t?1:0}function E(){var t=arguments.length>0&&void 0!==arguments[0]?arguments[0]:1,n=arguments.length>1&&void 0!==arguments[1]?arguments[1]:0;if(1===t){if(0===n)return O;if(1===n)return S}var e=1/t;return function(t){return t>=1?1:(t+=n*e)-t%e}}var M=Math.sin,j=Math.cos,I=Math.acos,B=Math.asin,P=Math.tan,N=Math.atan2,R=Math.sqrt,T=function(){function t(){var n=arguments.length>0&&void 0!==arguments[0]?arguments[0]:1,e=arguments.length>1&&void 0!==arguments[1]?arguments[1]:0,i=arguments.length>2&&void 0!==arguments[2]?arguments[2]:0,u=arguments.length>3&&void 0!==arguments[3]?arguments[3]:1,o=arguments.length>4&&void 0!==arguments[4]?arguments[4]:0,a=arguments.length>5&&void 0!==arguments[5]?arguments[5]:0;r(this,t),this.m=[n,e,i,u,o,a],this.i=null,this.w=null,this.s=null}return u(t,[{key:"determinant",get:function(){var t=this.m;return t[0]*t[3]-t[1]*t[2]}},{key:"isIdentity",get:function(){if(null===this.i){var t=this.m;this.i=1===t[0]&&0===t[1]&&0===t[2]&&1===t[3]&&0===t[4]&&0===t[5]}return this.i}},{key:"point",value:function(t,n){var e=this.m;return{x:e[0]*t+e[2]*n+e[4],y:e[1]*t+e[3]*n+e[5]}}},{key:"translateSelf",value:function(){var t=arguments.length>0&&void 0!==arguments[0]?arguments[0]:0,n=arguments.length>1&&void 0!==arguments[1]?arguments[1]:0;if(!t&&!n)return this;var e=this.m;return e[4]+=e[0]*t+e[2]*n,e[5]+=e[1]*t+e[3]*n,this.w=this.s=this.i=null,this}},{key:"rotateSelf",value:function(){var t=arguments.length>0&&void 0!==arguments[0]?arguments[0]:0;if(t%=360){t=w(t);var n=M(t),e=j(t),r=this.m,i=r[0],u=r[1];r[0]=i*e+r[2]*n,r[1]=u*e+r[3]*n,r[2]=r[2]*e-i*n,r[3]=r[3]*e-u*n,this.w=this.s=this.i=null}return this}},{key:"scaleSelf",value:function(){var t=arguments.length>0&&void 0!==arguments[0]?arguments[0]:1,n=arguments.length>1&&void 0!==arguments[1]?arguments[1]:1;if(1!==t||1!==n){var e=this.m;e[0]*=t,e[1]*=t,e[2]*=n,e[3]*=n,this.w=this.s=this.i=null}return this}},{key:"skewSelf",value:function(t,n){if(n%=360,(t%=360)||n){var e=this.m,r=e[0],i=e[1],u=e[2],o=e[3];t&&(t=P(w(t)),e[2]+=r*t,e[3]+=i*t),n&&(n=P(w(n)),e[0]+=u*n,e[1]+=o*n),this.w=this.s=this.i=null}return this}},{key:"resetSelf",value:function(){var t=arguments.length>0&&void 0!==arguments[0]?arguments[0]:1,n=arguments.length>1&&void 0!==arguments[1]?arguments[1]:0,e=arguments.length>2&&void 0!==arguments[2]?arguments[2]:0,r=arguments.length>3&&void 0!==arguments[3]?arguments[3]:1,i=arguments.length>4&&void 0!==arguments[4]?arguments[4]:0,u=arguments.length>5&&void 0!==arguments[5]?arguments[5]:0,o=this.m;return o[0]=t,o[1]=n,o[2]=e,o[3]=r,o[4]=i,o[5]=u,this.w=this.s=this.i=null,this}},{key:"recomposeSelf",value:function(){var t=arguments.length>0&&void 0!==arguments[0]?arguments[0]:null,n=arguments.length>1&&void 0!==arguments[1]?arguments[1]:null,e=arguments.length>2&&void 0!==arguments[2]?arguments[2]:null,r=arguments.length>3&&void 0!==arguments[3]?arguments[3]:null,i=arguments.length>4&&void 0!==arguments[4]?arguments[4]:null;return this.isIdentity||this.resetSelf(),t&&(t.x||t.y)&&this.translateSelf(t.x,t.y),n&&this.rotateSelf(n),e&&(e.x&&this.skewSelf(e.x,0),e.y&&this.skewSelf(0,e.y)),!r||1===r.x&&1===r.y||this.scaleSelf(r.x,r.y),i&&(i.x||i.y)&&this.translateSelf(i.x,i.y),this}},{key:"decompose",value:function(){var t=arguments.length>0&&void 0!==arguments[0]?arguments[0]:0,n=arguments.length>1&&void 0!==arguments[1]?arguments[1]:0,e=this.m,r=e[0]*e[0]+e[1]*e[1],i=[[e[0],e[1]],[e[2],e[3]]],u=R(r);if(0===u)return{origin:{x:p(e[4]),y:p(e[5])},translate:{x:p(t),y:p(n)},scale:{x:0,y:0},skew:{x:0,y:0},rotate:0};i[0][0]/=u,i[0][1]/=u;var o=e[0]*e[3]-e[1]*e[2]<0;o&&(u=-u);var a=i[0][0]*i[1][0]+i[0][1]*i[1][1];i[1][0]-=i[0][0]*a,i[1][1]-=i[0][1]*a;var l,s=R(i[1][0]*i[1][0]+i[1][1]*i[1][1]);return 0===s?{origin:{x:p(e[4]),y:p(e[5])},translate:{x:p(t),y:p(n)},scale:{x:p(u),y:0},skew:{x:0,y:0},rotate:0}:(i[1][0]/=s,i[1][1]/=s,a/=s,i[1][1]<0?(l=A(I(i[1][1])),i[0][1]<0&&(l=360-l)):l=A(B(i[0][1])),o&&(l=-l),a=A(N(a,R(i[0][0]*i[0][0]+i[0][1]*i[0][1]))),o&&(a=-a),{origin:{x:p(e[4]),y:p(e[5])},translate:{x:p(t),y:p(n)},scale:{x:p(u),y:p(s)},skew:{x:p(a),y:0},rotate:p(l)})}},{key:"multiply",value:function(t){return this.clone().multiplySelf(t)}},{key:"preMultiply",value:function(t){return t.multiply(this)}},{key:"multiplySelf",value:function(t){var n=F(this.m,t.m),e=n.a,r=n.b,i=n.c,u=n.d,o=n.tx,a=n.ty;return this.resetSelf(e,r,i,u,o,a),this}},{key:"preMultiplySelf",value:function(t){var n=F(t.m,this.m),e=n.a,r=n.b,i=n.c,u=n.d,o=n.tx,a=n.ty;return this.resetSelf(e,r,i,u,o,a),this}},{key:"clone",value:function(){var t=this.m;return new this.constructor(t[0],t[1],t[2],t[3],t[4],t[5])}},{key:"toString",value:function(){var t=arguments.length>0&&void 0!==arguments[0]?arguments[0]:" ";if(null===this.s){var n=this.m.map((function(t){return p(t)}));1===n[0]&&0===n[1]&&0===n[2]&&1===n[3]?this.s="translate("+n[4]+t+n[5]+")":this.s="matrix("+n.join(t)+")"}return this.s}}],[{key:"create",value:function(t){return t?Array.isArray(t)?f(this,v(t)):t instanceof this?t.clone():(new this).recomposeSelf(t.origin,t.rotate,t.skew,t.scale,t.translate):new this}}]),t}();function F(t,n){return{a:t[0]*n[0]+t[2]*n[1],b:t[1]*n[0]+t[3]*n[1],c:t[0]*n[2]+t[2]*n[3],d:t[1]*n[2]+t[3]*n[3],tx:t[0]*n[4]+t[2]*n[5]+t[4],ty:t[1]*n[4]+t[3]*n[5]+t[5]}}function C(t,n,e){return t>=.5?e:n}function D(t,n,e){return 0===t||n===e?n:t*(e-n)+n}function L(t,n,e){var r=D(t,n,e);return r<=0?0:r}function V(t,n,e){var r=D(t,n,e);return r<=0?0:r>=1?1:r}function q(t,n,e){return 0===t?n:1===t?e:{x:D(t,n.x,e.x),y:D(t,n.y,e.y)}}function G(t,n,e){return 0===t?n:1===t?e:{x:L(t,n.x,e.x),y:L(t,n.y,e.y)}}function z(t,n,e){var r=function(t,n,e){return Math.round(D(t,n,e))}(t,n,e);return r<=0?0:r>=255?255:r}function Y(t,n,e){return 0===t?n:1===t?e:{r:z(t,n.r,e.r),g:z(t,n.g,e.g),b:z(t,n.b,e.b),a:D(t,null==n.a?1:n.a,null==e.a?1:e.a)}}function U(t,n,e){var r=n.length;if(r!==e.length)return C(t,n,e);for(var i=new Array(r),u=0;u<r;u++)i[u]=D(t,n[u],e[u]);return i}function W(t,n){for(var e=[],r=0;r<t;r++)e.push(n);return e}function $(t,n){if(--n<=0)return t;var e=(t=Object.assign([],t)).length;do{for(var r=0;r<e;r++)t.push(t[r])}while(--n>0);return t}var H,Q=function(){function t(n){r(this,t),this.list=n,this.length=n.length}return u(t,[{key:"setAttribute",value:function(t,n){for(var e=this.list,r=0;r<this.length;r++)e[r].setAttribute(t,n)}},{key:"removeAttribute",value:function(t){for(var n=this.list,e=0;e<this.length;e++)n[e].removeAttribute(t)}},{key:"style",value:function(t,n){for(var e=this.list,r=0;r<this.length;r++)e[r].style[t]=n}}]),t}(),X=/-./g,J=function(t,n){return n.toUpperCase()};function Z(t){return"function"==typeof t?t:C}function K(t){return t?"function"==typeof t?t:Array.isArray(t)?function(t){var n=arguments.length>1&&void 0!==arguments[1]?arguments[1]:k;if(!Array.isArray(t))return n;switch(t.length){case 1:return E(t[0])||n;case 2:return E(t[0],t[1])||n;case 4:return x(t[0],t[1],t[2],t[3])||n}return n}(t,null):function(t,n){var e=arguments.length>2&&void 0!==arguments[2]?arguments[2]:k;switch(t){case"linear":return k;case"steps":return E(n.steps||1,n.jump||0)||e;case"bezier":case"cubic-bezier":return x(n.x1||0,n.y1||0,n.x2||0,n.y2||0)||e}return e}(t.type,t.value,null):null}function tt(t,n,e){var r=arguments.length>3&&void 0!==arguments[3]&&arguments[3],i=n.length-1;if(t<=n[0].t)return r?[0,0,n[0].v]:n[0].v;if(t>=n[i].t)return r?[i,1,n[i].v]:n[i].v;var u,o=n[0],a=null;for(u=1;u<=i;u++){if(!(t>n[u].t)){a=n[u];break}o=n[u]}return null==a?r?[i,1,n[i].v]:n[i].v:o.t===a.t?r?[u,1,a.v]:a.v:(t=(t-o.t)/(a.t-o.t),o.e&&(t=o.e(t)),r?[u,t,e(t,o.v,a.v)]:e(t,o.v,a.v))}function nt(t,n){var e=arguments.length>2&&void 0!==arguments[2]?arguments[2]:null;return t&&t.length?"function"!=typeof n?null:("function"!=typeof e&&(e=null),function(r){var i=tt(r,t,n);return null!=i&&e&&(i=e(i)),i}):null}function et(t,n){return t.t-n.t}function rt(t,n,r,i,u){var o,a="@"===r[0],l="#"===r[0],s=H[r],f=C;switch(a?(o=r.substr(1),r=o.replace(X,J)):l&&(r=r.substr(1)),e(s)){case"function":if(f=s(i,u,tt,K,r,a,n,t),l)return f;break;case"string":f=nt(i,Z(s));break;case"object":if((f=nt(i,Z(s.i),s.f))&&"function"==typeof s.u)return s.u(n,f,r,a,t)}return f?function(t,n,e){if(arguments.length>3&&void 0!==arguments[3]&&arguments[3])return t instanceof Q?function(r){return t.style(n,e(r))}:function(r){return t.style[n]=e(r)};if(Array.isArray(n)){var r=n.length;return function(i){var u=e(i);if(null==u)for(var o=0;o<r;o++)t[o].removeAttribute(n);else for(var a=0;a<r;a++)t[a].setAttribute(n,u)}}return function(r){var i=e(r);null==i?t.removeAttribute(n):t.setAttribute(n,i)}}(n,r,f,a):null}function it(t,n,r,i){if(!i||"object"!==e(i))return null;var u=null,o=null;return Array.isArray(i)?o=function(t){if(!t||!t.length)return null;for(var n=0;n<t.length;n++)t[n].e&&(t[n].e=K(t[n].e));return t.sort(et)}(i):(o=i.keys,u=i.data||null),o?rt(t,n,r,o,u):null}function ut(t,n,e){if(!e)return null;var r=[];for(var i in e)if(e.hasOwnProperty(i)){var u=it(t,n,i,e[i]);u&&r.push(u)}return r.length?r:null}function ot(t,n){if(!n.settings.duration||n.settings.duration<0)return null;var e,r,i,u,o,a=function(t,n){if(!n)return null;var e=[];if(Array.isArray(n))for(var r=n.length,i=0;i<r;i++){var u=n[i];if(2===u.length){var o=null;if("string"==typeof u[0])o=t.getElementById(u[0]);else if(Array.isArray(u[0])){o=[];for(var a=0;a<u[0].length;a++)if("string"==typeof u[0][a]){var l=t.getElementById(u[0][a]);l&&o.push(l)}o=o.length?1===o.length?o[0]:new Q(o):null}if(o){var s=ut(t,o,u[1]);s&&(e=e.concat(s))}}}else for(var f in n)if(n.hasOwnProperty(f)){var c=t.getElementById(f);if(c){var h=ut(t,c,n[f]);h&&(e=e.concat(h))}}return e.length?e:null}(t,n.elements);return a?(e=a,r=n.settings,i=r.duration,u=e.length,o=null,function(t,n){var a=r.iterations||1/0,l=(r.alternate&&a%2==0)^r.direction>0?i:0,s=t%i,f=1+(t-s)/i;n*=r.direction,r.alternate&&f%2==0&&(n=-n);var c=!1;if(f>a)s=l,c=!0,-1===r.fill&&(s=r.direction>0?0:i);else if(n<0&&(s=i-s),s===o)return!1;o=s;for(var h=0;h<u;h++)e[h](s);return c}):null}function at(t,n){for(var e=n.querySelectorAll("svg"),r=0;r<e.length;r++)if(e[r].id===t.root&&!e[r].svgatorAnimation)return e[r].svgatorAnimation=!0,e[r];return null}function lt(t){var n=function(t){return t.shadowRoot};return document?Array.from(t.querySelectorAll(":not("+["a","area","audio","br","canvas","circle","datalist","embed","g","head","hr","iframe","img","input","link","object","path","polygon","rect","script","source","style","svg","title","track","video"].join()+")")).filter(n).map(n):[]}function st(t){var n=arguments.length>1&&void 0!==arguments[1]?arguments[1]:document,e=arguments.length>2&&void 0!==arguments[2]?arguments[2]:0,r=at(t,n);if(r)return r;if(e>=20)return null;for(var i=lt(n),u=0;u<i.length;u++){var o=st(t,i[u],e+1);if(o)return o}return null}function ft(t,n){if(H=n,!t||!t.root||!Array.isArray(t.animations))return null;var e=st(t);if(!e)return null;var r=t.animations.map((function(t){return ot(e,t)})).filter((function(t){return!!t}));return r.length?{svg:e,animations:r,animationSettings:t.animationSettings,options:t.options||void 0}:null}function ct(t){var n=arguments.length>1&&void 0!==arguments[1]?arguments[1]:null,e=arguments.length>2&&void 0!==arguments[2]?arguments[2]:Number,r=arguments.length>3&&void 0!==arguments[3]?arguments[3]:"undefined"!=typeof BigInt&&BigInt,i="0x"+(t.replace(/[^0-9a-fA-F]+/g,"")||27);return n&&r&&e.isSafeInteger&&!e.isSafeInteger(+i)?e(r(i))%n+n:+i}function ht(t,n,e){return!t||!e||n>t.length?t:t.substring(0,n)+ht(t.substring(n+1),e,e)}function vt(t){var n=arguments.length>1&&void 0!==arguments[1]?arguments[1]:27;return!t||t%n?t%n:[0,1].includes(n)?n:vt(t/n,n)}function dt(t,n,e){if(t&&t.length){var r=ct(e),i=vt(r)+5,u=ht(t,vt(r,5),i);return u=u.replace(/\x7c$/g,"==").replace(/\x2f$/g,"="),u=function(t,n,e){var r=+("0x"+t.substring(0,4));t=t.substring(4);for(var i=ct(n,r)%r+e%27,u=[],o=0;o<t.length;o+=2)if("|"!==t[o]){var a=+("0x"+t[o]+t[o+1])-i;u.push(a)}else{var l=+("0x"+t.substring(o+1,o+1+4))-i;o+=3,u.push(l)}return String.fromCharCode.apply(String,u)}(u=(u=atob(u)).replace(/[\x41-\x5A]/g,""),n,r),u=JSON.parse(u)}}var yt=[{key:"alternate",def:!1},{key:"fill",def:1},{key:"iterations",def:0},{key:"direction",def:1},{key:"speed",def:1},{key:"fps",def:100}],gt=function(){function t(n,e){var i=this,u=arguments.length>2&&void 0!==arguments[2]?arguments[2]:null;r(this,t),this._id=0,this._running=!1,this._rollingBack=!1,this._animations=n,this._settings=e,(!u||u<"2022-05-02")&&delete this._settings.speed,yt.forEach((function(t){i._settings[t.key]=i._settings[t.key]||t.def})),this.duration=e.duration,this.offset=e.offset||0,this.rollbackStartOffset=0}return u(t,[{key:"alternate",get:function(){return this._settings.alternate}},{key:"fill",get:function(){return this._settings.fill}},{key:"iterations",get:function(){return this._settings.iterations}},{key:"direction",get:function(){return this._settings.direction}},{key:"speed",get:function(){return this._settings.speed}},{key:"fps",get:function(){return this._settings.fps}},{key:"maxFiniteDuration",get:function(){return this.iterations>0?this.iterations*this.duration:this.duration}},{key:"_apply",value:function(t){for(var n=arguments.length>1&&void 0!==arguments[1]?arguments[1]:{},e=this._animations,r=e.length,i=0,u=0;u<r;u++)n[u]?i++:(n[u]=e[u](t,1),n[u]&&i++);return i}},{key:"_rollback",value:function(t){var n=this,e=1/0,r=null;this.rollbackStartOffset=t,this._rollingBack=!0,this._running=!0;this._id=window.requestAnimationFrame((function i(u){if(n._rollingBack){null==r&&(r=u);var o=Math.round(t-(u-r)*n.speed);if(o>n.duration&&e!==1/0){var a=!!n.alternate&&o/n.duration%2>1,l=o%n.duration;o=(l+=a?n.duration:0)||n.duration}var s=(n.fps?1e3/n.fps:0)*n.speed,f=Math.max(0,o);f<=e-s&&(n.offset=f,e=f,n._apply(f));var c=n.iterations>0&&-1===n.fill&&o>=n.maxFiniteDuration;(o<=0||n.offset<o||c)&&n.stop(),n._id=window.requestAnimationFrame(i)}}))}},{key:"_start",value:function(){var t=this,n=arguments.length>0&&void 0!==arguments[0]?arguments[0]:0,e=-1/0,r=null,i={};this._running=!0;var u=function u(o){null==r&&(r=o);var a=Math.round((o-r)*t.speed+n),l=(t.fps?1e3/t.fps:0)*t.speed;if(a>=e+l&&!t._rollingBack&&(t.offset=a,e=a,t._apply(a,i)===t._animations.length))return void t.pause(!0);t._id=window.requestAnimationFrame(u)};this._id=window.requestAnimationFrame(u)}},{key:"_pause",value:function(){this._id&&window.cancelAnimationFrame(this._id),this._running=!1}},{key:"play",value:function(){if(!this._running)return this._rollingBack?this._rollback(this.offset):this._start(this.offset)}},{key:"stop",value:function(){this._pause(),this.offset=0,this.rollbackStartOffset=0,this._rollingBack=!1,this._apply(0)}},{key:"reachedToEnd",value:function(){return this.iterations>0&&this.offset>=this.iterations*this.duration}},{key:"restart",value:function(){var t=arguments.length>0&&void 0!==arguments[0]&&arguments[0];this.stop(t),this.play(t)}},{key:"pause",value:function(){this._pause()}},{key:"toggle",value:function(){return this._running?this.pause():this.reachedToEnd()?this.restart():this.play()}},{key:"trigger",value:function(t,n){}},{key:"_adjustOffset",value:function(){var t=arguments.length>0&&void 0!==arguments[0]&&arguments[0],n=this.alternate?2*this.duration:this.duration;if(t){if(!this._rollingBack&&0===this.offset)return void(this.offset=n);this._rollingBack&&(this.offset,this.maxFiniteDuration)}!this._rollingBack||this.rollbackStartOffset<=this.duration?0!==this.iterations&&(this.offset=Math.min(this.offset,this.maxFiniteDuration)):(this.offset=this.rollbackStartOffset-(this.rollbackStartOffset-this.offset)%n,this.rollbackStartOffset=0)}},{key:"reverse",value:function(){var t=arguments.length>0&&void 0!==arguments[0]&&arguments[0];if(!this._running)return this._adjustOffset(t),this._rollingBack=!this._rollingBack,t&&this.play(!1),void this.trigger("reverse",this.offset);this.pause(!1,!1),this._adjustOffset(),this._rollingBack=!this._rollingBack,this.play(!1),this.trigger("reverse",this.offset)}}],[{key:"build",value:function(t,n){delete t.animationSettings,t.options=dt(t.options,t.root,"5c7f360c"),t.animations.map((function(n){n.settings=dt(n.s,t.root,"5c7f360c"),delete n.s,t.animationSettings||(t.animationSettings=n.settings)}));var e=t.version;if(!(t=ft(t,n)))return null;var r=t.options||{},i=new this(t.animations,t.animationSettings,e);return{el:t.svg,options:r,player:i}}},{key:"push",value:function(t){return this.build(t)}},{key:"init",value:function(){var t=this,n=window.__SVGATOR_PLAYER__&&window.__SVGATOR_PLAYER__["5c7f360c"];Array.isArray(n)&&n.splice(0).forEach((function(n){return t.build(n)}))}}]),t}();function pt(t){return p(t)+""}function mt(t){var n=arguments.length>1&&void 0!==arguments[1]?arguments[1]:" ";return t&&t.length?t.map(pt).join(n):""}function bt(t){return pt(t.x)+","+pt(t.y)}function wt(t){return t?null==t.a||t.a>=1?function(t){if(!t)return"transparent";var n=function(t){return parseInt(t).toString(16).padStart(2,"0")};return function(t){for(var n=[],e="#"===t[0]?n.push("#"):0;e<t.length;e+=2){if(t[e]!==t[e+1])return t;n.push(t[e])}return n.join("")}("#"+n(t.r)+n(t.g)+n(t.b)+(null==t.a||t.a>=1?"":n(255*t.a)))}(t):"rgba("+t.r+","+t.g+","+t.b+","+t.a+")":"transparent"}function At(t){return t?"url(#"+t+")":"none"}!function(){for(var t=0,n=["ms","moz","webkit","o"],e=0;e<n.length&&!window.requestAnimationFrame;++e)window.requestAnimationFrame=window[n[e]+"RequestAnimationFrame"],window.cancelAnimationFrame=window[n[e]+"CancelAnimationFrame"]||window[n[e]+"CancelRequestAnimationFrame"];window.requestAnimationFrame||(window.requestAnimationFrame=function(n){var e=Date.now(),r=Math.max(0,16-(e-t)),i=window.setTimeout((function(){n(e+r)}),r);return t=e+r,i},window.cancelAnimationFrame=window.clearTimeout)}();var kt={f:null,i:G,u:function(t,n){return function(e){var r=n(e);t.setAttribute("rx",pt(r.x)),t.setAttribute("ry",pt(r.y))}}},_t={f:null,i:function(t,n,e){return 0===t?n:1===t?e:{width:L(t,n.width,e.width),height:L(t,n.height,e.height)}},u:function(t,n){return function(e){var r=n(e);t.setAttribute("width",pt(r.width)),t.setAttribute("height",pt(r.height))}}};Object.freeze({M:2,L:2,Z:0,H:1,V:1,C:6,Q:4,T:2,S:4,A:7});var xt={},St=null;function Ot(t){var n=function(){if(St)return St;if("object"!==("undefined"==typeof document?"undefined":e(document))||!document.createElementNS)return{};var t=document.createElementNS("http://www.w3.org/2000/svg","svg");return t&&t.style?(t.style.position="absolute",t.style.opacity="0.01",t.style.zIndex="-9999",t.style.left="-9999px",t.style.width="1px",t.style.height="1px",St={svg:t}):{}}().svg;if(!n)return function(t){return null};var r=document.createElementNS(n.namespaceURI,"path");r.setAttributeNS(null,"d",t),r.setAttributeNS(null,"fill","none"),r.setAttributeNS(null,"stroke","none"),n.appendChild(r);var i=r.getTotalLength();return function(t){var n=r.getPointAtLength(i*t);return{x:n.x,y:n.y}}}function Et(t){return xt[t]?xt[t]:xt[t]=Ot(t)}function Mt(t,n,e,r){if(!t||!r)return!1;var i=["M",t.x,t.y];if(n&&e&&(i.push("C"),i.push(n.x),i.push(n.y),i.push(e.x),i.push(e.y)),n?!e:e){var u=n||e;i.push("Q"),i.push(u.x),i.push(u.y)}return n||e||i.push("L"),i.push(r.x),i.push(r.y),i.join(" ")}function jt(t,n,e,r){var i=arguments.length>4&&void 0!==arguments[4]?arguments[4]:1,u=Mt(t,n,e,r),o=Et(u);try{return o(i)}catch(t){return null}}function It(t,n,e){return t+(n-t)*e}function Bt(t,n,e){var r=arguments.length>3&&void 0!==arguments[3]&&arguments[3],i={x:It(t.x,n.x,e),y:It(t.y,n.y,e)};return r&&(i.a=Pt(t,n)),i}function Pt(t,n){return Math.atan2(n.y-t.y,n.x-t.x)}function Nt(t,n,e,r){var i=1-r;return i*i*t+2*i*r*n+r*r*e}function Rt(t,n,e,r){return 2*(1-r)*(n-t)+2*r*(e-n)}function Tt(t,n,e,r){var i=arguments.length>4&&void 0!==arguments[4]&&arguments[4],u=jt(t,n,null,e,r);return u||(u={x:Nt(t.x,n.x,e.x,r),y:Nt(t.y,n.y,e.y,r)}),i&&(u.a=Ft(t,n,e,r)),u}function Ft(t,n,e,r){return Math.atan2(Rt(t.y,n.y,e.y,r),Rt(t.x,n.x,e.x,r))}function Ct(t,n,e,r,i){var u=i*i;return i*u*(r-t+3*(n-e))+3*u*(t+e-2*n)+3*i*(n-t)+t}function Dt(t,n,e,r,i){var u=1-i;return 3*(u*u*(n-t)+2*u*i*(e-n)+i*i*(r-e))}function Lt(t,n,e,r,i){var u=arguments.length>5&&void 0!==arguments[5]&&arguments[5],o=jt(t,n,e,r,i);return o||(o={x:Ct(t.x,n.x,e.x,r.x,i),y:Ct(t.y,n.y,e.y,r.y,i)}),u&&(o.a=Vt(t,n,e,r,i)),o}function Vt(t,n,e,r,i){return Math.atan2(Dt(t.y,n.y,e.y,r.y,i),Dt(t.x,n.x,e.x,r.x,i))}function qt(t,n,e){var r=arguments.length>3&&void 0!==arguments[3]&&arguments[3];if(zt(n)){if(Yt(e))return Tt(n,e.start,e,t,r)}else if(zt(e)){if(Ut(n))return Tt(n,n.end,e,t,r)}else{if(Ut(n))return Yt(e)?Lt(n,n.end,e.start,e,t,r):Tt(n,n.end,e,t,r);if(Yt(e))return Tt(n,e.start,e,t,r)}return Bt(n,e,t,r)}function Gt(t,n,e){var r=qt(t,n,e,!0);return r.a=A(function(t){return arguments.length>1&&void 0!==arguments[1]&&arguments[1]?t+Math.PI:t}(r.a)),r}function zt(t){return!t.type||"corner"===t.type}function Yt(t){return null!=t.start&&!zt(t)}function Ut(t){return null!=t.end&&!zt(t)}var Wt=new T;var $t={f:function(t){return t?t.join(" "):""},i:function(t,n,r){if(0===t)return n;if(1===t)return r;var i=n.length;if(i!==r.length)return C(t,n,r);for(var u,o=new Array(i),a=0;a<i;a++){if((u=e(n[a]))!==e(r[a]))return C(t,n,r);if("number"===u)o[a]=D(t,n[a],r[a]);else{if(n[a]!==r[a])return C(t,n,r);o[a]=n[a]}}return o}},Ht={f:null,i:U,u:function(t,n){return function(e){var r=n(e);t.setAttribute("x1",pt(r[0])),t.setAttribute("y1",pt(r[1])),t.setAttribute("x2",pt(r[2])),t.setAttribute("y2",pt(r[3]))}}},Qt={f:pt,i:D},Xt={f:pt,i:V},Jt={f:function(t){var n=arguments.length>1&&void 0!==arguments[1]?arguments[1]:" ";return t&&t.length>0&&(t=t.map((function(t){return p(t,4)}))),mt(t,n)},i:function(t,n,e){var r,i,u,o=n.length,a=e.length;if(o!==a)if(0===o)n=W(o=a,0);else if(0===a)a=o,e=W(o,0);else{var l=(u=(r=o)*(i=a)/function(t,n){for(var e;n;)e=n,n=t%n,t=e;return t||1}(r,i))<0?-u:u;n=$(n,Math.floor(l/o)),e=$(e,Math.floor(l/a)),o=a=l}for(var s=[],f=0;f<o;f++)s.push(p(L(t,n[f],e[f])));return s}};function Zt(t,n,e){return t.map((function(t){return function(t,n,e){var r=t.v;if(!r||"g"!==r.t||r.s||!r.v||!r.r)return t;var i=e.getElementById(r.r),u=i&&i.querySelectorAll("stop")||[];return r.s=r.v.map((function(t,n){var e=u[n]&&u[n].getAttribute("offset");return{c:t,o:e=p(parseInt(e)/100)}})),delete r.v,t}(t,0,e)}))}var Kt={gt:"gradientTransform",c:{x:"cx",y:"cy"},rd:"r",f:{x:"x1",y:"y1"},to:{x:"x2",y:"y2"}};function tn(t,n,r,i,u,o,a,l){return Zt(t,0,l),n=function(t,n,e){for(var r,i,u,o=t.length-1,a={},l=0;l<=o;l++)(r=t[l]).e&&(r.e=n(r.e)),r.v&&"g"===(i=r.v).t&&i.r&&(u=e.getElementById(i.r))&&(a[i.r]={e:u,s:u.querySelectorAll("stop")});return a}(t,i,l),function(i){var u=r(i,t,nn);if(!u)return"none";if("c"===u.t)return wt(u.v);if("g"===u.t){if(!n[u.r])return At(u.r);var o=n[u.r];return function(t,n){for(var e=t.s,r=e.length;r<n.length;r++){var i=e[e.length-1].cloneNode();i.id=un(i.id),t.e.appendChild(i),e=t.s=t.e.querySelectorAll("stop")}for(var u=0,o=e.length,a=n.length-1;u<o;u++)e[u].setAttribute("stop-color",wt(n[Math.min(u,a)].c)),e[u].setAttribute("offset",n[Math.min(u,a)].o)}(o,u.s),Object.keys(Kt).forEach((function(t){if(void 0!==u[t])if("object"!==e(Kt[t])){var n,r="gt"===t?(n=u[t],Array.isArray(n)?"matrix("+n.join(" ")+")":""):u[t],i=Kt[t];o.e.setAttribute(i,r)}else Object.keys(Kt[t]).forEach((function(n){if(void 0!==u[t][n]){var e=u[t][n],r=Kt[t][n];o.e.setAttribute(r,e)}}))})),At(u.r)}return"none"}}function nn(t,e,r){if(0===t)return e;if(1===t)return r;if(e&&r){var i=e.t;if(i===r.t)switch(e.t){case"c":return{t:i,v:Y(t,e.v,r.v)};case"g":if(e.r===r.r){var u={t:i,s:en(t,e.s,r.s),r:e.r};return e.gt&&r.gt&&(u.gt=U(t,e.gt,r.gt)),e.c?(u.c=q(t,e.c,r.c),u.rd=L(t,e.rd,r.rd)):e.f&&(u.f=q(t,e.f,r.f),u.to=q(t,e.to,r.to)),u}}if("c"===e.t&&"g"===r.t||"c"===r.t&&"g"===e.t){var o="c"===e.t?e:r,a="g"===e.t?n({},e):n({},r),l=a.s.map((function(t){return{c:o.v,o:t.o}}));return a.s="c"===e.t?en(t,l,a.s):en(t,a.s,l),a}}return C(t,e,r)}function en(t,n,e){if(n.length===e.length)return n.map((function(n,r){return rn(t,n,e[r])}));for(var r=Math.max(n.length,e.length),i=[],u=0;u<r;u++){var o=rn(t,n[Math.min(u,n.length-1)],e[Math.min(u,e.length-1)]);i.push(o)}return i}function rn(t,n,e){return{o:V(t,n.o,e.o||0),c:Y(t,n.c,e.c||{})}}function un(t){return t.replace(/-fill-([0-9]+)$/,(function(t,n){return"-fill-"+(+n+1)}))}function on(t,n,e){return 0===t?n:1===t?e:{blur:G(t,n.blur,e.blur),offset:q(t,n.offset,e.offset),color:Y(t,n.color,e.color)}}var an={blur:G,brightness:L,contrast:L,"drop-shadow":on,"inner-shadow":on,grayscale:L,"hue-rotate":D,invert:L,opacity:L,saturate:L,sepia:L};function ln(t,n,e){if(0===t)return n;if(1===t)return e;var r=n.length;if(r!==e.length)return C(t,n,e);for(var i,u=[],o=0;o<r;o++){if(n[o].type!==e[o].type)return n;if(!(i=an[n[o].type]))return C(t,n,e);u.push({type:n.type,value:i(t,n[o].value,e[o].value)})}return u}var sn={blur:function(t){return t?function(n){t.setAttribute("stdDeviation",bt(n))}:null},brightness:function(t,n,e){return(t=cn(e,n))?function(n){n=pt(n),t.map((function(t){return t.setAttribute("slope",n)}))}:null},contrast:function(t,n,e){return(t=cn(e,n))?function(n){var e=pt((1-n)/2);n=pt(n),t.map((function(t){t.setAttribute("slope",n),t.setAttribute("intercept",e)}))}:null},"drop-shadow":function(t,n,e){var r=e.getElementById(n+"-blur");if(!r)return null;var i=e.getElementById(n+"-offset");if(!i)return null;var u=e.getElementById(n+"-flood");return u?function(t){r.setAttribute("stdDeviation",bt(t.blur)),i.setAttribute("dx",pt(t.offset.x)),i.setAttribute("dy",pt(t.offset.y)),u.setAttribute("flood-color",wt(t.color))}:null},"inner-shadow":function(t,n,e){var r=e.getElementById(n+"-blur");if(!r)return null;var i=e.getElementById(n+"-offset");if(!i)return null;var u=e.getElementById(n+"-color-matrix");return u?function(t){r.setAttribute("stdDeviation",bt(t.blur)),i.setAttribute("dx",pt(t.offset.x)),i.setAttribute("dy",pt(t.offset.y));var n=[0,0,0,0,t.color.r/255,0,0,0,0,t.color.g/255,0,0,0,0,t.color.b/255,0,0,0,t.color.a,0];u.setAttribute("values",mt(n))}:null},grayscale:function(t){return t?function(n){t.setAttribute("values",mt(function(t){return[.2126+.7874*(t=1-t),.7152-.7152*t,.0722-.0722*t,0,0,.2126-.2126*t,.7152+.2848*t,.0722-.0722*t,0,0,.2126-.2126*t,.7152-.7152*t,.0722+.9278*t,0,0,0,0,0,1,0]}(n)))}:null},"hue-rotate":function(t){return t?function(n){return t.setAttribute("values",pt(n))}:null},invert:function(t,n,e){return(t=cn(e,n))?function(n){n=pt(n)+" "+pt(1-n),t.map((function(t){return t.setAttribute("tableValues",n)}))}:null},opacity:function(t,n,e){return(t=e.getElementById(n+"-A"))?function(n){return t.setAttribute("tableValues","0 "+pt(n))}:null},saturate:function(t){return t?function(n){return t.setAttribute("values",pt(n))}:null},sepia:function(t){return t?function(n){return t.setAttribute("values",mt(function(t){return[.393+.607*(t=1-t),.769-.769*t,.189-.189*t,0,0,.349-.349*t,.686+.314*t,.168-.168*t,0,0,.272-.272*t,.534-.534*t,.131+.869*t,0,0,0,0,0,1,0]}(n)))}:null}};var fn=["R","G","B"];function cn(t,n){var e=fn.map((function(e){return t.getElementById(n+"-"+e)||null}));return-1!==e.indexOf(null)?null:e}var hn={fill:tn,"fill-opacity":Xt,stroke:tn,"stroke-opacity":Xt,"stroke-width":Qt,"stroke-dashoffset":{f:pt,i:D},"stroke-dasharray":Jt,opacity:Xt,transform:function(t,n,r,i){if(!(t=function(t,n){if(!t||"object"!==e(t))return null;var r=!1;for(var i in t)t.hasOwnProperty(i)&&(t[i]&&t[i].length?(t[i].forEach((function(t){t.e&&(t.e=n(t.e))})),r=!0):delete t[i]);return r?t:null}(t,i)))return null;var u=function(e,i,u){var o=arguments.length>3&&void 0!==arguments[3]?arguments[3]:null;return t[e]?r(i,t[e],u):n&&n[e]?n[e]:o};return n&&n.a&&t.o?function(n){var e=r(n,t.o,Gt);return Wt.recomposeSelf(e,u("r",n,D,0)+e.a,u("k",n,q),u("s",n,q),u("t",n,q)).toString()}:function(t){return Wt.recomposeSelf(u("o",t,qt,null),u("r",t,D,0),u("k",t,q),u("s",t,q),u("t",t,q)).toString()}},"#filter":function(t,n,e,r,i,u,o,a){if(!n.items||!t||!t.length)return null;var l=function(t,n){var e=(t=t.map((function(t){return t&&sn[t[0]]?(n.getElementById(t[1]),sn[t[0]](n.getElementById(t[1]),t[1],n)):null}))).length;return function(n){for(var r=0;r<e;r++)t[r]&&t[r](n[r].value)}}(n.items,a);return l?(t=function(t,n){return t.map((function(t){return t.e=n(t.e),t}))}(t,r),function(n){l(e(n,t,ln))}):null},"#line":Ht,points:{f:mt,i:U},d:$t,r:Qt,"#size":_t,"#radius":kt,_:function(t,n){if(Array.isArray(t))for(var e=0;e<t.length;e++)this[t[e]]=n;else this[t]=n}},vn=function(){function t(n,e,i){r(this,t);var u=function(t){var n,e,r,i=t&&1===(null===(n=t.ownerDocument)||void 0===n||null===(e=n.childNodes)||void 0===e?void 0:e.length)&&window.parent!==window,u={el:t,window:window};if(!i)return u;try{r=window.parent.document}catch(t){return u}return u.window=window.parent,u.el=Array.from(r.querySelectorAll("iframe,object")).filter((function(t){return t.contentWindow===window}))[0]||u.el,u}(n);e=Math.max(1,e||1),e=Math.min(e,100),this.el=u.el,this._handlers=[],this.onThresholdChange=i&&i.call?i:function(){},this.thresholdPercent=e||1,this.currentVisibility=null,this.visibilityCalculator=function(t,n){var e=arguments.length>2&&void 0!==arguments[2]?arguments[2]:e,r=!1,i=null,u=function(){for(var u=0,o=e.innerHeight,a=0,l=e.innerWidth,s=t.parentNode;s instanceof Element;){var f=e.getComputedStyle(s);if("visible"!==f.overflowY||"visible"!==f.overflowX){var c=s.getBoundingClientRect();"visible"!==f.overflowY&&(u=Math.max(u,c.top),o=Math.min(o,c.bottom)),"visible"!==f.overflowX&&(a=Math.max(a,c.left),l=Math.min(l,c.right))}if(s===s.parentNode)break;s=s.parentNode}r=!1;var h=t.getBoundingClientRect(),v=Math.min(h.height,Math.max(0,u-h.top)),d=Math.min(h.height,Math.max(0,h.bottom-o)),y=Math.min(h.width,Math.max(0,a-h.left)),g=Math.min(h.width,Math.max(0,h.right-l)),p=(h.height-v-d)/h.height,m=(h.width-y-g)/h.width,b=Math.round(p*m*100);null!==i&&i===b||(i=b,n(b))};return function(t){r&&clearTimeout(r),r=setTimeout((function(){return u()}),100)}}(this.el,this.onVisibilityUpdate.bind(this),u.window),this.bindScrollWatchers(),this.visibilityCalculator()}return u(t,[{key:"bindScrollWatchers",value:function(){for(var t=this.el.parentNode;t&&(this._handlers.push({element:t,event:"scroll",handler:this.visibilityCalculator}),t.addEventListener("scroll",this.visibilityCalculator),t!==t.parentNode&&t!==document);)t=t.parentNode}},{key:"onVisibilityUpdate",value:function(t){var n=this.currentVisibility>=this.thresholdPercent,e=t>=this.thresholdPercent;if(null===this.currentVisibility||n!==e)return this.currentVisibility=t,void this.onThresholdChange(e);this.currentVisibility=t}},{key:"destruct",value:function(){this._handlers.forEach((function(t){t.element.removeEventListener(t.event,t.handler)}))}}]),t}(),dn=function(){function t(){r(this,t)}return u(t,null,[{key:"adjustLink",value:function(t){var n,e,r=t&&1===(null===(n=t.ownerDocument)||void 0===n||null===(e=n.childNodes)||void 0===e?void 0:e.length)&&window.parent!==window,i=null==t?void 0:t.firstElementChild;r&&i&&"a"===i.tagName&&!i.getAttribute("target")&&i.setAttributeNS(null,"target","_parent")}},{key:"autoPlay",value:function(t,n,e){var r=arguments.length>3&&void 0!==arguments[3]?arguments[3]:[];if("click"===e.start){var i=function(){switch(e.click){case"freeze":return!t._running&&t.reachedToEnd()?t.restart():t.toggle();case"restart":return t.offset>0?t.restart():t.play();case"reverse":return t._running?t.reverse():t.reachedToEnd()?1===t.fill?t.reverse(!0):t.restart():t.play();case"none":default:if(t._running)return;return t.reachedToEnd()?t.restart():t.play()}};return r.push({element:n,event:"click",handler:i}),void n.addEventListener("click",i)}if("hover"===e.start){var u=function(){return t.reachedToEnd()?t.restart():t._rollingBack?t.reverse():t.play()};r.push({element:n,event:"mouseenter",handler:u}),n.addEventListener("mouseenter",u);var o=function(){switch(e.hover){case"freeze":return t.pause();case"reset":return t.stop();case"reverse":if(t.reverse(),t._running)return;return t.play();case"none":default:return}};return r.push({element:n,event:"mouseleave",handler:o}),void n.addEventListener("mouseleave",o)}if("scroll"!==e.start)"programmatic"!==e.start&&t.play();else{var a=new vn(n,e.scroll||25,(function(n){n?t.reachedToEnd()?t.restart():t.play():t.pause()}));r.push({callback:function(){return a.destruct()}})}}}]),t}(),yn=function(t){!function(t,n){if("function"!=typeof n&&null!==n)throw new TypeError("Super expression must either be null or a function");t.prototype=Object.create(n&&n.prototype,{constructor:{value:t,writable:!0,configurable:!0}}),n&&l(t,n)}(o,t);var n,e,i=(n=o,e=s(),function(){var t,r=a(n);if(e){var i=a(this).constructor;t=Reflect.construct(r,arguments,i)}else t=r.apply(this,arguments);return c(this,t)});function o(){return r(this,o),i.apply(this,arguments)}return u(o,null,[{key:"build",value:function(t){var n=h(a(o),"build",this).call(this,t,hn);if(!n)return null;var e=n.el,r=n.options,i=n.player;dn.adjustLink(e),dn.autoPlay(i,e,r)}}]),o}(gt);return yn.init(),yn}));
(function(s,i,o,w,d,a,b){w[o]=w[o]||{};w[o][s]=w[o][s]||[];w[o][s].push(i);})('5c7f360c',{"root":"eVKIq1Tv0S31","version":"2024-09-05","animations":[{"elements":{"eVKIq1Tv0S37":{"opacity":[{"t":1000,"v":1},{"t":1200,"v":0},{"t":5800,"v":0},{"t":6000,"v":1}]},"eVKIq1Tv0S38":{"opacity":[{"t":1000,"v":0},{"t":1200,"v":1},{"t":1400,"v":0},{"t":5600,"v":0},{"t":5800,"v":1},{"t":6000,"v":0}]},"eVKIq1Tv0S39":{"opacity":[{"t":1200,"v":0},{"t":1400,"v":1},{"t":1600,"v":0},{"t":5400,"v":0},{"t":5600,"v":1},{"t":5800,"v":0}]},"eVKIq1Tv0S310":{"opacity":[{"t":1400,"v":0},{"t":1600,"v":1},{"t":1800,"v":0},{"t":5200,"v":0},{"t":5400,"v":1},{"t":5600,"v":0}]},"eVKIq1Tv0S311":{"opacity":[{"t":1600,"v":0},{"t":1800,"v":1},{"t":2000,"v":0},{"t":5000,"v":0},{"t":5200,"v":1},{"t":5400,"v":0}]},"eVKIq1Tv0S312":{"opacity":[{"t":1800,"v":0},{"t":2000,"v":1},{"t":2200,"v":0},{"t":4800,"v":0},{"t":5000,"v":1},{"t":5200,"v":0}]},"eVKIq1Tv0S313":{"opacity":[{"t":2000,"v":0},{"t":2200,"v":1},{"t":2400,"v":0},{"t":4600,"v":0},{"t":4800,"v":1},{"t":5000,"v":0}]},"eVKIq1Tv0S314":{"opacity":[{"t":2200,"v":0},{"t":2400,"v":1},{"t":2600,"v":0},{"t":4400,"v":0},{"t":4600,"v":1},{"t":4800,"v":0}]},"eVKIq1Tv0S315":{"opacity":[{"t":2400,"v":0},{"t":2600,"v":1},{"t":2800,"v":0},{"t":4200,"v":0},{"t":4400,"v":1},{"t":4600,"v":0}]},"eVKIq1Tv0S316":{"opacity":[{"t":2600,"v":0},{"t":2800,"v":1},{"t":3000,"v":0},{"t":4000,"v":0},{"t":4200,"v":1},{"t":4400,"v":0}]},"eVKIq1Tv0S317":{"opacity":[{"t":2800,"v":0},{"t":3000,"v":1},{"t":4000,"v":1},{"t":4200,"v":0}]},"eVKIq1Tv0S324":{"transform":{"data":{"o":{"x":135.33781,"y":207.03926,"type":"corner"},"t":{"x":-135.33781,"y":-207.03926}},"keys":{"r":[{"t":0,"v":720,"e":[0.415,0.08,0.115,0.955]},{"t":7700,"v":0,"e":[1,0]}]}},"fill":[{"t":0,"v":{"t":"c","v":{"r":210,"g":219,"b":237,"a":1}}},{"t":7700,"v":{"t":"c","v":{"r":210,"g":219,"b":236,"a":1}}}]},"eVKIq1Tv0S325":{"transform":{"data":{"o":{"x":11.12,"y":29.9,"type":"corner"},"s":{"x":0.3,"y":0.3},"t":{"x":-95.902813,"y":-108.465}},"keys":{"r":[{"t":0,"v":-720,"e":[0.415,0.08,0.115,0.955]},{"t":7700,"v":0,"e":[1,0]}]}}}},"s":"MIDA1ZDlhNDE4Mzk0OTNE4MDkzODg4ZThkRDQAxNTk1NjRmNGY0ZlQ0KYjQxODM4OFc5MTg0OPDI5Mzg4OGVUOGQ0MTTU5NTA0YjQxODg5MzgX0OTE4MDkzODg4ZThkFOTJLNDE1OTUwNGJYNPDE4NTg4OGI4YjQxNTFk1MDRiNDFWODA4YjkRzODQ5MThkODBROTM4HNDQxNTk4NTgwSzhiOHTI4NDRiNDE5MjhmODPQ4NDgzNDE1OTUwNGIH0MTg1OGY5MjQxNTk1BMDRmNGZLOWM/"}],"options":"MIDAxMDg4MmY4MDgxNmBVFN2Y4MTJmNDcyZjcW5N2M2ZTcxMmY4YQ|"},'__SVGATOR_PLAYER__',window,document)
]]>    </script>
</svg>
