<svg id="eMTpJzO3C2c1" xmlns="http://www.w3.org/2000/svg" xmlns:xlink="http://www.w3.org/1999/xlink"
    viewBox="0 0 2354.8228 2475.6101" shape-rendering="geometricPrecision"
    text-rendering="geometricPrecision" project-id="e3698e1aa6134e73bf13dc05ab409e25"
    export-id="8810d7ca184f46d8ae154c083f4b2653" cached="false">
    <defs>
        <linearGradient id="eMTpJzO3C2c18-fill" x1="0.5" y1="0" x2="0.5" y2="1" spreadMethod="pad"
            gradientUnits="objectBoundingBox" gradientTransform="translate(0 0)">
            <stop id="eMTpJzO3C2c18-fill-0" offset="0%" stop-color="rgba(255,255,255,0)" />
            <stop id="eMTpJzO3C2c18-fill-1" offset="100%" stop-color="#010022" />
        </linearGradient>
    </defs>
    <g transform="translate(9801.75 3588.45)">
        <g transform="matrix(13.6677 0 0 13.6677-9801.75-3588.45)">
            <path
                d="M172.17427,11.948194c-1.23182-12.184399-13.62362-11.947802-19.83-11.947802L0.008583,0.000394c.0326,30.679992-.0826,61.54807.0857,92.2278.17,26.329996,13.11485,48.346876,32.92934,61.041276s51.42066,27.85872,51.42066,27.85872c11.75534-7.23836,44.587307-27.08947,44.589997-27.07c22.56-14.03,34.58-35.4,34.77-61.819996.13534-22.23968.09-44.480013.09-66.719998c6.23-3.22,9.02-7.78,8.28-13.57Z"
                fill="#5bba47" />
            <path
                d="M159.64427,22.888194c-.0111,23.106735.0512,46.21354-.09,69.32-.18,25.229996-11.21,44.829996-32.76,58.239996-8.47,5.27-17.12,10.41-25.49,15.39l-4.309997,2.57-12.96,7.98c-16.92509-8.28398-32.39086-16.27499-47.61-26.06s-31.91-32.96-32.07-58.129996c-.13224-29.29302-.06-58.586532-.06-87.879802L153.68427,4.318194c3.64062,0,13.81125,2.102252,14.28,8.16s-3.96044,8.154838-8.32,10.41Z" />
            <path
                d="M84.024273,12.098194c-4.29946,2.398675-7.7359,6.014298-9.66,9.94h-52.54c.0157,23.370102-.1243,46.74027.06,70.11-.21045,24.883556,14.52368,39.371706,34.05,49.509996c1.00292,7.01694,4.75099,13.85614,6.48742,15.98355-8.74361-5.18371-9.0726-5.6242-21.81742-13.71355s-28.47-29.38-28.61-51.779996c-.19351-26.68306-.06-53.366272-.06-80.05c24.02986.04302,48.05993.01153,72.09,0Z"
                fill="#5bba47" />
            <path id="eMTpJzO3C2c7"
                d="M43.234273,100.24819c-.89532,0-2.95-4.449996-3.81-6.889996-.94-2.65-1.81807-5.37693.5125-7.7075c3.52031.94327,4.19282,14.597496,3.2975,14.597496ZM160.36427,13.468194c.13,1.01-3.63,1.71-8.37,5.22c0,0,.03,55.66-.1,73.46-.0971,13.615176-3.74661,25.382346-10.88606,35.196526-4.6275,6.36116-10.72116,11.90184-18.26394,16.59347-8.39,5.22-37.899997,22.72-37.899997,22.72-2.589829,1.58073-9.697951-1.83656-15.497695-8.051-4.14333-4.43958-7.618909-10.30673-8.302305-16.799-.699714-6.6689,1.01552-12.15735,4.180209-16.84178c3.886582-5.75298,9.959307-10.2933,16.429791-14.31822c5.249935-3.26569,10.506234-7.7983,13.713208-13.044149c3.963994-6.484149,4.796969-14.057985-1.383208-21.675847-1.12625,10.25625-10.36,14.05-17.17,13.91c5.7675-2.67625,9.47757-7.3501,8.17-12.23-3.20375,4.90875-8.28,5.61-13.48,5.61-3.1,0-6.2,2.3-9.98,3.84c1.46.92,1.97,1.22,2.45,1.56c3.7,2.56,4.96,6.56,3.23,10.25-1.61,3.439996-5.5,5.139996-9.72,4.279996-5.15-1.05-8.9-4.069996-11.59-8.369996-2.5-3.99-1.81-7.14,2.01-9.89c1.59-1.15,3.31-2.13,4.97-3.19-1.69065-.9761-5.99404,1.30357-8.64404,1.71357-2.79.43-4.40697-.58607-6.03693-1.58666-3.87142-6.7055,18.06405-12.3946,19.18097-21.83691c0-3.96138,1.72-5.65,4.44-7.42c2.4-1.57,4.83-3.15,7.01-5c4.92445-4.924449,3.51225-11.337751,1.22-13.63c2.28576.612467,3.78612,1.632991,4.61,3.06.13-1.97.95-11.04,8.59-17.87c5.62-5.03,11.86-6.11,14.29-6.4-3.5177,1.195334-12.56003,5.710328-11.36,14.3c19.306887-12.928857,43.125687-15.501199,65.869997-15.09.65.02,8.14.12,8.32,1.53Zm-80.859997,47.32c-3.44-1.88-7.26-1.95-11.13.39-.69.41-1.74.23-3.04.36-2.74,3.08-5.92,6.64-9.1,10.2.18.24,9.59-4.39,15.17-4.04c3.50523-.77634,5.93038-4.25057,8.1-6.91Zm63.849997-31.38c-11.51119-6.645989-35.19462-4.135378-43.05,3.72c6.83194,0,14.99117.89095,19.81,6.96s3.06,12.32-3.14,15.87c3.33-7.34-.125-13.775-7.69-14.36s-13.859997,2.54-20.009997,6.43c2.46788-.661266,5.10833-1.447539,8.26808-1.23154-2.48866,1.282943-6.37337,4.63969-7.88186,7.78666c3.06076-1.36756,7.74301-1.1132,10.703777-2.99512-.32197,1.20159-2.809997,3.62-4.659997,4.83c2.56056,0,4.671637.40959,8.849997-.71c7.18287,10.67828,20.0665,6.66087,20.75,4.11c6.94,6.02,10.2,13.31,10.99,22.37-4.50836-3.11558-8.85884-6.02917-14.46-7.53c6.74,12.75,7.68,21.8,3.43,27.269996-1.22119-4.557556-4.21481-11.596696-8.97361-14.344196c3.15378,10.34639-1.3969,20.060906-8.27923,27.553606-15.904357,17.22486-8.432477,25.57032-2.38716,29.06059c12.65255-6.85512,22.79616-14.26632,29.37212-24.4509c4.77889-7.40135,7.67362-16.26738,8.27788-27.449096.2085-20.96284.08-41.9266.08-62.89ZM66.014273,109.27819c1.08-1.74.21-3.61-2-3.39-7.69487,1.86583-9.87-1.25-14.7-2.62-4.01-1.14-5.02-.28-4.96,3.83.13155,8.62978,2.0433,12.3833,5.15,15.49c0-2.1303.0632-3.40323,1.47-4.81c0,3.00594,3.06476,6.45607,3.69539,8.32107.89324-8.81328,6.43317-8.9551,11.34461-16.82107Z"
                fill="#fff" />
            <path id="eMTpJzO3C2c8"
                d="M35.41931,210.87133c-.64674-.64674-2.06612-4.45-2.92612-6.89-.94-2.65-1.78624-5.9308-.9901-7.30975c3.52031.94327,4.56296,14.84649,3.91622,14.19975Zm116.51128-86.38225c.13,1.01-3.63,1.71-8.37,5.22c0,0,.03,55.66-.1,73.46-.0941,13.20003-3.52735,24.66302-10.2427,34.29332-4.70073,6.74118-11.00968,12.58434-18.9073,17.49668-3.54269,2.20415-10.851,6.59778-18.113201,10.93888-9.936558,5.93974-19.786799,11.78112-19.786799,11.78112-2.350479,1.43464-8.42269-1.24761-13.860747-6.40141-4.834303-4.58161-9.167448-11.11644-9.939253-18.44859-.76884-7.32773,1.377989-13.23025,5.159647-18.20694c3.88672-5.11495,9.500366-9.25191,15.450353-12.95306c11.73914-7.30225,23.5101-20.93909,12.33-34.72-1.12625,10.25625-10.36,14.05-17.17,13.91c5.7675-2.67625,9.47757-7.3501,8.17-12.23-3.20375,4.90875-8.28,5.61-13.48,5.61-3.1,0-6.2,2.3-9.98,3.84c1.46.92,1.97,1.22,2.45,1.56c3.7,2.56,4.96,6.56,3.23,10.25-1.61,3.44-7.5,5.14-11.72,4.28-5.15-1.05-8.9-4.07-11.59-8.37-2.5-3.99-1.81-7.14,2.01-9.89c1.59-1.15,5.31-2.13,6.97-3.19-1.69065-.9761-5.99404,1.30357-8.64404,1.71357-2.79.43-4.40697-.58607-6.03693-1.58666-3.87142-6.7055,18.06405-12.3946,19.18097-21.83691c0-3.96138,1.72-5.65,4.44-7.42c2.4-1.57,4.83-3.15,7.01-5c4.92445-4.92445,3.51225-11.33775,1.22-13.63c2.28576.61247,3.78612,1.63299,4.61,3.06.13-1.97.95-11.04,8.59-17.87c5.62-5.03,11.86-6.11,14.29-6.4-3.5177,1.19533-12.56003,5.71033-11.36,14.3c19.30689-12.92886,43.12569-15.5012,65.87-15.09.65.02,8.14.12,8.32,1.53Zm-80.86,47.32c-3.44-1.88-7.26-1.95-11.13.39-.69.41-1.74.23-3.04.36-2.74,3.08-3.92,6.64-7.1,10.2.18.24,7.59-4.39,13.17-4.04c3.505233-.77634,5.930378-4.25057,8.1-6.91Zm63.85-31.38c-11.51119-6.64599-35.19462-4.13538-43.05,3.72c6.83194,0,14.99117.89095,19.81,6.96s3.06,12.32-3.14,15.87c3.33-7.34-.125-13.775-7.69-14.36s-13.86,2.54-20.01,6.43c2.46788-.66127,5.10833-1.44754,8.26808-1.23154-2.48866,1.28294-6.37337,4.63969-7.88186,7.78666c3.06076-1.36756,7.74301-1.1132,10.70378-2.99512-.32197,1.20159-2.81,3.62-4.66,4.83c2.56056,0,4.67164.40959,8.85-.71c7.18287,10.67828,20.0665,6.66087,20.75,4.11c6.94,6.02,10.2,13.31,10.99,22.37-4.50836-3.11558-8.85884-6.02917-14.46-7.53c6.74,12.75,7.68,21.8,3.43,27.27-1.22119-4.55756-4.21481-11.5967-8.97361-14.3442c3.15378,10.34639-1.3969,20.06091-8.27923,27.55361-15.90436,17.22486-8.43248,25.57032-2.38716,29.06059c12.72087-6.89213,22.90562-14.34636,29.47833-24.61612c4.71556-7.368,7.5719-16.18524,8.17167-27.28388.2085-20.96284.08-41.9266.08-62.89Zm-77.34,79.87c1.08-1.74.21-3.61-2-3.39-7.69487,1.86583-9.87-1.25-14.7-2.62-4.01-1.14-5.02-.28-4.96,3.83.13155,8.62978,2.0433,12.3833,5.15,15.49c0-2.1303.0632-3.40323,1.47-4.81c0,3.00594,3.06476,6.45607,3.69539,8.32107.89324-8.81328,6.43317-8.9551,11.34461-16.82107Z"
                transform="translate(8.433675-111.175882)" opacity="0" fill="#fff" />
            <path id="eMTpJzO3C2c9"
                d="M35.41931,210.87133c-.64674-.64674-2.06612-4.45-2.92612-6.89-.94-2.65-1.78624-5.9308-.9901-7.30975c3.52031.94327,4.56296,14.84649,3.91622,14.19975Zm116.51128-86.38225c.13,1.01-3.63,1.71-8.37,5.22c0,0,.03,55.66-.1,73.46-.0833,11.67734-2.7797,21.99528-8.04987,30.8876-4.85735,8.19579-11.90103,15.18054-21.10013,20.9024-8.39,5.22-37.9,22.72-37.9,22.72-2.894713,1.76682-11.434153-2.71042-17.482087-10.35845-3.228575-4.08276-5.747131-9.06912-6.317913-14.49155-.846032-8.06344,1.838466-14.40111,6.346831-19.67843c3.799501-4.44755,8.894416-8.14197,14.263169-11.48157c6.522654-4.05737,13.055131-10.07041,15.654961-16.97719c2.079211-5.5237,1.643106-11.61903-3.324961-17.74281-1.12625,10.25625-10.36,14.05-17.17,13.91c5.7675-2.67625,9.47757-7.3501,8.17-12.23-3.20375,4.90875-8.28,5.61-13.48,5.61-3.1,0-6.2,2.3-9.98,3.84c1.46.92,1.97,1.22,2.45,1.56c3.7,2.56,4.96,6.56,3.23,10.25-1.61,3.44-9.5,5.14-13.72,4.28-5.15-1.05-8.9-4.07-11.59-8.37-2.5-3.99-.695001-7.94,2.01-9.89s5.730765-2.94158,6.97-3.19c-1.9719-.19485-3.286933.19872-5.936933.60872-2.79.43-5.114077.51878-6.744037-.48181-3.87142-6.7055,18.06405-12.3946,19.18097-21.83691c0-3.96138,1.72-5.65,4.44-7.42c2.4-1.57,4.83-3.15,7.01-5c4.92445-4.92445,3.51225-11.33775,1.22-13.63c2.28576.61247,3.78612,1.63299,4.61,3.06.13-1.97.95-11.04,8.59-17.87c5.62-5.03,11.86-6.11,14.29-6.4-3.5177,1.19533-12.56003,5.71033-11.36,14.3c19.30689-12.92886,43.12569-15.5012,65.87-15.09.65.02,8.14.12,8.32,1.53Zm-80.86,47.32c-3.44-1.88-7.26-1.95-11.13.39-.69.41-1.74.23-3.04.36-2.74,3.08-3.92,6.64-7.1,10.2.18.24,7.59-4.39,13.17-4.04c3.505233-.77634,5.930378-4.25057,8.1-6.91Zm63.85-31.38c-11.51119-6.64599-35.19462-4.13538-43.05,3.72c6.83194,0,14.99117.89095,19.81,6.96s3.06,12.32-3.14,15.87c3.33-7.34-.125-13.775-7.69-14.36s-13.86,2.54-20.01,6.43c2.46788-.66127,5.10833-1.44754,8.26808-1.23154-2.48866,1.28294-6.37337,4.63969-7.88186,7.78666c3.06076-1.36756,7.74301-1.1132,10.70378-2.99512-.32197,1.20159-2.81,3.62-4.66,4.83c2.56056,0,4.67164.40959,8.85-.71c7.18287,10.67828,20.0665,6.66087,20.75,4.11c6.94,6.02,10.2,13.31,10.99,22.37-4.50836-3.11558-8.85884-6.02917-14.46-7.53c6.74,12.75,7.68,21.8,3.43,27.27-1.22119-4.55756-4.21481-11.5967-8.97361-14.3442c3.15378,10.34639-1.3969,20.06091-8.27923,27.55361-15.90436,17.22486-8.43248,25.57032-2.38716,29.06059c12.78099-6.9247,23.00183-14.41683,29.57127-24.76191c4.66016-7.33847,7.48291-16.11256,8.07873-27.13809.2085-20.96284.08-41.9266.08-62.89Zm-77.34,79.87c1.08-1.74.21-3.61-2-3.39-7.69487,1.86583-9.87.75-14.7-.62-4.01-1.14-5.02-2.28-4.96,1.83.13155,8.62978,2.0433,12.3833,5.15,15.49c0-2.1303.0632-3.40323,1.47-4.81c0,3.00594,3.06476,6.45607,3.69539,8.32107.89324-8.81328,6.43317-8.9551,11.34461-16.82107Z"
                transform="translate(8.433675-111.151483)" opacity="0" fill="#fff" />
            <path id="eMTpJzO3C2c10"
                d="M151.93059,124.48908c.13,1.01-3.63,1.71-8.37,5.22c0,0,.008,15.56338-.003,32.86258-.0101,15.41571-.0358,32.20982-.0971,40.59742-.0839,11.76707-2.8213,22.15378-8.17182,31.09235-4.85301,8.10742-11.85578,15.0235-20.97818,20.69765-3.60292,2.24163-11.10061,6.74782-18.48357,11.16025-9.809474,5.86264-19.41643,11.55975-19.41643,11.55975-2.662165,1.62488-10.098544-2.03136-15.980477-8.57822-3.928047-4.37209-7.162845-10.03334-7.819523-16.27178-.826763-7.87979,1.718017-14.11153,6.041651-19.3162c3.829507-4.60984,9.054507-8.41395,14.568349-11.8438c5.470429-3.40284,10.947768-8.18127,14.106284-13.70885c3.619428-6.3342,4.193899-13.65213-1.776284-21.01115-1.12625,10.25625-10.36,14.05-17.17,13.91c5.7675-2.67625,9.47757-7.3501,8.17-12.23-3.20375,4.90875-7.307728,6.58227-12.507728,6.58227-3.1,0-8.982272,4.08773-8.502272,4.42773c3.7,2.56,4.96,6.56,3.23,10.25-1.61,3.44-4.611893,5.18663-10.917461,5.18663s-12.1601-3.3223-13.726486-6.64903-3.249759-8.14293-2.328058-11.58277s8.302584-3.71974,10.642005-4.12483c-3.206309-1.54639-10.493478-.28895-12.665345-2.31063-1.6535-6.17095,18.048425-9.9571,19.165345-19.39941c0-3.96138,1.72-5.65,4.44-7.42c2.4-1.57,4.83-3.15,7.01-5c4.92445-4.92445,3.51225-11.33775,1.22-13.63c2.28576.61247,3.78612,1.63299,4.61,3.06.13-1.97.95-11.04,8.59-17.87c5.62-5.03,11.86-6.11,14.29-6.4-3.5177,1.19533-12.56003,5.71033-11.36,14.3c19.30689-12.92886,43.12569-15.5012,65.87-15.09.65.02,8.14.12,8.32,1.53Zm-80.86,47.32c-4.823371-2.54593-8.563978-1.1209-11.13.39-.475462.39017-2.318583.26025-3.04.36-2.535911,2.75429-3.350397,5.82171-7.1,10.2.18.24,7.249454-4.32125,13.17-4.04c3.50795-.7864,5.924412-4.23665,8.1-6.91Zm63.85-31.38c-11.51119-6.64599-35.19462-4.13538-43.05,3.72c6.83194,0,14.99117.89095,19.81,6.96s3.06,12.32-3.14,15.87c3.33-7.34-.125-13.775-7.69-14.36s-13.86,2.54-20.01,6.43c2.46788-.66127,5.10833-1.44754,8.26808-1.23154-2.48866,1.28294-6.37337,4.63969-7.88186,7.78666c3.06076-1.36756,7.74301-1.1132,10.70378-2.99512-.32197,1.20159-2.81,3.62-4.66,4.83c2.56056,0,4.67164.40959,8.85-.71c7.18287,10.67828,20.0665,6.66087,20.75,4.11c6.94,6.02,10.2,13.31,10.99,22.37-4.50836-3.11558-8.85884-6.02917-14.46-7.53c6.74,12.75,7.68,21.8,3.43,27.27-1.22119-4.55756-4.21481-11.5967-8.97361-14.3442c3.15378,10.34639-1.3969,20.06091-8.27923,27.55361-5.745396,6.22242-8.440214,11.28609-9.253715,15.38072-1.438427,7.24008,3.005086,11.45045,6.866555,13.67987c7.24121-3.92327,13.66063-8.02867,19.05981-12.73186c4.74609-4.13429,8.70383-8.73048,11.73842-14.07092c3.92877-6.91407,6.3102-15.07559,6.85177-25.09722.12454-12.52156.12884-25.04345.11211-37.5654-.0113-8.44153-.0321-16.8831-.0321-25.3246Zm-77.34,79.87c1.08-1.74.21-3.61-2-3.39-5.572407,1.35118-9.805888,1.65331-14.7.0675s-5.02-2.9675-4.96,1.1425c.13155,8.62978,2.0433,12.3833,5.15,15.49c0-2.1303.0632-3.40323,1.47-4.81c0,3.00594,3.06476,6.45607,3.69539,8.32107.89324-8.81328,6.43317-8.9551,11.34461-16.82107Z"
                transform="translate(8.28253-111.171869)" opacity="0" fill="#fff" />
            <path id="eMTpJzO3C2c11"
                d="M265.90307,-523.58423c2.57751-5.40339,9.46958-7.51467,12.4375-8.03125-18.84463,0-26.35742,8.65974-26.35742,20.43946-.59333-1.53723-1.91651-2.77781-4.08008-3.73633c1.91026,2.61911,2.31413,9.17351-3.3125,13.27734-2.43982,1.49069-5.08534,2.67737-7.69922,3.85742-2.96096,1.32817-4.92071,2.73079-5.5332,6.64453-2.56342,9.15607-22.61504,9.84879-21.93555,16.20118c1.83317,2.33319,9.2276,2.21863,12.15625,4.24218-2.37392.0385-9.70987-.82627-11.15234,2.42969s-.52342,8.27383.50976,11.80274s6.30347,7.71647,12.53321,8.6914s9.46537-.28585,11.58789-3.43555c2.27973-3.37814,1.65422-7.52566-1.60547-10.62695-.42165-.41011,6.02126-3.5379,9.08398-3.05859c5.13747.80401,9.45081-.21593,13.375-4.57031.53734,5.0234-3.85095,9.068-9.96289,10.82031c6.70564,1.1911,16.41534-1.12833,19.11524-11.08399c3.89648,13.5245-3.84268,18.78955-11.37913,24.38665-5.96454,4.42969-11.80212,9.06736-11.64431,18.17195-7.02342,6.37888-10.91631,13.80337-9.91797,23.31836.36882,3.50382,1.55096,6.82554,3.21243,9.83904c2.45452,4.45188,5.95518,8.23107,9.42523,10.9309c4.62558,3.59888,9.19677,5.27985,11.16312,4.07967c0,0,29.51039-17.49875,37.90039-22.71875c19.17999-11.93,28.98844-29.35102,29.14844-51.79102.13-17.8.10156-73.45898.10156-73.45898c4.74-3.51,8.49914-4.21071,8.36914-5.22071-.18-1.41-7.67032-1.50929-8.32031-1.52929-32.17303-.58166-48.36179,5.76936-57.21875,10.1289Zm31.92188,3.52539c6.26369.11785,12.29072,1.32221,16.60742,3.81446c0,20.9634.12844,41.92778-.0801,62.89062-1.43149,26.48951-15.79631,40.05992-37.65039,51.90039-6.04532-3.49027-13.51764-11.83569,2.38672-29.06055c6.88141-7.49169,11.43255-17.20594,8.28125-27.55078.0002-.001-.00021-.003,0-.004c4.27676,3.45024,6.20517,23.60464,4.32617,30.61718c5.04465-4.7471,17.22642-28.57436,1.07813-39.22265c5.30175,2.34881,11.48363,3.56469,13.12109,9.67578.62031-9.07321-1.47268-16.78015-7.39844-23.80078-1.06969,2.41451-14.41977,4.39093-19.86523-7.26953-4.30122.46008-6.32375-.27011-8.85352-.66602c2.01484-.90941,4.84768-2.91342,5.35156-4.05078-3.21614,1.40153-7.80367.42483-11.03906,1.30273c1.97692-2.8759,6.33509-5.58992,8.99219-6.47265-3.08836-.70191-5.81894-.33425-8.35938-.0625c6.67749-2.89234,13.3801-5.0074,20.76368-3.25977s9.80178,8.64009,5.37695,15.37696c6.67433-2.5487,9.37719-8.45223,5.55469-15.19336s-11.74435-8.88313-18.49414-9.93946c8.86213-4.35685,24.11544,2.07334,30.58203-1.66015-6.16245,0-13.47849-4.04703-22.38672-6.33594c3.7535-.73337,7.77131-1.10331,11.70508-1.0293Zm-50.36294,30.6647c1.54919.22997,3.37412.64936,5.63442,2.47202-2.64994,2.21635-5.73295,5.13262-9.26506,5.24564-5.49785-1.37261-13.48658,1.69073-13.69762,1.46485c2.70167-1.88266,6.15567-6.56568,8.9082-8.66568c1.02156.079,2.3552.50814,3.05304.22399.85403-.28484,3.53907-1.01217,5.36702-.74082Zm-35.43199,40.20249c-.44489.0706-.56822.80733-.82031,2.58789-1.20433,8.54634.10436,12.54993,2.69336,16.09961.32937-2.10468.58792-3.3511,2.19531-4.52344-.46476,2.96979,2.03054,6.85095,2.36524,8.79102c2.24517-8.56919,7.74001-7.85129,13.80859-14.86328c1.33604-1.55209.76626-3.53582-1.45117-3.66016-5.71432.47335-9.94509.11836-14.53516-2.20508-2.29504-1.16173-3.41949-2.08895-4.04296-2.21679-.0779-.016-.14934-.0199-.2129-.01v.00023Z"
                transform="translate(-171.325193 545.437384)" opacity="0" fill="#fff" />
            <path id="eMTpJzO3C2c12"
                d="M13.615919,-8812.148469c-12.952137,0-26.023965,1.753217-38.210772,5.82377-4.474737,1.494635-8.309982,3.714862-10.805829,6.488556-2.376352,2.421571-4.025426,5.551769-5.003013,9.200171-.175456-1.640324-1.133589-3.182931-2.977513-4.67049c1.168672,3.027822-.139207,9.470971-6.643882,11.981629-2.74572.809369-5.611585,1.271412-8.445139,1.735271-3.207587.517186-5.4662,1.36578-7.072649,4.99187-4.851519,8.190191-24.422113,3.664276-25.411046,9.983477c1.168187,2.731333,8.34871,4.53661,10.656536,7.252355-2.305695-.577896-9.175915-3.315089-11.414551-.540172s-2.650117,7.865646-2.565403,11.546022s4.096337,9.095613,9.868238,11.65269s9.227617,2.17624,12.096367-.319709c3.079983-2.676117,3.549809-6.849104,1.201127-10.69288-.301489-.50584,6.739673-1.861094,9.577297-.603951c4.759904,2.108754,9.195458,2.240085,14.118686-.95398-.782041,4.997129-6.073819,7.771387-12.438486,7.88223c6.17611,2.889445,16.166921,3.162406,21.357625-5.76566.26362,14.088596-5.251157,18.802941-13.13692,24.278397-6.109807,4.242326-11.437366,11.989753-13.643966,20.835295c2.541861-2.895707,5.772074-4.696655,9.340032-5.989148-8.202758,6.414398-14.181986,14.402351-12.975059,25.905258c1.641936,15.598233,19.383461,27.591846,23.828659,24.878679c0,0,29.545007-17.519187,37.94485-22.745306c19.2025-11.943941,29.022423-29.385417,29.182608-51.85166.130159-17.820833.101716-73.544837.101716-73.544837c4.745564-3.514104,8.509106-4.21564,8.378968-5.226822-.180226-1.411642-7.679312-1.511036-8.330066-1.531055-2.846382-.051071-5.709362-.056074-8.578415,0Zm-16.749652,13.670049c6.271043.117978,12.306643,1.323896,16.628407,3.819054c0,20.987928.12857,41.976822-.080181,62.964149-1.437445,26.599388-15.821519,40.110498-37.694557,51.96114-6.052421-3.494282-13.533489-11.849536,2.389536-29.09448c2.660093-2.896001,4.964626-6.126406,6.619392-9.594069c1.540487,5.991734,2.214255,12.551131.238287,15.973606c6.108555-3.283526,15.402038-20.099463,2.544923-34.58132c5.537721,3.197193,13.1841,7.215869,14.786345,13.195517c0-15.942357-1.680741-17.04749-5.592088-25.372322-1.660113,2.057786-15.082593.509773-17.327179-12.177561-4.278753-.669628-6.04543-1.899828-8.389266-2.938215c2.184118-.357346,5.442937-1.5613,6.22492-2.530641-3.473358.521992-7.656704-1.61125-11.013001-1.600629c2.657013-2.268887,7.574902-3.764218,10.373202-3.929362-2.804734-1.479055-5.540635-1.831046-8.067815-2.226534c7.207002-1.066764,14.236875-1.375347,20.924391,2.22797s7.240027,10.895271,1.215283,16.263642c7.114907-.735268,11.25846-5.743935,9.308653-13.253473s-9.055637-11.633711-15.309365-14.404248c9.699155-1.916947,18.054837,14.378222,25.275834,12.443372-5.959456-1.596835-6.961257-15.823882-15.278518-18.052474c3.397462-1.96152,7.285083-.292343,8.921339,1.343908-2.029818-4.159157-7.297734-8.089603-13.398146-10.150671c2.219867-.223422,4.472917-.328251,6.699604-.286359Zm-55.563238,26.053297c.967439.341099,2.146008,1.100291,2.8945,1.006332.674787-.040617,2.411473-.054352,3.953034.251499l.000038-.000037c.513867.101929,1.004792.239383,1.429119.423462c1.43857.623832,3.09486,1.502972,4.808407,3.851277-3.136943,1.45667-6.874218,3.47641-10.319261,2.670477-4.96108-2.752012-13.480057-1.859585-13.625608-2.1327c3.100506-1.120581,7.653773-4.752743,10.859771-6.07031Zm-31.87505,38.306731c-.079491-.004249-.15101.00082-.212471.020063l.000227.001926c-.429967.136012-.442557.883777-.427479,2.684146.077989,8.640528,1.968802,12.409852,5.059755,15.539427.013237-2.132714.083979-3.405224,1.501153-4.804832-.018702,3.009386,5.199406,6.946234,5.819171,8.817282.949124-8.81786,4.32548-9.389003,9.29154-17.233443c1.092078-1.735271.233055-3.614641-1.980832-3.408118-5.587238,1.31805-9.828808,1.595472-14.718701-.022598-2.444985-.809039-3.696086-1.559975-4.332363-1.593853Zm-.212471.020063v-.000044l-.000076.000044c.000023-.000007.000053.000007.000076,0Z"
                transform="translate(129.663106 8823.808112)" opacity="0" fill="#fff"
                stroke-width="13.6677" />
            <path id="eMTpJzO3C2c13"
                d="M59268.117541,8655.558523c-12.952067,0-26.02383,1.753201-38.210566,5.823761-6.709882,2.241207-12.05514,6.084233-13.456123,11.037816-.328622-.509284-2.50546-2.190874-3.089928-4.372125.071108,5.036087,1.600548,13.686074-5.332273,14.427644-2.861621.071147-5.749367-.224276-8.606415-.509601-3.232124-.330618-5.633431-.095528-8.123638,2.991223-6.805953,6.655427-24.538209-2.781483-27.128964,3.066421.421456,2.940619,6.890047,6.542863,8.416328,9.763381-2.07755-1.154964-8.005221-5.577037-10.885758-3.476074s-4.595548,6.911719-5.466272,10.488612c-.596426,2.450207.408122,6.154975,2.659382,9.525346.590767,2.511236,1.89161,7.670693,2.375027,6.574628.204119-.462776.411513-1.672007.614314-3.086403.289085.265848.558731.547219.867255.796127c4.913394,3.963813,8.349928,4.490333,11.766908,2.821912c3.667651-1.787768,5.20149-5.696907,3.927684-10.01758-.16028-.566638,6.9917-.053356,9.407251,1.895371c4.051896,3.268834,8.302271,4.543669,13.884402,2.732663.692129,9.009833-7.667103,6.105882-14.054624,4.394358c5.480517,3.164178,15.342055,11.701797,22.122019-.041455c5.338939,9.247326-5.275002,16.618217-15.174294,22.22167-16.614912,9.404816-14.129415,28.164522-12.643427,33.710336c2.056754-7.675945,10.932039-16.474159,17.05852-17.023781-8.448171,6.477007-14.685025,14.55057-13.454709,26.276515c1.641926,15.598203,19.383388,27.591798,23.82856,24.878632c0,0,29.544845-17.519156,37.944641-22.745264c19.202391-11.943922,29.022279-29.38538,29.182462-51.851579.130162-17.8208.101711-73.544689.101711-73.544689c4.745536-3.5141,8.509065-4.2156,8.378922-5.226777-.180222-1.411644-7.679312-1.511067-8.330063-1.531088-2.846368-.051068-5.709288-.056069-8.578332,0Zm-16.74957,13.67002c6.271023.117983,12.306588,1.323891,16.628323,3.819051c0,20.987895.128573,41.976788-.080178,62.964072-1.437439,26.599342-15.821421,40.110381-37.694338,51.961004-6.052387-3.494273-13.533414-11.849518,2.389523-29.094435c1.537348-1.673693,2.931509-3.473283,4.176709-5.350843.01971-.009497.033413-.014904.053162-.02442c4.136997,7.165512-.679299,13.118441-5.938079,18.377225c17.792182-4.767402,23.164766-18.588244,17.261146-28.813626c6.510531,1.744491,9.479445,6.196973,9.479426,12.38755c3.085121-13.301202-1.450037-23.578409-13.306465-27.928482-2.136119,1.557989-14.700491-3.411226-13.584871-16.247171-3.959624-1.75422-5.347699-3.399752-7.342919-5.009391c2.202188.220128,5.661553-.099346,6.667768-.833261-3.490084-.394768-6.978734-3.538054-10.223398-4.396471c3.15369-1.503877,8.290972-1.675398,11.036638-1.110678-2.326342-2.154571-4.877908-3.202649-7.216615-4.238731c7.237488.834889,14.107689,2.356229,19.6347,7.567607s4.173414,12.39786-3.035448,16.024c7.06273,1.131242,12.361397-2.634324,12.421652-10.3926s-5.736034-13.581061-11.059585-17.875783c9.864775.658697,13.71823,18.561207,21.193908,18.561226-5.343067-3.084832-2.628547-17.086362-10.085542-21.391665c3.789344-1.015364,7.112501,1.603126,8.269499,3.607108-1.536088-7.892256-12.66901-17.676399-23.518215-17.676401c4.939442-3.394539,11.97157-1.775301,14.803674-.737495-2.595077-1.498255-5.111157-2.778037-7.548686-3.87091c2.193428-.217556,4.41895-.317858,6.618211-.27648Zm.930475,4.14739c.000155.000088.00031.000142.000465.000227l-.000039-.000112c-.000116-.000043-.00031-.000072-.000426-.000115Zm-55.467197,17.383531c.846188.579876,1.788116,1.618264,2.535423,1.721234.662301.135395,2.343377.571619,3.753256,1.266036v-.000039c.469986.231446.908574.491285,1.270802.778917c1.228087.974915,2.600445,2.252792,3.647806,4.964563-3.407037.595147-7.539751,1.578765-10.658789-.091342-4.079746-3.942261-12.539371-5.285103-12.609278-5.586573c3.284861-.279937,8.623025-2.609885,12.06078-3.052796Zm-34.235204,34.621276c-.404168-.035254-.12144,1.861202.284356,3.853225-1.107906-.274355-1.849379-.495181-2.253857-.457078-.079268.007442-.14931.022966-.207278.05103l.000523.00186c-.40537.197569-.308214.939042-.029343,2.71774c1.343888,8.535719,3.766843,11.98716,7.283188,14.62976-1.12564-1.949656-.342731-4.324452.780544-4.972974.422696,2.979614,5.0021,6.654497,5.725025,9.044874-3.065817-11.441763,4.22613-11.097714,7.988476-19.585427.825877-1.87663-.299395-3.609705-2.459061-3.08086-5.029369,2.00183-9.011552,2.911296-13.703889,2.267774-1.286442-1.883761-2.666029-3.906968-3.261293-4.395521-.056824-.04665-.105742-.070779-.147391-.074403Zm-2.176779,3.447177l-.000039-.000117v.000117h.000039Z"
                transform="translate(-59124.989051-8643.899895)" opacity="0" fill="#fff"
                stroke-width="51.6576" />
            <path id="eMTpJzO3C2c14"
                d="M59132.799952,8655.558521c-12.952074.000004-26.023843,1.75321-38.210585,5.823778-1.085271.362495-2.117071.781619-3.120032,1.225844-7.211842,2.068006-13.237341,6.459259-13.237341,11.34658-1.26908,0-7.047996-4.887891-3.233352-11.495042-11.411623,6.588512.777057,15.991076-4.962225,16.60498-2.861627.071148-5.749379-.224293-8.606432-.509619-3.232132-.330619-5.633443-.095511-8.123655,2.991249-6.805967,6.655441-24.538259-2.781458-27.129019,3.066463.421457,2.940628,6.890061,6.542843,8.416345,9.76337-2.077554-1.154967-8.005237-5.577053-10.88578-3.476084s-4.595558,6.91174-5.466283,10.488643c-.60416,2.481979.433299,6.251393,2.74728,9.656194-.156753.998292-.292826,2.317067-.135124,3.361795.290346,1.923421,2.015768,6.887456,2.568569,6.334654.424054-.424055-.219217-3.824437.409111-6.393087.307284.285035.59668.584373.926155.850183c4.913404,3.963824,8.349945,4.490345,11.766932,2.82192c3.667658-1.787774,5.201501-5.696944,3.927692-10.017629-.16028-.56664,6.991675-.053337,9.407231,1.895395c4.051904,3.268844,8.302327,4.543682,13.884469,2.732671c3.825496,14.276935-3.855382,13.292714-10.83194,11.423347c5.480528,3.164187,18.899351,10.992741,18.899351-7.070431c5.33895,9.247353-6.153471,22.393412-16.052783,27.996881-16.614945,9.404843-14.920086,26.952172-9.835646,35.758707c0-10.556322,7.745088-15.946911,16.525793-20.443013-7.792144,6.307714-13.344595,14.152935-12.17676,25.283397c1.641929,15.598248,19.383446,27.591859,23.828628,24.878685c0,0,29.544885-17.519188,37.944698-22.745311c19.202429-11.943956,29.022338-29.385466,29.182521-51.85173.130162-17.820852.101711-73.544906.101711-73.544906c4.745546-3.514109,8.509082-4.215611,8.378939-5.226791-.180222-1.411648-7.679328-1.511072-8.33008-1.531093-2.846355-.051068-5.709319-.056067-8.578349,0h-.000039Zm-16.749545,13.67006c6.271015.117983,12.306592,1.323895,16.628337,3.819063c0,20.987938.128573,41.976911-.080179,62.964257-1.437442,26.59942-15.821453,40.110498-37.694413,51.961155-6.0524-3.494283-13.533442-11.849552,2.389527-29.09452c1.535955-1.672186,2.928821-3.470153,4.17321-5.345878.019652-.011299.036959-.018043.056669-.0294c2.652275,9.898436-1.296038,16.500623-6.554829,21.759423c26.423516-8.605264,23.942839-26.8674,15.203357-35.606896c6.510544,1.744496,13.044714,3.578822,13.044695,9.769417c3.085127-13.301241-1.667842-21.236526-16.871742-25.310395-2.136123,1.557994-14.70052-3.411235-13.584898-16.247218-3.959632-1.754225-5.347711-3.399762-7.342934-5.009406c2.202192.220129,5.661564-.099346,6.667781-.833263-3.490091-.39477-6.978748-3.538064-10.223419-4.396484c3.153697-1.503882,8.290989-1.675403,11.036661-1.110682-2.326347-2.154576-4.877918-3.202658-7.216629-4.238742c7.237502.834891,14.107717,2.356235,19.634739,7.567629s4.173423,12.397896-3.035454,16.024046c7.062745,1.131245,12.361421-2.634332,12.421677-10.39263s-5.736046-13.581063-11.059608-17.875797c9.864795.6587,19.58371,19.657563,27.059403,19.657582-5.343078-3.084841-8.494004-18.182752-15.951014-22.488068c3.789352-1.015366,10.78531,1.603132,11.94231,3.607119-1.432577-7.360391-14.404361-16.358835-24.946808-17.539273c4.455743-1.122415,9.44202-1.702505,14.303561-1.611039Zm-57.211415,18.119944c.846189.579877,1.78812,1.618268,2.535428,1.721239.662303.135395,2.343382.571621,3.753264,1.266039v-.000038c.469986.231446.908576.491267,1.270805.778899c1.228089.974919,2.600411,2.252819,3.647774,4.964597-3.407044.595149-7.539728,1.57877-10.658772-.091342-4.079755-3.942273-12.539396-5.285119-12.609303-5.586589c3.284867-.279938,8.623042-2.609892,12.060804-3.052805Zm-13.045101,35.912553c-.412736-.022405-.877199.078803-1.371779.332538-4.381554,3.079841-8.013533,4.882111-12.655372,5.366925-2.127925-1.311565-3.990525-3.617662-4.541911-3.579617-.505725.034924.414828,1.963752,1.467501,3.720652-1.297259-.003547-2.142169-.06512-2.556164.075663-.075392.025621-.162897.156191-.189836.09766l.000988.001706c-.348546.28614-.082213.984958.601273,2.650612c3.28539,7.991935,5.724417,12.991049,9.757444,14.746844-1.768332-1.768334-3.128657-5.227906.324669-7.221679-.488011,5.102899,5.050407,5.673687,6.492597,11.056058-3.647696-13.613448,2.711929-15.359087,4.404908-24.487674.276371-1.512701-.49617-2.692514-1.734318-2.759688Z"
                transform="translate(-58989.596304-8643.836567)" opacity="0" fill="#fff"
                stroke-width="51.6576" />
            <path id="eMTpJzO3C2c15"
                d="M59022.975127,8655.558521c-7.958322.000002-15.960136.669435-23.775756,2.124104-14.584725,1.459732-34.552891,7.289377-34.552891,15.33447-1.269087,0-3.205811-5.287017.608854-11.894168-7.930724,4.578786-7.96811,11.835506-7.214771,14.646978-2.861643.071147-5.74947-.224293-8.606539-.509619-3.23215-.330619-5.633436-.095511-8.123662,2.991249-6.806006,6.65544-24.53838-2.781459-27.129154,3.066462.421459,2.940628,6.8901,6.542844,8.416393,9.763371-2.077566-1.154967-8.005283-5.577053-10.885842-3.476084s-4.595584,6.911739-5.466314,10.488643c-.606839,2.49291.44177,6.284786,2.77753,9.701235-.168557,1.014204-.333276,2.437345-.165417,3.549325.290346,1.923421,2.015837,6.887455,2.568641,6.334653.434483-.4345-.252302-3.994019.45714-6.581527.292439.269375.565712.554042.878095.806052c4.913432,3.963825,8.350032,4.490346,11.767037,2.82192c3.66768-1.787773,5.201531-5.696943,3.927715-10.017629-.160281-.566639,6.991714-.053336,9.407285,1.895396c4.051927,3.268844,8.302335,4.543682,13.884508,2.732671c5.104665,16.91274-4.979463,10.618147-12.111108,8.399923c6.218529,3.597234,17.19393,16.923302,20.178604-4.047007c8.943692,15.490878-6.201609,22.309279-16.052874,27.996881-21.582312,12.460516-13.425044,27.154935-8.340574,35.96147c3.545657-13.232517,10.670286-14.96019,20.263164-19.680781.017656-.008683.032443-.014071.050061-.022715-9.359569,6.7045-16.606493,15.075584-15.288624,27.635873c1.641939,15.598248,19.383538,27.591859,23.828745,24.878685c0,0,29.545073-17.519188,37.944933-22.745311c19.202539-11.943956,29.022484-29.385466,29.182668-51.85173.130163-17.820852.101673-73.544906.101673-73.544906c4.745573-3.514109,8.50913-4.215611,8.378987-5.226791-.180224-1.411648-7.679314-1.511072-8.33007-1.531093-2.84639-.051068-5.709351-.056067-8.578398,0h-.000039Zm-16.74966,13.67006c6.271052.117983,12.306682,1.323895,16.628451,3.819063c0,20.987938.128535,41.976911-.080218,62.964257-1.437449,26.59942-15.821523,40.110498-37.694608,51.961155-6.052434-3.494283-13.533558-11.849552,2.389503-29.09452.638197-.694786,1.231856-1.427637,1.825709-2.159344-.547126,6.885284-2.223369,11.150792-6.321345,15.248732c26.423666-8.605263,32.549399-18.26105,15.203482-35.606895c6.510582,1.744495,15.261801,5.548447,15.261781,11.739042c3.085145-13.301241-.0476-24.960318-19.08883-27.28002-2.136135,1.557993-14.700623-3.411236-13.584995-16.247218-3.959654-1.754225-5.347741-3.399762-7.342976-5.009406c2.202205.220129,5.661558-.099346,6.667781-.833263-3.490111-.39477-6.978749-3.538064-10.223438-4.396484c3.153715-1.503882,8.291036-1.675403,11.036723-1.110682-2.32636-2.154577-4.877926-3.202658-7.216651-4.238742c7.237543.834891,14.107759,2.356235,19.634812,7.567628s4.173427,12.397897-3.03549,16.024047c7.062784,1.131245,12.36153-2.634332,12.421786-10.39263s-5.736059-13.581063-11.059651-17.875797c16.410783,9.795892,17.504356,18.880601,27.553559,21.573269-5.343109-3.084841-8.617877-16.576558-16.445107-24.403755c5.526007,0,11.236405,2.513589,14.035467,5.312639-2.909301-5.039039-11.347458-12.98791-19.907503-16.954135c3.051306-.454027,6.225313-.665574,9.341758-.606941Zm-59.382392,14.825188c.846194.579877,1.788072,1.618268,2.535384,1.721239.662306.135395,2.343395.571621,3.753285,1.266039l.000039-.000039c.469989.231447.9086.491268,1.270831.7789c1.228097.974918,2.600426,2.252819,3.647795,4.964597-3.407063.595149-7.539771,1.57877-10.658832-.091342-4.079778-3.942273-12.539487-5.285119-12.609394-5.586589c3.284885-.279938,8.62311-2.609893,12.060892-3.052805Zm-10.726433,39.277254c-.383938-.019787-.825321.083532-1.319924.337267-4.120536,2.896362-7.577854,4.663224-11.835801,5.266765-2.454294-1.133144-4.739468-4.065245-5.360668-4.022374-.559006.038587.623525,2.389939,1.8022,4.266186-1.516544.011028-2.439583-.080702-2.891819.073066-.075373.025602-.16284.156055-.189799.09766l.00095.001667c-.348548.28614-.082175.984958.601315,2.650612c3.285409,7.991935,5.724411,12.99105,9.757461,14.746825-1.768342-1.768315-3.128675-5.227886.32467-7.22166-.488013,5.102899.540168,7.44051,3.70181,12.916627-3.647717-13.613448,7.195758-16.723679,7.195758-26.348243c0-1.53774-.634379-2.705034-1.786153-2.764398Z"
                transform="translate(-58879.75425-8643.887243)" opacity="0" fill="#fff"
                stroke-width="51.6576" />
            <path id="eMTpJzO3C2c16"
                d="M59022.97836,8819.558521c-11.971502,0-24.036091,1.523297-35.418744,4.964339-13.246397-4.622668-22.909615,1.172162-22.909615,9.315719-4.311397-1.15523-2.212329-9.417315,5.285035-11.426227-8.693069,2.329297-16.262937,7.108599-12.18506,14.171685-2.861629.071147-5.455258-.216949-8.312312-.502274-3.232133-.330618-5.633445-.095511-8.123658,2.991239-6.80597,6.65542-24.538269-2.781449-27.12903,3.066453.421457,2.940619,6.890103,6.542823,8.416387,9.76334-2.077555-1.154964-8.005279-5.577036-10.885823-3.476073s-4.59556,6.911718-5.466285,10.48861c-.623367,2.56087.492546,6.494312,2.965587,9.981103-.160222.737771-.593017,2.961492-.35343,4.548552.290345,1.923414,2.015768,6.887433,2.56857,6.334633.49117-.491169-.449637-4.974814.812815-7.534153.178828.156267.336588.32961.522451.47956c4.913406,3.963811,8.349949,4.490331,11.766937,2.821911c3.66766-1.787768,5.201503-5.696926,3.927694-10.017598-.16028-.566638,6.991716-.053336,9.407274,1.89539c4.051906,3.268834,8.302291,4.543668,13.884435,2.732662c5.171676,19.300912-6.564775,9.816463-13.809141,7.109752c7.905003,3.478379,21.876556,26.510804,21.876556-2.75685c8.943644,15.490829-.40291,21.994929-12.961731,29.423922-17.385749,10.284297-19.911235,15.569089-14.753979,34.816199c7.232641-12.527282,14.518598-12.437646,24.111425-17.158222.013993-.00688.025641-.01157.039595-.018431-9.608622,6.765877-17.146124,15.214496-15.804055,28.005494c1.64193,15.598199,19.383435,27.591772,23.828618,24.878607c0,0,29.544917-17.519133,37.944734-22.745239c19.202437-11.943919,29.02235-29.385373,29.182533-51.851567.130162-17.820796.101711-73.544673.101711-73.544673c4.745548-3.514098,8.509085-4.215598,8.378943-5.226775-.180223-1.411644-7.679332-1.511067-8.330084-1.531088-2.846375-.051068-5.709302-.056069-8.578353,0Zm-85.035913,57.708623c-.281255-.123747-.556483-.228074-.821459-.299086.261797.081439.545379.195941.821459.299086Zm68.286302-44.038606c6.271038.117983,12.306618,1.323891,16.628364,3.81905c0,20.987872.128573,41.976779-.080179,62.964058-1.437442,26.599336-15.821459,40.110372-37.694429,51.960991-6.052402-3.494272-13.533447-11.849514,2.389529-29.094427c1.960184-2.134027,3.72026-4.453334,5.178769-6.910904c2.511416,8.646944-9.674381,16.244357-9.674381,20.000251c5.441846-9.425551,48.238683-8.23076,15.203364-38.785264c6.510547,1.744491,15.261758,5.548449,15.261739,11.739024c3.085128-13.301199,1.49229-27.279933-19.088788-27.279933-2.136124,1.557988-14.700526-3.411225-13.584904-16.247167-3.959633-1.75422-5.347713-3.399751-7.342937-5.00939c2.202193.220128,5.661567-.099346,6.667784-.83326-3.490092-.394769-6.978751-3.538053-10.223423-4.39647c3.153698-1.503877,8.290993-1.675398,11.036665-1.110679-2.326347-2.15457-4.87792-3.202648-7.216632-4.238729c7.237505.834889,14.107723,2.356228,19.634748,7.567605s4.173424,12.397857-3.035456,16.023996c7.062748,1.131242,12.361427-2.634323,12.421682-10.392597.014671-1.891184-.323273-3.474755-.912918-4.856165c6.647473,6.742504,9.622751,9.882629,17.406739,11.732086-5.34308-3.084831-6.936016-24.823623-15.074597-26.376165c5.525978,0,12.19167,3.827119,14.990717,6.62616-2.491763-4.315845-9.942555-11.757767-17.829223-16.753914c1.64536-.114293,3.298182-.179006,4.937767-.148157Zm-59.382078,11.64668c.846189.579876,1.78812,1.618263,2.535428,1.721234.662303.135394,2.343383.571619,3.753266,1.266035v-.000039c.469987.231446.908576.491266,1.270805.778897c1.22809.974916,2.600451,2.252812,3.647814,4.964582-3.407045.595147-7.53973,1.578764-10.658776-.091342-4.079756-3.942261-12.53944-5.285102-12.609347-5.586571c3.284869-.279938,8.623046-2.609885,12.06081-3.052796Zm-10.726338,39.277131c-.383936-.019788-.825355.083531-1.319936.337265-3.706616,2.605408-6.878455,4.293267-10.577163,5.046214-2.888238-.44795-5.892451-4.472172-6.619235-4.422014-.622069.042948.911929,2.950289,2.19789,4.878685-1.746102.032579-2.79831-.085605-3.287445.08074-.075392.025603-.162858.156055-.189797.097661l.00091.001666c-.348565.286139-.082194.984955.601293,2.650604c3.285391,7.99191,4.372563,14.229872,8.405591,15.985642-1.768332-1.76831.012598-5.578567,1.676487-8.460501-.488011,5.102883-.950614,7.956424,2.211011,13.432524-3.647698-13.613405,8.686557-17.239525,8.686537-26.864059c0-1.537735-.634356-2.705064-1.786143-2.764427Z"
                transform="translate(-58879.819603-8807.887243)" opacity="0" fill="#fff"
                stroke-width="51.6576" />
            <path id="eMTpJzO3C2c17"
                d="M59022.978355,8819.557555c-11.035428.000004-22.152759,1.288304-32.740546,4.182677-15.478751-6.375256-28.400483-.399745-25.587791,10.097402-4.311398-1.155232-4.15042-10.144112,3.346946-12.153026-8.693071,2.329299-14.324851,7.835393-10.246973,14.89849-2.861629.071147-5.455298-.216952-8.312353-.502277-3.232134-.330619-5.633408-.095511-8.123621,2.991244-6.805973,6.655436-24.538277-2.781454-27.129038,3.066457.421457,2.940631,6.890065,6.54282,8.41635,9.763342-2.077555-1.154965-8.005243-5.577024-10.885788-3.476059s-4.59556,6.911709-5.466286,10.488606c-.623387,2.560874.492546,6.494322,2.965588,9.981118-.160222.737772-.593036,2.961515-.353469,4.548577.290345,1.923417,2.015808,6.887424,2.568609,6.334623.49117-.49117-.449675-4.974879.812816-7.534203.178828.156268.336569.32965.522451.4796c4.913407,3.963817,8.349952,4.490357,11.76694,2.821934c3.667662-1.78777,5.201505-5.696934,3.927695-10.017611-.16028-.566639,6.99168-.053337,9.407238,1.895392c4.051907,3.268838,8.302333,4.543674,13.884478,2.732666c5.180225,19.332841-7.239484,10.898551-14.525676,8.288391c7.941402,3.354618,22.593093,25.372874,22.593093-3.935483c8.943647,15.490852,9.305198,24.655006-8.35877,32.815619-23.291832,10.760656-23.381178,18.05659-18.68034,35.600342-3.922714-14.639778,12.536769-18.413876,23.434844-21.333994.008004-.002152.013179-.003121.021183-.005272-9.599768,6.763716-17.126884,15.209557-15.785667,27.992356c1.641931,15.598221,19.383441,27.591831,23.828625,24.878662c0,0,29.544926-17.519178,37.944745-22.745292c19.202442-11.943936,29.022358-29.385395,29.182541-51.851621.130162-17.820822.101672-73.544787.101672-73.544787c4.74555-3.514103,8.509088-4.215604,8.378946-5.226783-.180223-1.411645-7.679295-1.511069-8.330048-1.53109-2.846376-.051068-5.709303-.056067-8.578355,0h-.000039Zm-16.749557,13.670037c6.27102.117983,12.306601,1.323893,16.628349,3.819056c0,20.98791.128573,41.976828-.080179,62.964137-1.437443,26.599374-15.821464,40.110429-37.69444,51.961065-6.052404-3.494276-13.53349-11.849512,2.389491-29.09445c1.904406-2.073289,3.619538-4.321705,5.053745-6.701367c2.417961,9.933866-10.78648,21.611955-10.78648,25.388592c5.441847-9.425565,49.475857-13.82863,16.440528-44.383178c10.629243,0,18.16886,11.968356,18.16884,18.15894c3.08513-13.301218-1.414806-33.699872-21.99589-33.699872-2.136124,1.557991-14.70053-3.411249-13.584907-16.247209-3.959635-1.754223-5.347714-3.399737-7.34294-5.009378c2.202194.220128,5.66153-.099346,6.667748-.833262-3.490094-.394769-6.978714-3.538058-10.223387-4.396476c3.153699-1.503879,8.290995-1.67542,11.036668-1.110699-2.326348-2.154573-4.877921-3.202653-7.216634-4.238736c7.237507.83489,14.107688,2.356251,19.634714,7.567635s4.173425,12.397875-3.035456,16.02402c7.062749,1.131243,12.361469-2.634347,12.421724-10.392632.012946-1.667783-.257669-3.088732-.723121-4.351067c7.519713,8.10311,11.692014,13.410953,19.578995,15.284891-5.343083-3.084837-10.021419-17.590577-17.436649-30.434096c5.293292,1.418332,11.404285,7.642755,14.263898,10.502366-5.042426-7.413382-7.787809-14.010849-13.966246-20.760678.601098-.008367,1.203515-.028855,1.801629-.017602Zm-59.382115,11.646705c.846189.579876,1.788082,1.618246,2.53539,1.721216.662303.135395,2.343384.571639,3.753267,1.266057l.000038-.000039c.469987.231446.908577.491266,1.270806.778898c1.22809.974917,2.600413,2.252796,3.647777,4.964569-3.407047.595148-7.539733,1.578767-10.658779-.091342-4.079758-3.942266-12.539405-5.285109-12.609312-5.586579c3.284869-.279938,8.623048-2.609869,12.060813-3.05278Zm-10.581256,38.911547c-.454269.018683-.949955.236543-1.465022.702906-2.87192,3.435223-5.471558,5.869307-8.792417,7.552033-2.820542.412716-6.690385-2.530465-7.576305-2.511104-.030273.000659-.057038.004826-.08014.012753-.595943.204604,1.656137,2.611264,3.404779,4.138071-1.689414.487759-2.742611.646023-3.173642.934372-.066206.044246-.116925.192898-.15809.143477l.001376.001356c-.262631.36659.175494.972669,1.266794,2.404664c5.241913,6.869284,6.90243,13.100394,11.252474,13.752522-1.263461-.729439-1.195472-2.609947-.750874-4.687268.388587,2.966245,3.632407,4.832159,6.796882,7.996631-7.046838-12.205481,3.928606-18.900375,1.437578-28.196998-.364826-1.361566-1.163958-2.284483-2.163393-2.243415Z"
                transform="translate(-58879.819603-8807.88529)" opacity="0" fill="#fff"
                stroke-width="51.6576" />
        </g>
    </g>
    <script><![CDATA[
!function(t,n){"object"==typeof exports&&"undefined"!=typeof module?module.exports=n():"function"==typeof __SVGATOR_DEFINE__&&__SVGATOR_DEFINE__.amd?__SVGATOR_DEFINE__(n):((t="undefined"!=typeof globalThis?globalThis:t||self).__SVGATOR_PLAYER__=t.__SVGATOR_PLAYER__||{},t.__SVGATOR_PLAYER__["5c7f360c"]=n())}(this,(function(){"use strict";function t(t,n){var e=Object.keys(t);if(Object.getOwnPropertySymbols){var r=Object.getOwnPropertySymbols(t);n&&(r=r.filter((function(n){return Object.getOwnPropertyDescriptor(t,n).enumerable}))),e.push.apply(e,r)}return e}function n(n){for(var e=1;e<arguments.length;e++){var r=null!=arguments[e]?arguments[e]:{};e%2?t(Object(r),!0).forEach((function(t){o(n,t,r[t])})):Object.getOwnPropertyDescriptors?Object.defineProperties(n,Object.getOwnPropertyDescriptors(r)):t(Object(r)).forEach((function(t){Object.defineProperty(n,t,Object.getOwnPropertyDescriptor(r,t))}))}return n}function e(t){return(e="function"==typeof Symbol&&"symbol"==typeof Symbol.iterator?function(t){return typeof t}:function(t){return t&&"function"==typeof Symbol&&t.constructor===Symbol&&t!==Symbol.prototype?"symbol":typeof t})(t)}function r(t,n){if(!(t instanceof n))throw new TypeError("Cannot call a class as a function")}function i(t,n){for(var e=0;e<n.length;e++){var r=n[e];r.enumerable=r.enumerable||!1,r.configurable=!0,"value"in r&&(r.writable=!0),Object.defineProperty(t,r.key,r)}}function u(t,n,e){return n&&i(t.prototype,n),e&&i(t,e),t}function o(t,n,e){return n in t?Object.defineProperty(t,n,{value:e,enumerable:!0,configurable:!0,writable:!0}):t[n]=e,t}function a(t){return(a=Object.setPrototypeOf?Object.getPrototypeOf:function(t){return t.__proto__||Object.getPrototypeOf(t)})(t)}function l(t,n){return(l=Object.setPrototypeOf||function(t,n){return t.__proto__=n,t})(t,n)}function s(){if("undefined"==typeof Reflect||!Reflect.construct)return!1;if(Reflect.construct.sham)return!1;if("function"==typeof Proxy)return!0;try{return Boolean.prototype.valueOf.call(Reflect.construct(Boolean,[],(function(){}))),!0}catch(t){return!1}}function f(t,n,e){return(f=s()?Reflect.construct:function(t,n,e){var r=[null];r.push.apply(r,n);var i=new(Function.bind.apply(t,r));return e&&l(i,e.prototype),i}).apply(null,arguments)}function c(t,n){if(n&&("object"==typeof n||"function"==typeof n))return n;if(void 0!==n)throw new TypeError("Derived constructors may only return object or undefined");return function(t){if(void 0===t)throw new ReferenceError("this hasn't been initialised - super() hasn't been called");return t}(t)}function h(t,n,e){return(h="undefined"!=typeof Reflect&&Reflect.get?Reflect.get:function(t,n,e){var r=function(t,n){for(;!Object.prototype.hasOwnProperty.call(t,n)&&null!==(t=a(t)););return t}(t,n);if(r){var i=Object.getOwnPropertyDescriptor(r,n);return i.get?i.get.call(e):i.value}})(t,n,e||t)}function v(t){return function(t){if(Array.isArray(t))return d(t)}(t)||function(t){if("undefined"!=typeof Symbol&&null!=t[Symbol.iterator]||null!=t["@@iterator"])return Array.from(t)}(t)||function(t,n){if(!t)return;if("string"==typeof t)return d(t,n);var e=Object.prototype.toString.call(t).slice(8,-1);"Object"===e&&t.constructor&&(e=t.constructor.name);if("Map"===e||"Set"===e)return Array.from(t);if("Arguments"===e||/^(?:Ui|I)nt(?:8|16|32)(?:Clamped)?Array$/.test(e))return d(t,n)}(t)||function(){throw new TypeError("Invalid attempt to spread non-iterable instance.\nIn order to be iterable, non-array objects must have a [Symbol.iterator]() method.")}()}function d(t,n){(null==n||n>t.length)&&(n=t.length);for(var e=0,r=new Array(n);e<n;e++)r[e]=t[e];return r}function y(t,n,e){if(Number.isInteger(t))return t;var r=Math.pow(10,n);return Math[e]((+t+Number.EPSILON)*r)/r}Number.isInteger||(Number.isInteger=function(t){return"number"==typeof t&&isFinite(t)&&Math.floor(t)===t}),Number.EPSILON||(Number.EPSILON=2220446049250313e-31);var g=p(Math.pow(10,-6));function p(t){var n=arguments.length>1&&void 0!==arguments[1]?arguments[1]:6;return y(t,n,"round")}function m(t,n){var e=arguments.length>2&&void 0!==arguments[2]?arguments[2]:g;return Math.abs(t-n)<e}p(Math.pow(10,-2)),p(Math.pow(10,-4));var b=Math.PI/180;function w(t){return t*b}function A(t){return t/b}function k(t){return t}function _(t,n,e){var r=1-e;return 3*e*r*(t*r+n*e)+e*e*e}function x(){var t=arguments.length>0&&void 0!==arguments[0]?arguments[0]:0,n=arguments.length>1&&void 0!==arguments[1]?arguments[1]:0,e=arguments.length>2&&void 0!==arguments[2]?arguments[2]:1,r=arguments.length>3&&void 0!==arguments[3]?arguments[3]:1;return t<0||t>1||e<0||e>1?null:m(t,n)&&m(e,r)?k:function(i){if(i<=0)return t>0?i*n/t:0===n&&e>0?i*r/e:0;if(i>=1)return e<1?1+(i-1)*(r-1)/(e-1):1===e&&t<1?1+(i-1)*(n-1)/(t-1):1;for(var u,o=0,a=1;o<a;){var l=_(t,e,u=(o+a)/2);if(m(i,l))break;l<i?o=u:a=u}return _(n,r,u)}}function S(){return 1}function O(t){return 1===t?1:0}function E(){var t=arguments.length>0&&void 0!==arguments[0]?arguments[0]:1,n=arguments.length>1&&void 0!==arguments[1]?arguments[1]:0;if(1===t){if(0===n)return O;if(1===n)return S}var e=1/t;return function(t){return t>=1?1:(t+=n*e)-t%e}}var M=Math.sin,j=Math.cos,I=Math.acos,B=Math.asin,P=Math.tan,N=Math.atan2,R=Math.sqrt,T=function(){function t(){var n=arguments.length>0&&void 0!==arguments[0]?arguments[0]:1,e=arguments.length>1&&void 0!==arguments[1]?arguments[1]:0,i=arguments.length>2&&void 0!==arguments[2]?arguments[2]:0,u=arguments.length>3&&void 0!==arguments[3]?arguments[3]:1,o=arguments.length>4&&void 0!==arguments[4]?arguments[4]:0,a=arguments.length>5&&void 0!==arguments[5]?arguments[5]:0;r(this,t),this.m=[n,e,i,u,o,a],this.i=null,this.w=null,this.s=null}return u(t,[{key:"determinant",get:function(){var t=this.m;return t[0]*t[3]-t[1]*t[2]}},{key:"isIdentity",get:function(){if(null===this.i){var t=this.m;this.i=1===t[0]&&0===t[1]&&0===t[2]&&1===t[3]&&0===t[4]&&0===t[5]}return this.i}},{key:"point",value:function(t,n){var e=this.m;return{x:e[0]*t+e[2]*n+e[4],y:e[1]*t+e[3]*n+e[5]}}},{key:"translateSelf",value:function(){var t=arguments.length>0&&void 0!==arguments[0]?arguments[0]:0,n=arguments.length>1&&void 0!==arguments[1]?arguments[1]:0;if(!t&&!n)return this;var e=this.m;return e[4]+=e[0]*t+e[2]*n,e[5]+=e[1]*t+e[3]*n,this.w=this.s=this.i=null,this}},{key:"rotateSelf",value:function(){var t=arguments.length>0&&void 0!==arguments[0]?arguments[0]:0;if(t%=360){t=w(t);var n=M(t),e=j(t),r=this.m,i=r[0],u=r[1];r[0]=i*e+r[2]*n,r[1]=u*e+r[3]*n,r[2]=r[2]*e-i*n,r[3]=r[3]*e-u*n,this.w=this.s=this.i=null}return this}},{key:"scaleSelf",value:function(){var t=arguments.length>0&&void 0!==arguments[0]?arguments[0]:1,n=arguments.length>1&&void 0!==arguments[1]?arguments[1]:1;if(1!==t||1!==n){var e=this.m;e[0]*=t,e[1]*=t,e[2]*=n,e[3]*=n,this.w=this.s=this.i=null}return this}},{key:"skewSelf",value:function(t,n){if(n%=360,(t%=360)||n){var e=this.m,r=e[0],i=e[1],u=e[2],o=e[3];t&&(t=P(w(t)),e[2]+=r*t,e[3]+=i*t),n&&(n=P(w(n)),e[0]+=u*n,e[1]+=o*n),this.w=this.s=this.i=null}return this}},{key:"resetSelf",value:function(){var t=arguments.length>0&&void 0!==arguments[0]?arguments[0]:1,n=arguments.length>1&&void 0!==arguments[1]?arguments[1]:0,e=arguments.length>2&&void 0!==arguments[2]?arguments[2]:0,r=arguments.length>3&&void 0!==arguments[3]?arguments[3]:1,i=arguments.length>4&&void 0!==arguments[4]?arguments[4]:0,u=arguments.length>5&&void 0!==arguments[5]?arguments[5]:0,o=this.m;return o[0]=t,o[1]=n,o[2]=e,o[3]=r,o[4]=i,o[5]=u,this.w=this.s=this.i=null,this}},{key:"recomposeSelf",value:function(){var t=arguments.length>0&&void 0!==arguments[0]?arguments[0]:null,n=arguments.length>1&&void 0!==arguments[1]?arguments[1]:null,e=arguments.length>2&&void 0!==arguments[2]?arguments[2]:null,r=arguments.length>3&&void 0!==arguments[3]?arguments[3]:null,i=arguments.length>4&&void 0!==arguments[4]?arguments[4]:null;return this.isIdentity||this.resetSelf(),t&&(t.x||t.y)&&this.translateSelf(t.x,t.y),n&&this.rotateSelf(n),e&&(e.x&&this.skewSelf(e.x,0),e.y&&this.skewSelf(0,e.y)),!r||1===r.x&&1===r.y||this.scaleSelf(r.x,r.y),i&&(i.x||i.y)&&this.translateSelf(i.x,i.y),this}},{key:"decompose",value:function(){var t=arguments.length>0&&void 0!==arguments[0]?arguments[0]:0,n=arguments.length>1&&void 0!==arguments[1]?arguments[1]:0,e=this.m,r=e[0]*e[0]+e[1]*e[1],i=[[e[0],e[1]],[e[2],e[3]]],u=R(r);if(0===u)return{origin:{x:p(e[4]),y:p(e[5])},translate:{x:p(t),y:p(n)},scale:{x:0,y:0},skew:{x:0,y:0},rotate:0};i[0][0]/=u,i[0][1]/=u;var o=e[0]*e[3]-e[1]*e[2]<0;o&&(u=-u);var a=i[0][0]*i[1][0]+i[0][1]*i[1][1];i[1][0]-=i[0][0]*a,i[1][1]-=i[0][1]*a;var l,s=R(i[1][0]*i[1][0]+i[1][1]*i[1][1]);return 0===s?{origin:{x:p(e[4]),y:p(e[5])},translate:{x:p(t),y:p(n)},scale:{x:p(u),y:0},skew:{x:0,y:0},rotate:0}:(i[1][0]/=s,i[1][1]/=s,a/=s,i[1][1]<0?(l=A(I(i[1][1])),i[0][1]<0&&(l=360-l)):l=A(B(i[0][1])),o&&(l=-l),a=A(N(a,R(i[0][0]*i[0][0]+i[0][1]*i[0][1]))),o&&(a=-a),{origin:{x:p(e[4]),y:p(e[5])},translate:{x:p(t),y:p(n)},scale:{x:p(u),y:p(s)},skew:{x:p(a),y:0},rotate:p(l)})}},{key:"multiply",value:function(t){return this.clone().multiplySelf(t)}},{key:"preMultiply",value:function(t){return t.multiply(this)}},{key:"multiplySelf",value:function(t){var n=F(this.m,t.m),e=n.a,r=n.b,i=n.c,u=n.d,o=n.tx,a=n.ty;return this.resetSelf(e,r,i,u,o,a),this}},{key:"preMultiplySelf",value:function(t){var n=F(t.m,this.m),e=n.a,r=n.b,i=n.c,u=n.d,o=n.tx,a=n.ty;return this.resetSelf(e,r,i,u,o,a),this}},{key:"clone",value:function(){var t=this.m;return new this.constructor(t[0],t[1],t[2],t[3],t[4],t[5])}},{key:"toString",value:function(){var t=arguments.length>0&&void 0!==arguments[0]?arguments[0]:" ";if(null===this.s){var n=this.m.map((function(t){return p(t)}));1===n[0]&&0===n[1]&&0===n[2]&&1===n[3]?this.s="translate("+n[4]+t+n[5]+")":this.s="matrix("+n.join(t)+")"}return this.s}}],[{key:"create",value:function(t){return t?Array.isArray(t)?f(this,v(t)):t instanceof this?t.clone():(new this).recomposeSelf(t.origin,t.rotate,t.skew,t.scale,t.translate):new this}}]),t}();function F(t,n){return{a:t[0]*n[0]+t[2]*n[1],b:t[1]*n[0]+t[3]*n[1],c:t[0]*n[2]+t[2]*n[3],d:t[1]*n[2]+t[3]*n[3],tx:t[0]*n[4]+t[2]*n[5]+t[4],ty:t[1]*n[4]+t[3]*n[5]+t[5]}}function C(t,n,e){return t>=.5?e:n}function D(t,n,e){return 0===t||n===e?n:t*(e-n)+n}function L(t,n,e){var r=D(t,n,e);return r<=0?0:r}function V(t,n,e){var r=D(t,n,e);return r<=0?0:r>=1?1:r}function q(t,n,e){return 0===t?n:1===t?e:{x:D(t,n.x,e.x),y:D(t,n.y,e.y)}}function G(t,n,e){return 0===t?n:1===t?e:{x:L(t,n.x,e.x),y:L(t,n.y,e.y)}}function z(t,n,e){var r=function(t,n,e){return Math.round(D(t,n,e))}(t,n,e);return r<=0?0:r>=255?255:r}function Y(t,n,e){return 0===t?n:1===t?e:{r:z(t,n.r,e.r),g:z(t,n.g,e.g),b:z(t,n.b,e.b),a:D(t,null==n.a?1:n.a,null==e.a?1:e.a)}}function U(t,n,e){var r=n.length;if(r!==e.length)return C(t,n,e);for(var i=new Array(r),u=0;u<r;u++)i[u]=D(t,n[u],e[u]);return i}function W(t,n){for(var e=[],r=0;r<t;r++)e.push(n);return e}function $(t,n){if(--n<=0)return t;var e=(t=Object.assign([],t)).length;do{for(var r=0;r<e;r++)t.push(t[r])}while(--n>0);return t}var H,Q=function(){function t(n){r(this,t),this.list=n,this.length=n.length}return u(t,[{key:"setAttribute",value:function(t,n){for(var e=this.list,r=0;r<this.length;r++)e[r].setAttribute(t,n)}},{key:"removeAttribute",value:function(t){for(var n=this.list,e=0;e<this.length;e++)n[e].removeAttribute(t)}},{key:"style",value:function(t,n){for(var e=this.list,r=0;r<this.length;r++)e[r].style[t]=n}}]),t}(),X=/-./g,J=function(t,n){return n.toUpperCase()};function Z(t){return"function"==typeof t?t:C}function K(t){return t?"function"==typeof t?t:Array.isArray(t)?function(t){var n=arguments.length>1&&void 0!==arguments[1]?arguments[1]:k;if(!Array.isArray(t))return n;switch(t.length){case 1:return E(t[0])||n;case 2:return E(t[0],t[1])||n;case 4:return x(t[0],t[1],t[2],t[3])||n}return n}(t,null):function(t,n){var e=arguments.length>2&&void 0!==arguments[2]?arguments[2]:k;switch(t){case"linear":return k;case"steps":return E(n.steps||1,n.jump||0)||e;case"bezier":case"cubic-bezier":return x(n.x1||0,n.y1||0,n.x2||0,n.y2||0)||e}return e}(t.type,t.value,null):null}function tt(t,n,e){var r=arguments.length>3&&void 0!==arguments[3]&&arguments[3],i=n.length-1;if(t<=n[0].t)return r?[0,0,n[0].v]:n[0].v;if(t>=n[i].t)return r?[i,1,n[i].v]:n[i].v;var u,o=n[0],a=null;for(u=1;u<=i;u++){if(!(t>n[u].t)){a=n[u];break}o=n[u]}return null==a?r?[i,1,n[i].v]:n[i].v:o.t===a.t?r?[u,1,a.v]:a.v:(t=(t-o.t)/(a.t-o.t),o.e&&(t=o.e(t)),r?[u,t,e(t,o.v,a.v)]:e(t,o.v,a.v))}function nt(t,n){var e=arguments.length>2&&void 0!==arguments[2]?arguments[2]:null;return t&&t.length?"function"!=typeof n?null:("function"!=typeof e&&(e=null),function(r){var i=tt(r,t,n);return null!=i&&e&&(i=e(i)),i}):null}function et(t,n){return t.t-n.t}function rt(t,n,r,i,u){var o,a="@"===r[0],l="#"===r[0],s=H[r],f=C;switch(a?(o=r.substr(1),r=o.replace(X,J)):l&&(r=r.substr(1)),e(s)){case"function":if(f=s(i,u,tt,K,r,a,n,t),l)return f;break;case"string":f=nt(i,Z(s));break;case"object":if((f=nt(i,Z(s.i),s.f))&&"function"==typeof s.u)return s.u(n,f,r,a,t)}return f?function(t,n,e){if(arguments.length>3&&void 0!==arguments[3]&&arguments[3])return t instanceof Q?function(r){return t.style(n,e(r))}:function(r){return t.style[n]=e(r)};if(Array.isArray(n)){var r=n.length;return function(i){var u=e(i);if(null==u)for(var o=0;o<r;o++)t[o].removeAttribute(n);else for(var a=0;a<r;a++)t[a].setAttribute(n,u)}}return function(r){var i=e(r);null==i?t.removeAttribute(n):t.setAttribute(n,i)}}(n,r,f,a):null}function it(t,n,r,i){if(!i||"object"!==e(i))return null;var u=null,o=null;return Array.isArray(i)?o=function(t){if(!t||!t.length)return null;for(var n=0;n<t.length;n++)t[n].e&&(t[n].e=K(t[n].e));return t.sort(et)}(i):(o=i.keys,u=i.data||null),o?rt(t,n,r,o,u):null}function ut(t,n,e){if(!e)return null;var r=[];for(var i in e)if(e.hasOwnProperty(i)){var u=it(t,n,i,e[i]);u&&r.push(u)}return r.length?r:null}function ot(t,n){if(!n.settings.duration||n.settings.duration<0)return null;var e,r,i,u,o,a=function(t,n){if(!n)return null;var e=[];if(Array.isArray(n))for(var r=n.length,i=0;i<r;i++){var u=n[i];if(2===u.length){var o=null;if("string"==typeof u[0])o=t.getElementById(u[0]);else if(Array.isArray(u[0])){o=[];for(var a=0;a<u[0].length;a++)if("string"==typeof u[0][a]){var l=t.getElementById(u[0][a]);l&&o.push(l)}o=o.length?1===o.length?o[0]:new Q(o):null}if(o){var s=ut(t,o,u[1]);s&&(e=e.concat(s))}}}else for(var f in n)if(n.hasOwnProperty(f)){var c=t.getElementById(f);if(c){var h=ut(t,c,n[f]);h&&(e=e.concat(h))}}return e.length?e:null}(t,n.elements);return a?(e=a,r=n.settings,i=r.duration,u=e.length,o=null,function(t,n){var a=r.iterations||1/0,l=(r.alternate&&a%2==0)^r.direction>0?i:0,s=t%i,f=1+(t-s)/i;n*=r.direction,r.alternate&&f%2==0&&(n=-n);var c=!1;if(f>a)s=l,c=!0,-1===r.fill&&(s=r.direction>0?0:i);else if(n<0&&(s=i-s),s===o)return!1;o=s;for(var h=0;h<u;h++)e[h](s);return c}):null}function at(t,n){for(var e=n.querySelectorAll("svg"),r=0;r<e.length;r++)if(e[r].id===t.root&&!e[r].svgatorAnimation)return e[r].svgatorAnimation=!0,e[r];return null}function lt(t){var n=function(t){return t.shadowRoot};return document?Array.from(t.querySelectorAll(":not("+["a","area","audio","br","canvas","circle","datalist","embed","g","head","hr","iframe","img","input","link","object","path","polygon","rect","script","source","style","svg","title","track","video"].join()+")")).filter(n).map(n):[]}function st(t){var n=arguments.length>1&&void 0!==arguments[1]?arguments[1]:document,e=arguments.length>2&&void 0!==arguments[2]?arguments[2]:0,r=at(t,n);if(r)return r;if(e>=20)return null;for(var i=lt(n),u=0;u<i.length;u++){var o=st(t,i[u],e+1);if(o)return o}return null}function ft(t,n){if(H=n,!t||!t.root||!Array.isArray(t.animations))return null;var e=st(t);if(!e)return null;var r=t.animations.map((function(t){return ot(e,t)})).filter((function(t){return!!t}));return r.length?{svg:e,animations:r,animationSettings:t.animationSettings,options:t.options||void 0}:null}function ct(t){var n=arguments.length>1&&void 0!==arguments[1]?arguments[1]:null,e=arguments.length>2&&void 0!==arguments[2]?arguments[2]:Number,r=arguments.length>3&&void 0!==arguments[3]?arguments[3]:"undefined"!=typeof BigInt&&BigInt,i="0x"+(t.replace(/[^0-9a-fA-F]+/g,"")||27);return n&&r&&e.isSafeInteger&&!e.isSafeInteger(+i)?e(r(i))%n+n:+i}function ht(t,n,e){return!t||!e||n>t.length?t:t.substring(0,n)+ht(t.substring(n+1),e,e)}function vt(t){var n=arguments.length>1&&void 0!==arguments[1]?arguments[1]:27;return!t||t%n?t%n:[0,1].includes(n)?n:vt(t/n,n)}function dt(t,n,e){if(t&&t.length){var r=ct(e),i=vt(r)+5,u=ht(t,vt(r,5),i);return u=u.replace(/\x7c$/g,"==").replace(/\x2f$/g,"="),u=function(t,n,e){var r=+("0x"+t.substring(0,4));t=t.substring(4);for(var i=ct(n,r)%r+e%27,u=[],o=0;o<t.length;o+=2)if("|"!==t[o]){var a=+("0x"+t[o]+t[o+1])-i;u.push(a)}else{var l=+("0x"+t.substring(o+1,o+1+4))-i;o+=3,u.push(l)}return String.fromCharCode.apply(String,u)}(u=(u=atob(u)).replace(/[\x41-\x5A]/g,""),n,r),u=JSON.parse(u)}}var yt=[{key:"alternate",def:!1},{key:"fill",def:1},{key:"iterations",def:0},{key:"direction",def:1},{key:"speed",def:1},{key:"fps",def:100}],gt=function(){function t(n,e){var i=this,u=arguments.length>2&&void 0!==arguments[2]?arguments[2]:null;r(this,t),this._id=0,this._running=!1,this._rollingBack=!1,this._animations=n,this._settings=e,(!u||u<"2022-05-02")&&delete this._settings.speed,yt.forEach((function(t){i._settings[t.key]=i._settings[t.key]||t.def})),this.duration=e.duration,this.offset=e.offset||0,this.rollbackStartOffset=0}return u(t,[{key:"alternate",get:function(){return this._settings.alternate}},{key:"fill",get:function(){return this._settings.fill}},{key:"iterations",get:function(){return this._settings.iterations}},{key:"direction",get:function(){return this._settings.direction}},{key:"speed",get:function(){return this._settings.speed}},{key:"fps",get:function(){return this._settings.fps}},{key:"maxFiniteDuration",get:function(){return this.iterations>0?this.iterations*this.duration:this.duration}},{key:"_apply",value:function(t){for(var n=arguments.length>1&&void 0!==arguments[1]?arguments[1]:{},e=this._animations,r=e.length,i=0,u=0;u<r;u++)n[u]?i++:(n[u]=e[u](t,1),n[u]&&i++);return i}},{key:"_rollback",value:function(t){var n=this,e=1/0,r=null;this.rollbackStartOffset=t,this._rollingBack=!0,this._running=!0;this._id=window.requestAnimationFrame((function i(u){if(n._rollingBack){null==r&&(r=u);var o=Math.round(t-(u-r)*n.speed);if(o>n.duration&&e!==1/0){var a=!!n.alternate&&o/n.duration%2>1,l=o%n.duration;o=(l+=a?n.duration:0)||n.duration}var s=(n.fps?1e3/n.fps:0)*n.speed,f=Math.max(0,o);f<=e-s&&(n.offset=f,e=f,n._apply(f));var c=n.iterations>0&&-1===n.fill&&o>=n.maxFiniteDuration;(o<=0||n.offset<o||c)&&n.stop(),n._id=window.requestAnimationFrame(i)}}))}},{key:"_start",value:function(){var t=this,n=arguments.length>0&&void 0!==arguments[0]?arguments[0]:0,e=-1/0,r=null,i={};this._running=!0;var u=function u(o){null==r&&(r=o);var a=Math.round((o-r)*t.speed+n),l=(t.fps?1e3/t.fps:0)*t.speed;if(a>=e+l&&!t._rollingBack&&(t.offset=a,e=a,t._apply(a,i)===t._animations.length))return void t.pause(!0);t._id=window.requestAnimationFrame(u)};this._id=window.requestAnimationFrame(u)}},{key:"_pause",value:function(){this._id&&window.cancelAnimationFrame(this._id),this._running=!1}},{key:"play",value:function(){if(!this._running)return this._rollingBack?this._rollback(this.offset):this._start(this.offset)}},{key:"stop",value:function(){this._pause(),this.offset=0,this.rollbackStartOffset=0,this._rollingBack=!1,this._apply(0)}},{key:"reachedToEnd",value:function(){return this.iterations>0&&this.offset>=this.iterations*this.duration}},{key:"restart",value:function(){var t=arguments.length>0&&void 0!==arguments[0]&&arguments[0];this.stop(t),this.play(t)}},{key:"pause",value:function(){this._pause()}},{key:"toggle",value:function(){return this._running?this.pause():this.reachedToEnd()?this.restart():this.play()}},{key:"trigger",value:function(t,n){}},{key:"_adjustOffset",value:function(){var t=arguments.length>0&&void 0!==arguments[0]&&arguments[0],n=this.alternate?2*this.duration:this.duration;if(t){if(!this._rollingBack&&0===this.offset)return void(this.offset=n);this._rollingBack&&(this.offset,this.maxFiniteDuration)}!this._rollingBack||this.rollbackStartOffset<=this.duration?0!==this.iterations&&(this.offset=Math.min(this.offset,this.maxFiniteDuration)):(this.offset=this.rollbackStartOffset-(this.rollbackStartOffset-this.offset)%n,this.rollbackStartOffset=0)}},{key:"reverse",value:function(){var t=arguments.length>0&&void 0!==arguments[0]&&arguments[0];if(!this._running)return this._adjustOffset(t),this._rollingBack=!this._rollingBack,t&&this.play(!1),void this.trigger("reverse",this.offset);this.pause(!1,!1),this._adjustOffset(),this._rollingBack=!this._rollingBack,this.play(!1),this.trigger("reverse",this.offset)}}],[{key:"build",value:function(t,n){delete t.animationSettings,t.options=dt(t.options,t.root,"5c7f360c"),t.animations.map((function(n){n.settings=dt(n.s,t.root,"5c7f360c"),delete n.s,t.animationSettings||(t.animationSettings=n.settings)}));var e=t.version;if(!(t=ft(t,n)))return null;var r=t.options||{},i=new this(t.animations,t.animationSettings,e);return{el:t.svg,options:r,player:i}}},{key:"push",value:function(t){return this.build(t)}},{key:"init",value:function(){var t=this,n=window.__SVGATOR_PLAYER__&&window.__SVGATOR_PLAYER__["5c7f360c"];Array.isArray(n)&&n.splice(0).forEach((function(n){return t.build(n)}))}}]),t}();function pt(t){return p(t)+""}function mt(t){var n=arguments.length>1&&void 0!==arguments[1]?arguments[1]:" ";return t&&t.length?t.map(pt).join(n):""}function bt(t){return pt(t.x)+","+pt(t.y)}function wt(t){return t?null==t.a||t.a>=1?function(t){if(!t)return"transparent";var n=function(t){return parseInt(t).toString(16).padStart(2,"0")};return function(t){for(var n=[],e="#"===t[0]?n.push("#"):0;e<t.length;e+=2){if(t[e]!==t[e+1])return t;n.push(t[e])}return n.join("")}("#"+n(t.r)+n(t.g)+n(t.b)+(null==t.a||t.a>=1?"":n(255*t.a)))}(t):"rgba("+t.r+","+t.g+","+t.b+","+t.a+")":"transparent"}function At(t){return t?"url(#"+t+")":"none"}!function(){for(var t=0,n=["ms","moz","webkit","o"],e=0;e<n.length&&!window.requestAnimationFrame;++e)window.requestAnimationFrame=window[n[e]+"RequestAnimationFrame"],window.cancelAnimationFrame=window[n[e]+"CancelAnimationFrame"]||window[n[e]+"CancelRequestAnimationFrame"];window.requestAnimationFrame||(window.requestAnimationFrame=function(n){var e=Date.now(),r=Math.max(0,16-(e-t)),i=window.setTimeout((function(){n(e+r)}),r);return t=e+r,i},window.cancelAnimationFrame=window.clearTimeout)}();var kt={f:null,i:G,u:function(t,n){return function(e){var r=n(e);t.setAttribute("rx",pt(r.x)),t.setAttribute("ry",pt(r.y))}}},_t={f:null,i:function(t,n,e){return 0===t?n:1===t?e:{width:L(t,n.width,e.width),height:L(t,n.height,e.height)}},u:function(t,n){return function(e){var r=n(e);t.setAttribute("width",pt(r.width)),t.setAttribute("height",pt(r.height))}}};Object.freeze({M:2,L:2,Z:0,H:1,V:1,C:6,Q:4,T:2,S:4,A:7});var xt={},St=null;function Ot(t){var n=function(){if(St)return St;if("object"!==("undefined"==typeof document?"undefined":e(document))||!document.createElementNS)return{};var t=document.createElementNS("http://www.w3.org/2000/svg","svg");return t&&t.style?(t.style.position="absolute",t.style.opacity="0.01",t.style.zIndex="-9999",t.style.left="-9999px",t.style.width="1px",t.style.height="1px",St={svg:t}):{}}().svg;if(!n)return function(t){return null};var r=document.createElementNS(n.namespaceURI,"path");r.setAttributeNS(null,"d",t),r.setAttributeNS(null,"fill","none"),r.setAttributeNS(null,"stroke","none"),n.appendChild(r);var i=r.getTotalLength();return function(t){var n=r.getPointAtLength(i*t);return{x:n.x,y:n.y}}}function Et(t){return xt[t]?xt[t]:xt[t]=Ot(t)}function Mt(t,n,e,r){if(!t||!r)return!1;var i=["M",t.x,t.y];if(n&&e&&(i.push("C"),i.push(n.x),i.push(n.y),i.push(e.x),i.push(e.y)),n?!e:e){var u=n||e;i.push("Q"),i.push(u.x),i.push(u.y)}return n||e||i.push("L"),i.push(r.x),i.push(r.y),i.join(" ")}function jt(t,n,e,r){var i=arguments.length>4&&void 0!==arguments[4]?arguments[4]:1,u=Mt(t,n,e,r),o=Et(u);try{return o(i)}catch(t){return null}}function It(t,n,e){return t+(n-t)*e}function Bt(t,n,e){var r=arguments.length>3&&void 0!==arguments[3]&&arguments[3],i={x:It(t.x,n.x,e),y:It(t.y,n.y,e)};return r&&(i.a=Pt(t,n)),i}function Pt(t,n){return Math.atan2(n.y-t.y,n.x-t.x)}function Nt(t,n,e,r){var i=1-r;return i*i*t+2*i*r*n+r*r*e}function Rt(t,n,e,r){return 2*(1-r)*(n-t)+2*r*(e-n)}function Tt(t,n,e,r){var i=arguments.length>4&&void 0!==arguments[4]&&arguments[4],u=jt(t,n,null,e,r);return u||(u={x:Nt(t.x,n.x,e.x,r),y:Nt(t.y,n.y,e.y,r)}),i&&(u.a=Ft(t,n,e,r)),u}function Ft(t,n,e,r){return Math.atan2(Rt(t.y,n.y,e.y,r),Rt(t.x,n.x,e.x,r))}function Ct(t,n,e,r,i){var u=i*i;return i*u*(r-t+3*(n-e))+3*u*(t+e-2*n)+3*i*(n-t)+t}function Dt(t,n,e,r,i){var u=1-i;return 3*(u*u*(n-t)+2*u*i*(e-n)+i*i*(r-e))}function Lt(t,n,e,r,i){var u=arguments.length>5&&void 0!==arguments[5]&&arguments[5],o=jt(t,n,e,r,i);return o||(o={x:Ct(t.x,n.x,e.x,r.x,i),y:Ct(t.y,n.y,e.y,r.y,i)}),u&&(o.a=Vt(t,n,e,r,i)),o}function Vt(t,n,e,r,i){return Math.atan2(Dt(t.y,n.y,e.y,r.y,i),Dt(t.x,n.x,e.x,r.x,i))}function qt(t,n,e){var r=arguments.length>3&&void 0!==arguments[3]&&arguments[3];if(zt(n)){if(Yt(e))return Tt(n,e.start,e,t,r)}else if(zt(e)){if(Ut(n))return Tt(n,n.end,e,t,r)}else{if(Ut(n))return Yt(e)?Lt(n,n.end,e.start,e,t,r):Tt(n,n.end,e,t,r);if(Yt(e))return Tt(n,e.start,e,t,r)}return Bt(n,e,t,r)}function Gt(t,n,e){var r=qt(t,n,e,!0);return r.a=A(function(t){return arguments.length>1&&void 0!==arguments[1]&&arguments[1]?t+Math.PI:t}(r.a)),r}function zt(t){return!t.type||"corner"===t.type}function Yt(t){return null!=t.start&&!zt(t)}function Ut(t){return null!=t.end&&!zt(t)}var Wt=new T;var $t={f:function(t){return t?t.join(" "):""},i:function(t,n,r){if(0===t)return n;if(1===t)return r;var i=n.length;if(i!==r.length)return C(t,n,r);for(var u,o=new Array(i),a=0;a<i;a++){if((u=e(n[a]))!==e(r[a]))return C(t,n,r);if("number"===u)o[a]=D(t,n[a],r[a]);else{if(n[a]!==r[a])return C(t,n,r);o[a]=n[a]}}return o}},Ht={f:null,i:U,u:function(t,n){return function(e){var r=n(e);t.setAttribute("x1",pt(r[0])),t.setAttribute("y1",pt(r[1])),t.setAttribute("x2",pt(r[2])),t.setAttribute("y2",pt(r[3]))}}},Qt={f:pt,i:D},Xt={f:pt,i:V},Jt={f:function(t){var n=arguments.length>1&&void 0!==arguments[1]?arguments[1]:" ";return t&&t.length>0&&(t=t.map((function(t){return p(t,4)}))),mt(t,n)},i:function(t,n,e){var r,i,u,o=n.length,a=e.length;if(o!==a)if(0===o)n=W(o=a,0);else if(0===a)a=o,e=W(o,0);else{var l=(u=(r=o)*(i=a)/function(t,n){for(var e;n;)e=n,n=t%n,t=e;return t||1}(r,i))<0?-u:u;n=$(n,Math.floor(l/o)),e=$(e,Math.floor(l/a)),o=a=l}for(var s=[],f=0;f<o;f++)s.push(p(L(t,n[f],e[f])));return s}};function Zt(t,n,e){return t.map((function(t){return function(t,n,e){var r=t.v;if(!r||"g"!==r.t||r.s||!r.v||!r.r)return t;var i=e.getElementById(r.r),u=i&&i.querySelectorAll("stop")||[];return r.s=r.v.map((function(t,n){var e=u[n]&&u[n].getAttribute("offset");return{c:t,o:e=p(parseInt(e)/100)}})),delete r.v,t}(t,0,e)}))}var Kt={gt:"gradientTransform",c:{x:"cx",y:"cy"},rd:"r",f:{x:"x1",y:"y1"},to:{x:"x2",y:"y2"}};function tn(t,n,r,i,u,o,a,l){return Zt(t,0,l),n=function(t,n,e){for(var r,i,u,o=t.length-1,a={},l=0;l<=o;l++)(r=t[l]).e&&(r.e=n(r.e)),r.v&&"g"===(i=r.v).t&&i.r&&(u=e.getElementById(i.r))&&(a[i.r]={e:u,s:u.querySelectorAll("stop")});return a}(t,i,l),function(i){var u=r(i,t,nn);if(!u)return"none";if("c"===u.t)return wt(u.v);if("g"===u.t){if(!n[u.r])return At(u.r);var o=n[u.r];return function(t,n){for(var e=t.s,r=e.length;r<n.length;r++){var i=e[e.length-1].cloneNode();i.id=un(i.id),t.e.appendChild(i),e=t.s=t.e.querySelectorAll("stop")}for(var u=0,o=e.length,a=n.length-1;u<o;u++)e[u].setAttribute("stop-color",wt(n[Math.min(u,a)].c)),e[u].setAttribute("offset",n[Math.min(u,a)].o)}(o,u.s),Object.keys(Kt).forEach((function(t){if(void 0!==u[t])if("object"!==e(Kt[t])){var n,r="gt"===t?(n=u[t],Array.isArray(n)?"matrix("+n.join(" ")+")":""):u[t],i=Kt[t];o.e.setAttribute(i,r)}else Object.keys(Kt[t]).forEach((function(n){if(void 0!==u[t][n]){var e=u[t][n],r=Kt[t][n];o.e.setAttribute(r,e)}}))})),At(u.r)}return"none"}}function nn(t,e,r){if(0===t)return e;if(1===t)return r;if(e&&r){var i=e.t;if(i===r.t)switch(e.t){case"c":return{t:i,v:Y(t,e.v,r.v)};case"g":if(e.r===r.r){var u={t:i,s:en(t,e.s,r.s),r:e.r};return e.gt&&r.gt&&(u.gt=U(t,e.gt,r.gt)),e.c?(u.c=q(t,e.c,r.c),u.rd=L(t,e.rd,r.rd)):e.f&&(u.f=q(t,e.f,r.f),u.to=q(t,e.to,r.to)),u}}if("c"===e.t&&"g"===r.t||"c"===r.t&&"g"===e.t){var o="c"===e.t?e:r,a="g"===e.t?n({},e):n({},r),l=a.s.map((function(t){return{c:o.v,o:t.o}}));return a.s="c"===e.t?en(t,l,a.s):en(t,a.s,l),a}}return C(t,e,r)}function en(t,n,e){if(n.length===e.length)return n.map((function(n,r){return rn(t,n,e[r])}));for(var r=Math.max(n.length,e.length),i=[],u=0;u<r;u++){var o=rn(t,n[Math.min(u,n.length-1)],e[Math.min(u,e.length-1)]);i.push(o)}return i}function rn(t,n,e){return{o:V(t,n.o,e.o||0),c:Y(t,n.c,e.c||{})}}function un(t){return t.replace(/-fill-([0-9]+)$/,(function(t,n){return"-fill-"+(+n+1)}))}function on(t,n,e){return 0===t?n:1===t?e:{blur:G(t,n.blur,e.blur),offset:q(t,n.offset,e.offset),color:Y(t,n.color,e.color)}}var an={blur:G,brightness:L,contrast:L,"drop-shadow":on,"inner-shadow":on,grayscale:L,"hue-rotate":D,invert:L,opacity:L,saturate:L,sepia:L};function ln(t,n,e){if(0===t)return n;if(1===t)return e;var r=n.length;if(r!==e.length)return C(t,n,e);for(var i,u=[],o=0;o<r;o++){if(n[o].type!==e[o].type)return n;if(!(i=an[n[o].type]))return C(t,n,e);u.push({type:n.type,value:i(t,n[o].value,e[o].value)})}return u}var sn={blur:function(t){return t?function(n){t.setAttribute("stdDeviation",bt(n))}:null},brightness:function(t,n,e){return(t=cn(e,n))?function(n){n=pt(n),t.map((function(t){return t.setAttribute("slope",n)}))}:null},contrast:function(t,n,e){return(t=cn(e,n))?function(n){var e=pt((1-n)/2);n=pt(n),t.map((function(t){t.setAttribute("slope",n),t.setAttribute("intercept",e)}))}:null},"drop-shadow":function(t,n,e){var r=e.getElementById(n+"-blur");if(!r)return null;var i=e.getElementById(n+"-offset");if(!i)return null;var u=e.getElementById(n+"-flood");return u?function(t){r.setAttribute("stdDeviation",bt(t.blur)),i.setAttribute("dx",pt(t.offset.x)),i.setAttribute("dy",pt(t.offset.y)),u.setAttribute("flood-color",wt(t.color))}:null},"inner-shadow":function(t,n,e){var r=e.getElementById(n+"-blur");if(!r)return null;var i=e.getElementById(n+"-offset");if(!i)return null;var u=e.getElementById(n+"-color-matrix");return u?function(t){r.setAttribute("stdDeviation",bt(t.blur)),i.setAttribute("dx",pt(t.offset.x)),i.setAttribute("dy",pt(t.offset.y));var n=[0,0,0,0,t.color.r/255,0,0,0,0,t.color.g/255,0,0,0,0,t.color.b/255,0,0,0,t.color.a,0];u.setAttribute("values",mt(n))}:null},grayscale:function(t){return t?function(n){t.setAttribute("values",mt(function(t){return[.2126+.7874*(t=1-t),.7152-.7152*t,.0722-.0722*t,0,0,.2126-.2126*t,.7152+.2848*t,.0722-.0722*t,0,0,.2126-.2126*t,.7152-.7152*t,.0722+.9278*t,0,0,0,0,0,1,0]}(n)))}:null},"hue-rotate":function(t){return t?function(n){return t.setAttribute("values",pt(n))}:null},invert:function(t,n,e){return(t=cn(e,n))?function(n){n=pt(n)+" "+pt(1-n),t.map((function(t){return t.setAttribute("tableValues",n)}))}:null},opacity:function(t,n,e){return(t=e.getElementById(n+"-A"))?function(n){return t.setAttribute("tableValues","0 "+pt(n))}:null},saturate:function(t){return t?function(n){return t.setAttribute("values",pt(n))}:null},sepia:function(t){return t?function(n){return t.setAttribute("values",mt(function(t){return[.393+.607*(t=1-t),.769-.769*t,.189-.189*t,0,0,.349-.349*t,.686+.314*t,.168-.168*t,0,0,.272-.272*t,.534-.534*t,.131+.869*t,0,0,0,0,0,1,0]}(n)))}:null}};var fn=["R","G","B"];function cn(t,n){var e=fn.map((function(e){return t.getElementById(n+"-"+e)||null}));return-1!==e.indexOf(null)?null:e}var hn={fill:tn,"fill-opacity":Xt,stroke:tn,"stroke-opacity":Xt,"stroke-width":Qt,"stroke-dashoffset":{f:pt,i:D},"stroke-dasharray":Jt,opacity:Xt,transform:function(t,n,r,i){if(!(t=function(t,n){if(!t||"object"!==e(t))return null;var r=!1;for(var i in t)t.hasOwnProperty(i)&&(t[i]&&t[i].length?(t[i].forEach((function(t){t.e&&(t.e=n(t.e))})),r=!0):delete t[i]);return r?t:null}(t,i)))return null;var u=function(e,i,u){var o=arguments.length>3&&void 0!==arguments[3]?arguments[3]:null;return t[e]?r(i,t[e],u):n&&n[e]?n[e]:o};return n&&n.a&&t.o?function(n){var e=r(n,t.o,Gt);return Wt.recomposeSelf(e,u("r",n,D,0)+e.a,u("k",n,q),u("s",n,q),u("t",n,q)).toString()}:function(t){return Wt.recomposeSelf(u("o",t,qt,null),u("r",t,D,0),u("k",t,q),u("s",t,q),u("t",t,q)).toString()}},"#filter":function(t,n,e,r,i,u,o,a){if(!n.items||!t||!t.length)return null;var l=function(t,n){var e=(t=t.map((function(t){return t&&sn[t[0]]?(n.getElementById(t[1]),sn[t[0]](n.getElementById(t[1]),t[1],n)):null}))).length;return function(n){for(var r=0;r<e;r++)t[r]&&t[r](n[r].value)}}(n.items,a);return l?(t=function(t,n){return t.map((function(t){return t.e=n(t.e),t}))}(t,r),function(n){l(e(n,t,ln))}):null},"#line":Ht,points:{f:mt,i:U},d:$t,r:Qt,"#size":_t,"#radius":kt,_:function(t,n){if(Array.isArray(t))for(var e=0;e<t.length;e++)this[t[e]]=n;else this[t]=n}},vn=function(){function t(n,e,i){r(this,t);var u=function(t){var n,e,r,i=t&&1===(null===(n=t.ownerDocument)||void 0===n||null===(e=n.childNodes)||void 0===e?void 0:e.length)&&window.parent!==window,u={el:t,window:window};if(!i)return u;try{r=window.parent.document}catch(t){return u}return u.window=window.parent,u.el=Array.from(r.querySelectorAll("iframe,object")).filter((function(t){return t.contentWindow===window}))[0]||u.el,u}(n);e=Math.max(1,e||1),e=Math.min(e,100),this.el=u.el,this._handlers=[],this.onThresholdChange=i&&i.call?i:function(){},this.thresholdPercent=e||1,this.currentVisibility=null,this.visibilityCalculator=function(t,n){var e=arguments.length>2&&void 0!==arguments[2]?arguments[2]:e,r=!1,i=null,u=function(){for(var u=0,o=e.innerHeight,a=0,l=e.innerWidth,s=t.parentNode;s instanceof Element;){var f=e.getComputedStyle(s);if("visible"!==f.overflowY||"visible"!==f.overflowX){var c=s.getBoundingClientRect();"visible"!==f.overflowY&&(u=Math.max(u,c.top),o=Math.min(o,c.bottom)),"visible"!==f.overflowX&&(a=Math.max(a,c.left),l=Math.min(l,c.right))}if(s===s.parentNode)break;s=s.parentNode}r=!1;var h=t.getBoundingClientRect(),v=Math.min(h.height,Math.max(0,u-h.top)),d=Math.min(h.height,Math.max(0,h.bottom-o)),y=Math.min(h.width,Math.max(0,a-h.left)),g=Math.min(h.width,Math.max(0,h.right-l)),p=(h.height-v-d)/h.height,m=(h.width-y-g)/h.width,b=Math.round(p*m*100);null!==i&&i===b||(i=b,n(b))};return function(t){r&&clearTimeout(r),r=setTimeout((function(){return u()}),100)}}(this.el,this.onVisibilityUpdate.bind(this),u.window),this.bindScrollWatchers(),this.visibilityCalculator()}return u(t,[{key:"bindScrollWatchers",value:function(){for(var t=this.el.parentNode;t&&(this._handlers.push({element:t,event:"scroll",handler:this.visibilityCalculator}),t.addEventListener("scroll",this.visibilityCalculator),t!==t.parentNode&&t!==document);)t=t.parentNode}},{key:"onVisibilityUpdate",value:function(t){var n=this.currentVisibility>=this.thresholdPercent,e=t>=this.thresholdPercent;if(null===this.currentVisibility||n!==e)return this.currentVisibility=t,void this.onThresholdChange(e);this.currentVisibility=t}},{key:"destruct",value:function(){this._handlers.forEach((function(t){t.element.removeEventListener(t.event,t.handler)}))}}]),t}(),dn=function(){function t(){r(this,t)}return u(t,null,[{key:"adjustLink",value:function(t){var n,e,r=t&&1===(null===(n=t.ownerDocument)||void 0===n||null===(e=n.childNodes)||void 0===e?void 0:e.length)&&window.parent!==window,i=null==t?void 0:t.firstElementChild;r&&i&&"a"===i.tagName&&!i.getAttribute("target")&&i.setAttributeNS(null,"target","_parent")}},{key:"autoPlay",value:function(t,n,e){var r=arguments.length>3&&void 0!==arguments[3]?arguments[3]:[];if("click"===e.start){var i=function(){switch(e.click){case"freeze":return!t._running&&t.reachedToEnd()?t.restart():t.toggle();case"restart":return t.offset>0?t.restart():t.play();case"reverse":return t._running?t.reverse():t.reachedToEnd()?1===t.fill?t.reverse(!0):t.restart():t.play();case"none":default:if(t._running)return;return t.reachedToEnd()?t.restart():t.play()}};return r.push({element:n,event:"click",handler:i}),void n.addEventListener("click",i)}if("hover"===e.start){var u=function(){return t.reachedToEnd()?t.restart():t._rollingBack?t.reverse():t.play()};r.push({element:n,event:"mouseenter",handler:u}),n.addEventListener("mouseenter",u);var o=function(){switch(e.hover){case"freeze":return t.pause();case"reset":return t.stop();case"reverse":if(t.reverse(),t._running)return;return t.play();case"none":default:return}};return r.push({element:n,event:"mouseleave",handler:o}),void n.addEventListener("mouseleave",o)}if("scroll"!==e.start)"programmatic"!==e.start&&t.play();else{var a=new vn(n,e.scroll||25,(function(n){n?t.reachedToEnd()?t.restart():t.play():t.pause()}));r.push({callback:function(){return a.destruct()}})}}}]),t}(),yn=function(t){!function(t,n){if("function"!=typeof n&&null!==n)throw new TypeError("Super expression must either be null or a function");t.prototype=Object.create(n&&n.prototype,{constructor:{value:t,writable:!0,configurable:!0}}),n&&l(t,n)}(o,t);var n,e,i=(n=o,e=s(),function(){var t,r=a(n);if(e){var i=a(this).constructor;t=Reflect.construct(r,arguments,i)}else t=r.apply(this,arguments);return c(this,t)});function o(){return r(this,o),i.apply(this,arguments)}return u(o,null,[{key:"build",value:function(t){var n=h(a(o),"build",this).call(this,t,hn);if(!n)return null;var e=n.el,r=n.options,i=n.player;dn.adjustLink(e),dn.autoPlay(i,e,r)}}]),o}(gt);return yn.init(),yn}));
(function(s,i,o,w,d,a,b){w[o]=w[o]||{};w[o][s]=w[o][s]||[];w[o][s].push(i);})('5c7f360c',{"root":"eMTpJzO3C2c1","version":"2024-09-05","animations":[{"elements":{"eMTpJzO3C2c7":{"opacity":[{"t":1000,"v":1},{"t":1100,"v":0},{"t":5700,"v":0},{"t":5800,"v":1}]},"eMTpJzO3C2c8":{"opacity":[{"t":1000,"v":0},{"t":1100,"v":1},{"t":1200,"v":1},{"t":1300,"v":0},{"t":5500,"v":0},{"t":5600,"v":1},{"t":5700,"v":1},{"t":5800,"v":0}]},"eMTpJzO3C2c9":{"opacity":[{"t":1200,"v":0},{"t":1300,"v":1},{"t":1400,"v":1},{"t":1500,"v":0},{"t":5300,"v":0},{"t":5400,"v":1},{"t":5500,"v":1},{"t":5600,"v":0}]},"eMTpJzO3C2c10":{"opacity":[{"t":1400,"v":0},{"t":1500,"v":1},{"t":1600,"v":1},{"t":1700,"v":0},{"t":5100,"v":0},{"t":5200,"v":1},{"t":5300,"v":1},{"t":5400,"v":0}]},"eMTpJzO3C2c11":{"opacity":[{"t":1600,"v":0},{"t":1700,"v":1},{"t":1800,"v":1},{"t":1900,"v":0},{"t":4900,"v":0},{"t":5000,"v":1},{"t":5100,"v":1},{"t":5200,"v":0}]},"eMTpJzO3C2c12":{"opacity":[{"t":1800,"v":0},{"t":1900,"v":1},{"t":2000,"v":1},{"t":2100,"v":0},{"t":4700,"v":0},{"t":4800,"v":1},{"t":4900,"v":1},{"t":5000,"v":0}]},"eMTpJzO3C2c13":{"opacity":[{"t":2000,"v":0},{"t":2100,"v":1},{"t":2200,"v":1},{"t":2300,"v":0},{"t":4500,"v":0},{"t":4600,"v":1},{"t":4700,"v":1},{"t":4800,"v":0}]},"eMTpJzO3C2c14":{"opacity":[{"t":2200,"v":0},{"t":2300,"v":1},{"t":2400,"v":1},{"t":2500,"v":0},{"t":4300,"v":0},{"t":4400,"v":1},{"t":4500,"v":1},{"t":4600,"v":0}]},"eMTpJzO3C2c15":{"opacity":[{"t":2400,"v":0},{"t":2500,"v":1},{"t":2600,"v":1},{"t":2700,"v":0},{"t":4100,"v":0},{"t":4200,"v":1},{"t":4300,"v":1},{"t":4400,"v":0}]},"eMTpJzO3C2c16":{"opacity":[{"t":2600,"v":0},{"t":2700,"v":1},{"t":2800,"v":1},{"t":2900,"v":0},{"t":3900,"v":0},{"t":4000,"v":1},{"t":4100,"v":1},{"t":4200,"v":0}]},"eMTpJzO3C2c17":{"opacity":[{"t":2800,"v":0},{"t":2900,"v":1},{"t":3900,"v":1},{"t":4000,"v":0}]},"eMTpJzO3C2c24":{"transform":{"data":{"o":{"x":135.33781,"y":207.03926,"type":"corner"},"t":{"x":-135.33781,"y":-207.03926}},"keys":{"r":[{"t":0,"v":720,"e":[0.415,0.08,0.115,0.955]},{"t":7700,"v":0,"e":[1,0]}]}},"fill":[{"t":0,"v":{"t":"c","v":{"r":210,"g":219,"b":237,"a":1}}},{"t":7700,"v":{"t":"c","v":{"r":210,"g":219,"b":236,"a":1}}}]},"eMTpJzO3C2c25":{"transform":{"data":{"o":{"x":11.12,"y":29.9,"type":"corner"},"s":{"x":0.3,"y":0.3},"t":{"x":-95.902813,"y":-108.465}},"keys":{"r":[{"t":0,"v":-720,"e":[0.415,0.08,0.115,0.955]},{"t":7700,"v":0,"e":[1,0]}]}}}},"s":"MBDA1Y2Q4N2ZjMWQyY2RZiZWQxYzZjY2NiN2YD5NzkzOTU4ZDhkODlWUN2ZjMWM2Y2ZjMldjMQGQxYzZjY2NiN2Y5NzIhlODk3ZmM2ZDFjMkFOjZmJlZDFjNmNjY2JkSMDdmOTdOOGU4OTdmUYWMzRGM2YzljOTdmTDWk3OGU4OTdmYmVjOWQOxYzJjZmNiUGJlZDFjGMjdmOTdjM2JlYzlkMUGMyODk3ZmQwY2RjMmEMyYzE3Zjk3OGU4OTdEmYzNjZGQwRDdmWTk3BOTM4ZGRh"}],"options":"MBDAxMDg4MmY4MDgxNmLU3ZjgxMmY0NzJmNzlUUN2M2ZTcxMmY4YQ|"},'__SVGATOR_PLAYER__',window,document)
]]></script>
</svg>